<svg width="100" height="100" viewBox="0 0 100 100" fill="none" xmlns="http://www.w3.org/2000/svg">
<path fill-rule="evenodd" clip-rule="evenodd" d="M24.9148 62.6591C26.1477 62.7472 27.8321 62.8268 29.8395 62.8268C39.1248 62.8268 55.3398 61.1307 65.8319 50.2635C80.3794 35.2174 77.9579 8.77129 77.6849 6.2256C77.6768 5.96385 77.6172 5.7056 77.509 5.46617C77.3704 5.15949 77.1564 4.89397 76.8876 4.69498C76.6187 4.496 76.3041 4.37019 75.9736 4.3296C75.9287 4.3243 75.8463 4.31479 75.7285 4.30227C72.7757 3.98582 47.5629 1.74791 33.1682 16.6169C22.6347 27.4975 20.9977 44.3744 21 53.8264C20.9997 55.0798 21.0283 56.2034 21.0689 57.1663H21.0216V96H24.9148V62.6591ZM52.7314 37.6804C45.4241 45.3225 37.5662 52.3997 29.2239 58.8541C37.5646 58.8947 53.3353 57.4994 63.0482 47.4629C72.8676 37.3165 74.1467 20.8007 74.0748 12.1275C67.6241 21.1886 60.4886 29.7321 52.7314 37.6804ZM35.874 19.4372C25.0566 30.7078 24.6755 49.7269 24.9875 57.1898C33.8701 50.4399 42.2159 42.9934 49.9477 34.9192C58.0732 26.5793 65.5143 17.5824 72.1972 8.01771L69.472 7.97827C61.0073 7.97827 45.6177 9.45642 35.8842 19.4266L35.874 19.4372Z" fill="white"/>
</svg>
