<svg width="100" height="101" viewBox="0 0 100 101" fill="none" xmlns="http://www.w3.org/2000/svg">
<path fill-rule="evenodd" clip-rule="evenodd" d="M50 96.9165C40.9021 96.9165 32.0084 94.2187 24.4438 89.1641C16.8791 84.1096 10.9832 76.9254 7.50156 68.5199C4.01993 60.1145 3.10898 50.8655 4.8839 41.9424C6.65882 33.0193 11.0399 24.8229 17.4731 18.3896C23.9064 11.9564 32.1028 7.57532 41.0259 5.8004C49.949 4.02548 59.198 4.93644 67.6034 8.41806C76.0089 11.8997 83.1931 17.7956 88.2476 25.3603C93.3022 32.9249 96 41.8186 96 50.9165C95.9896 63.1133 91.14 74.8075 82.5154 83.4319C73.891 92.0565 62.1968 96.9061 50 96.9165ZM50 8.83142C41.6763 8.83142 33.5396 11.2997 26.6188 15.924C19.6979 20.5484 14.3038 27.1212 11.1185 34.8112C7.93313 42.5013 7.09971 50.9632 8.72356 59.1269C10.3474 67.2906 14.3557 74.7895 20.2413 80.6752C26.1271 86.5609 33.626 90.5691 41.7896 92.193C49.9533 93.8169 58.4153 92.9834 66.1053 89.798C73.7953 86.6128 80.3681 81.2187 84.9925 74.2977C89.6169 67.3769 92.0851 59.2402 92.0851 50.9165C92.0747 39.7581 87.6375 29.0596 79.7472 21.1693C71.857 13.2791 61.1585 8.84178 50 8.83142ZM51.9574 18.8926L57.8297 24.7649L60.5114 22.0049L51.3505 12.8245C51.1686 12.641 50.9521 12.4954 50.7136 12.396C50.4751 12.2966 50.2192 12.2455 49.9608 12.2455C49.7024 12.2455 49.4465 12.2966 49.208 12.396C48.9695 12.4954 48.753 12.641 48.571 12.8245L39.4101 22.0049L42.1701 24.7649L48.0426 18.8925V48.9591H17.9958L23.868 43.0869L21.0884 40.3661L11.908 49.5269C11.7245 49.7089 11.5789 49.9254 11.4795 50.164C11.3801 50.4025 11.329 50.6583 11.329 50.9167C11.329 51.1751 11.3801 51.431 11.4795 51.6695C11.5789 51.9081 11.7245 52.1245 11.908 52.3065L21.0884 61.4673L23.868 58.7465L17.9955 52.874H48.0426V82.9405L42.1702 77.0682L39.4494 79.8282L48.6102 89.0086C48.7931 89.1901 49.01 89.3335 49.2485 89.431C49.487 89.5284 49.7424 89.5777 50 89.5763C50.2642 89.583 50.5269 89.5361 50.7725 89.4387C51.0181 89.3411 51.2414 89.1948 51.4289 89.0086L60.5898 79.8282L57.8298 77.0682L51.9574 82.9405V52.874H82.0239L76.1515 58.7465L78.9115 61.4673L88.0919 52.2673C88.2753 52.0854 88.421 51.8688 88.5203 51.6303C88.6197 51.3918 88.6709 51.1359 88.6709 50.8776C88.6709 50.6192 88.6197 50.3632 88.5203 50.1247C88.421 49.8862 88.2753 49.6697 88.0919 49.4878L78.9115 40.3269L76.1515 43.0869L82.0236 48.9591H51.9574V18.8926Z" fill="white"/>
</svg>
