<svg width="100" height="100" viewBox="0 0 100 100" fill="none" xmlns="http://www.w3.org/2000/svg">
<path fill-rule="evenodd" clip-rule="evenodd" d="M94.0426 34.3522H5.95745C5.4383 34.3522 4.94042 34.1437 4.57332 33.7727C4.20623 33.4018 4 32.8986 4 32.3739V11.9782C4 11.4536 4.20623 10.9504 4.57332 10.5794C4.94042 10.2084 5.4383 10 5.95745 10H94.0426C94.5617 10 95.0596 10.2084 95.4267 10.5794C95.7938 10.9504 96 11.4536 96 11.9782V32.3739C96 32.8986 95.7938 33.4018 95.4267 33.7727C95.0596 34.1437 94.5617 34.3522 94.0426 34.3522ZM7.91489 30.3957H92.0851V13.9565H7.91489V30.3957ZM90.1277 58.2295H92.0851V56.2512H96V60.2077C96 60.7324 95.7938 61.2355 95.4267 61.6065C95.0596 61.9775 94.5617 62.1859 94.0426 62.1859H90.1277V58.2295ZM79.1855 62.186H86.4868V58.2295H79.1855V62.186ZM68.2434 62.186H75.5447V58.2295H68.2434V62.186ZM57.3013 62.186H64.6025V58.2295H57.3013V62.186ZM46.3591 62.186H53.6408V58.2295H46.3591V62.186ZM35.417 62.186H42.6987V58.2295H35.417V62.186ZM24.5532 62.186H31.7566L31.8349 58.2295H24.5532V62.186ZM13.5132 62.186H20.8145V58.2295H13.5132V62.186ZM5.95745 62.1859C5.4383 62.1859 4.94042 61.9775 4.57332 61.6065C4.20623 61.2355 4 60.7324 4 60.2077V56.2512H7.91489V58.2295H9.87234V62.1859H5.95745ZM4 46.8743H7.91489V53.1256H4V46.8743ZM7.91489 43.7488H4V39.7924C4 39.2677 4.20623 38.7645 4.57332 38.3935C4.94042 38.0225 5.4383 37.8141 5.95745 37.8141H9.87234V41.7706H7.91489V43.7488ZM79.1855 41.7706H86.4868V37.8141H79.1855V41.7706ZM68.2434 41.7706H75.5251L75.4468 37.8141H68.2434V41.7706ZM57.3013 41.7706H64.583V37.8141H57.3013V41.7706ZM46.3591 41.7706H53.6408V37.8141H46.3591V41.7706ZM35.3974 41.7706H42.6987V37.8141H35.3974V41.7706ZM24.5532 41.7706H31.7566L31.8545 37.8141H24.5532V41.7706ZM13.5132 41.7706H20.8145V37.8141H13.5132V41.7706ZM96 43.7488H92.0851V41.7706H90.1277V37.8141H94.0426C94.5617 37.8141 95.0596 38.0225 95.4267 38.3935C95.7938 38.7645 96 39.2677 96 39.7924V43.7488ZM92.0852 46.8743H96.0001V53.1256H92.0852V46.8743ZM90.1277 86.0436H92.0851V84.0653H96V88.0218C96 88.5465 95.7938 89.0496 95.4267 89.4206C95.0596 89.7916 94.5617 90 94.0426 90H90.1277V86.0436ZM79.1855 90H86.4868V86.0435H79.1855V90ZM68.2434 90H75.5447V86.0435H68.2434V90ZM57.3013 90H64.6025V86.0435H57.3013V90ZM46.3591 90H53.6408V86.0435H46.3591V90ZM35.417 90H42.6987V86.0435H35.417V90ZM24.5532 90H31.7566L31.8349 86.0435H24.5532V90ZM13.5132 90H20.8145V86.0435H13.5132V90ZM5.95745 90C5.4383 90 4.94042 89.7916 4.57332 89.4206C4.20623 89.0496 4 88.5465 4 88.0218V84.0653H7.91489V86.0436H9.87234V90H5.95745ZM4 74.6884H7.91489V80.9397H4V74.6884ZM7.91489 71.5827H4V67.6262C4 67.1015 4.20623 66.5984 4.57332 66.2274C4.94042 65.8564 5.4383 65.648 5.95745 65.648H9.87234V69.6045H7.91489V71.5827ZM79.1855 69.6045H86.4868V65.648H79.1855V69.6045ZM68.2434 69.6045H75.5251L75.4468 65.648H68.2434V69.6045ZM57.3013 69.6045H64.583V65.648H57.3013V69.6045ZM46.3591 69.6045H53.6408V65.648H46.3591V69.6045ZM35.3974 69.6045H42.6987V65.648H35.3974V69.6045ZM24.5532 69.6045H31.7566L31.8545 65.648H24.5532V69.6045ZM13.5132 69.6045H20.8145V65.648H13.5132V69.6045ZM96 71.5827H92.0851V69.6045H90.1277V65.648H94.0426C94.5617 65.648 95.0596 65.8564 95.4267 66.2274C95.7938 66.5984 96 67.1015 96 67.6262V71.5827ZM92.0852 74.6884H96.0001V80.9397H92.0852V74.6884Z" fill="white"/>
</svg>
