<svg width="100" height="100" viewBox="0 0 100 100" fill="none" xmlns="http://www.w3.org/2000/svg">
<path d="M61.477 96C61.1469 95.9999 60.8229 95.9118 60.539 95.745L50 89.498L39.461 95.745C39.1814 95.9049 38.8642 95.989 38.5414 95.989C38.2185 95.989 37.9014 95.9049 37.6218 95.745L15.9736 82.6682C15.7085 82.5042 15.4901 82.276 15.3388 82.0051C15.1876 81.7342 15.1085 81.4297 15.1092 81.1202V68.007L4.93803 62.3428C4.65392 62.1846 4.41735 61.9546 4.25253 61.6762C4.08771 61.3978 4.00056 61.081 4 60.7583V39.2308C4.00056 38.908 4.08771 38.5913 4.25253 38.3128C4.41735 38.0344 4.65392 37.8044 4.93803 37.6462L15.054 31.9821V18.8689C15.0502 18.5563 15.1277 18.248 15.2791 17.9737C15.4305 17.6993 15.6507 17.4682 15.9184 17.3026L37.5482 4.24401C37.8278 4.08416 38.145 4 38.4678 4C38.7907 4 39.1078 4.08416 39.3874 4.24401L49.9264 10.491L60.4654 4.24401C60.745 4.08416 61.0622 4 61.385 4C61.7079 4 62.0251 4.08416 62.3047 4.24401L84.0264 17.3208C84.2949 17.4826 84.517 17.7099 84.6715 17.9809C84.8261 18.2519 84.9079 18.5576 84.9092 18.8689V31.9821L95.062 37.6462C95.3461 37.8044 95.5826 38.0344 95.7475 38.3128C95.9123 38.5913 95.9994 38.908 96 39.2308V60.7583C95.9994 61.081 95.9123 61.3978 95.7475 61.6762C95.5826 61.9546 95.3461 62.1846 95.062 62.3428L84.946 68.007V81.1202C84.9479 81.4345 84.8675 81.7439 84.7128 82.0184C84.5581 82.2929 84.3343 82.523 84.0632 82.6865L62.4334 95.745C62.1418 95.9094 61.8126 95.9971 61.477 96ZM51.8209 86.3472L61.477 92.0478L81.2675 80.0456V66.9506C81.2681 66.6279 81.3552 66.3111 81.52 66.0327C81.6849 65.7543 81.9214 65.5242 82.2055 65.3661L90.3535 60.7765L83.5114 57.0429C82.5976 57.8201 81.4427 58.2644 80.2387 58.3021C79.0346 58.3398 77.8538 57.9685 76.8922 57.2499C75.9306 56.5313 75.2462 55.5087 74.9525 54.3518C74.6589 53.1949 74.7737 51.9734 75.2779 50.89C75.7821 49.8066 76.6453 48.9266 77.7242 48.396C78.8032 47.8655 80.033 47.7163 81.2093 47.9733C82.3857 48.2304 83.4379 48.8781 84.1912 49.8089C84.9445 50.7398 85.3537 51.8978 85.3507 53.0907C85.3687 53.3454 85.3687 53.601 85.3507 53.8556L92.3767 57.6803V40.2871L82.1871 34.6229C81.903 34.4648 81.6665 34.2347 81.5016 33.9563C81.3368 33.6779 81.2497 33.3611 81.2491 33.0384V28.1392H76.1727C75.7412 29.2933 74.9136 30.2604 73.8347 30.8713C72.7558 31.4822 71.4943 31.698 70.2709 31.4809C69.0476 31.2639 67.9403 30.6278 67.1427 29.6839C66.3451 28.7401 65.9081 27.5486 65.9081 26.3179C65.9081 25.0872 66.3451 23.8957 67.1427 22.9519C67.9403 22.008 69.0476 21.3719 70.2709 21.1548C71.4943 20.9378 72.7558 21.1536 73.8347 21.7645C74.9136 22.3754 75.7412 23.3425 76.1727 24.4966H81.2675V19.9434L61.4586 7.9412L51.8393 13.6418V33.6759L62.0656 39.5404C63.0123 38.8347 64.1719 38.4662 65.3566 38.4947C66.5412 38.5231 67.6815 38.9468 68.5926 39.6971C69.5037 40.4473 70.1322 41.4803 70.3765 42.6285C70.6207 43.7767 70.4662 44.9729 69.9382 46.0233C69.4101 47.0737 68.5393 47.9169 67.4669 48.416C66.3945 48.9152 65.1833 49.0412 64.0295 48.7736C62.8757 48.506 61.847 47.8605 61.11 46.9417C60.373 46.0228 59.9709 44.8845 59.9688 43.7111C59.9673 43.344 60.0043 42.9778 60.0792 42.6183L49.0804 36.3349C48.8024 36.176 48.5712 35.9478 48.4099 35.673C48.2486 35.3983 48.1627 35.0865 48.1607 34.7686V13.6418L38.523 7.9412L29.7497 13.2229V26.0811H26.0712V15.4449L18.7325 19.9434V32.0367L27.9288 37.1909L37.1252 32.0367V22.6753H40.8037V33.0384C40.8031 33.3611 40.716 33.6779 40.5511 33.9563C40.3863 34.2347 40.1498 34.4648 39.8657 34.6229L29.7497 40.2871V48.9564L39.884 55.513C40.1431 55.6775 40.3562 55.9038 40.5041 56.1711C40.6519 56.4384 40.7296 56.7381 40.7301 57.0429V63.1624L48.0872 58.8641V51.1419L38.431 45.4413L40.2703 42.3087L50.9196 48.5193C51.1908 48.6827 51.4146 48.9129 51.5693 49.1873C51.724 49.4618 51.8043 49.7713 51.8025 50.0856V73.7622H60.2447C60.6754 72.6176 61.4986 71.6594 62.5704 71.0548C63.6422 70.4503 64.8945 70.2379 66.1083 70.4549C67.3222 70.6719 68.4205 71.3043 69.2112 72.2418C70.0019 73.1792 70.4348 74.362 70.4342 75.5835C70.3575 76.7607 69.885 77.8785 69.092 78.7589C68.299 79.6392 67.2313 80.2314 66.0589 80.4409C64.8866 80.6505 63.6771 80.4653 62.6234 79.9151C61.5696 79.3648 60.7322 78.4811 60.2447 77.4047H51.7841L51.8209 86.3472ZM30.8349 87.3307L38.523 91.975L48.1791 86.2744V63.0895L27.6162 75.0735L25.7769 71.9227L37.1252 65.2933V58.0081L27.9288 52.0526L17.6289 57.7714L15.7897 54.5841L26.1264 48.8471V40.2871L16.93 35.1329L7.73371 40.2871V46.9166L15.6058 42.3451L17.445 45.4777L7.69692 51.1419V59.6837L16.8932 64.8379L26.1999 59.3741L28.0392 62.5067L18.7325 67.9705V80.0456L27.0092 85.127L36.6102 79.5357L36.7205 79.6996L37.1619 79.4446L39.0012 82.5772L30.8349 87.3307ZM65.2107 73.835C64.8935 73.8314 64.5823 73.9213 64.3168 74.0932C64.0512 74.2651 63.8433 74.5113 63.7193 74.8005C63.5954 75.0897 63.561 75.4088 63.6207 75.7174C63.6803 76.0259 63.8313 76.31 64.0543 76.5334C64.2774 76.7568 64.5624 76.9095 64.8733 76.9722C65.1842 77.0348 65.5069 77.0045 65.8004 76.8851C66.0938 76.7657 66.3448 76.5627 66.5215 76.3017C66.6981 76.0408 66.7925 75.7337 66.7925 75.4196C66.7782 75.0137 66.6052 74.6292 66.3101 74.3472C66.015 74.0651 65.6208 73.9077 65.2107 73.9079V73.835ZM80.072 51.4333C79.7555 51.4333 79.4461 51.5263 79.183 51.7004C78.9198 51.8745 78.7147 52.1219 78.5936 52.4115C78.4725 52.701 78.4408 53.0196 78.5026 53.327C78.5643 53.6343 78.7167 53.9167 78.9405 54.1383C79.1643 54.3599 79.4494 54.5108 79.7598 54.5719C80.0702 54.633 80.3919 54.6017 80.6843 54.4817C80.9767 54.3618 81.2266 54.1587 81.4025 53.8981C81.5783 53.6376 81.6721 53.3312 81.6721 53.0178C81.6532 52.6104 81.4763 52.2258 81.1782 51.9442C80.8802 51.6626 80.4839 51.5057 80.072 51.5062V51.4333ZM65.2107 42.0537C64.8935 42.0501 64.5823 42.14 64.3168 42.3119C64.0512 42.4838 63.8433 42.73 63.7193 43.0192C63.5954 43.3084 63.561 43.6275 63.6207 43.9361C63.6803 44.2446 63.8313 44.5286 64.0543 44.7521C64.2774 44.9755 64.5624 45.1282 64.8733 45.1909C65.1842 45.2535 65.5069 45.2232 65.8004 45.1038C66.0938 44.9844 66.3448 44.7814 66.5215 44.5204C66.6981 44.2595 66.7925 43.9524 66.7925 43.6382C66.7782 43.2324 66.6052 42.8479 66.3101 42.5659C66.015 42.2838 65.6208 42.1263 65.2107 42.1266V42.0537ZM71.1516 24.7334C70.8351 24.7334 70.5257 24.8263 70.2626 25.0004C69.9994 25.1745 69.7943 25.422 69.6732 25.7115C69.5521 26.0011 69.5204 26.3197 69.5821 26.627C69.6439 26.9344 69.7963 27.2167 70.0201 27.4383C70.2438 27.6599 70.529 27.8108 70.8394 27.872C71.1498 27.9331 71.4715 27.9017 71.7639 27.7818C72.0563 27.6619 72.3062 27.4588 72.482 27.1982C72.6579 26.9376 72.7517 26.6313 72.7517 26.3179C72.7542 26.1091 72.7145 25.902 72.6349 25.7087C72.5554 25.5153 72.4376 25.3397 72.2885 25.192C72.1394 25.0444 71.9621 24.9278 71.7668 24.849C71.5715 24.7703 71.3624 24.7309 71.1516 24.7334Z" fill="white"/>
</svg>
