<svg width="100" height="100" viewBox="0 0 100 100" fill="none" xmlns="http://www.w3.org/2000/svg">
<path fill-rule="evenodd" clip-rule="evenodd" d="M12.3071 65.2979C15.381 67.3857 18.9948 68.5 22.6917 68.5C27.6472 68.4941 32.3982 66.4904 35.9023 62.9285C38.884 59.8975 40.7558 55.9489 41.2512 51.7352H88.7754L78.8106 62.6436L82.0212 65.6836L95.4132 51.0201C95.7903 50.6067 95.9999 50.0638 95.9999 49.5001C95.9999 48.9363 95.7903 48.3934 95.4132 47.9801L82.0212 33.3165L78.8106 36.3565L88.7752 47.2647H41.2536C40.9078 44.2983 39.8774 41.4453 38.2332 38.9442C36.1794 35.8196 33.2601 33.3844 29.8447 31.9463C26.4292 30.5082 22.6709 30.132 19.0451 30.8651C15.4193 31.5982 12.0887 33.4078 9.47467 36.065C6.8606 38.7222 5.08039 42.1077 4.35916 45.7933C3.63794 49.4789 4.0081 53.2992 5.42283 56.771C6.83756 60.2428 9.23331 63.2102 12.3071 65.2979ZM14.7506 37.4192C17.1011 35.8227 19.8647 34.9706 22.6917 34.9706C26.4808 34.9765 30.1131 36.5092 32.7924 39.2327C35.4717 41.9562 36.9795 45.6484 36.9853 49.5C36.9853 52.3737 36.147 55.1828 34.5764 57.5721C33.0058 59.9615 30.7734 61.8237 28.1616 62.9234C25.5498 64.0231 22.6758 64.3109 19.9031 63.7502C17.1304 63.1896 14.5836 61.8058 12.5846 59.7738C10.5856 57.7419 9.22422 55.153 8.6727 52.3346C8.12117 49.5161 8.40424 46.5947 9.48609 43.9398C10.5679 41.2849 12.4 39.0158 14.7506 37.4192ZM90.8173 49.5001L90.7293 49.5963V49.4038L90.8173 49.5001Z" fill="white"/>
</svg>
