<svg width="100" height="101" viewBox="0 0 100 101" fill="none" xmlns="http://www.w3.org/2000/svg">
<path fill-rule="evenodd" clip-rule="evenodd" d="M35.2799 39.3621V35.685C12.9238 32.9457 7.84543 21.8961 7.84543 12.446V5H4.16543V12.3541C4.16543 23.4221 9.90623 36.4205 35.2799 39.3621ZM35.28 41.7338V45.4109C24.3187 44.833 13.6279 41.7981 4 36.5308V32.2287C12.1144 37.5236 22.9152 40.7043 35.28 41.7338ZM40.7999 32.5411H50C50.4879 32.5411 50.956 32.7349 51.301 33.0796C51.6462 33.4245 51.8399 33.892 51.8399 34.3796V37.2294L72.4848 41.7706C72.8935 41.8628 73.2587 42.0915 73.5196 42.4191C73.7806 42.7468 73.9219 43.1537 73.92 43.5723V58.2806C73.9303 58.7056 73.793 59.121 73.5314 59.4562C73.2697 59.7914 72.8999 60.0257 72.4848 60.1191L51.8399 64.697V67.4731C51.8399 67.9608 51.6462 68.4284 51.301 68.7733C50.956 69.118 50.4879 69.3118 50 69.3118H40.7999C40.3119 69.3118 39.844 69.118 39.4988 68.7733C39.1538 68.4284 38.9599 67.9608 38.9599 67.4731V34.3796C38.9599 33.892 39.1538 33.4245 39.4988 33.0796C39.844 32.7349 40.3119 32.5411 40.7999 32.5411ZM48.16 38.6934L48.1599 38.7003V63.1895L48.1597 63.2165L48.16 63.2425V65.6347H42.64V36.2182H48.16V38.6934ZM51.8399 60.9097L70.2399 56.8282V45.0064L51.8399 40.9065V60.9097ZM96 40.9065V44.7674C90.0144 46.4572 83.8198 47.2928 77.6 47.2494V43.5724C83.8331 43.6199 90.0371 42.721 96 40.9065ZM96 50.3933V48.0767C89.894 48.7958 83.7479 49.1213 77.6 49.0511V49.0696V52.7282V52.7467C83.7579 52.7254 89.9087 53.168 96 54.0704V51.7537V50.3933ZM96 61.1304V57.1775C90.0232 55.4406 83.8242 54.5858 77.6 54.6403V58.3174C83.8434 58.2789 90.0537 59.2283 96 61.1304ZM35.28 49.5108V49.0512C24.7073 48.7709 14.2059 47.2279 4 44.4548V48.2606C8.51621 49.5276 13.115 50.4798 17.7632 51.1103L17.9079 51.1311L17.8 51.1471C13.1383 51.7609 8.52655 52.7071 4 53.9784V57.7842C14.2078 55.02 24.708 53.4772 35.28 53.1879V52.7282V49.5108ZM35.28 56.6994V60.3765C22.9336 61.4061 12.1328 64.6787 4 69.9368V65.6531C13.6276 60.3742 24.3154 57.3148 35.28 56.6994ZM35.2798 66.4988V62.8217C9.90618 65.745 4.16536 78.5596 4.18376 89.4805V90.8777V96.8345C4.17414 96.8893 4.17414 96.9453 4.18376 97L6.33657 96.8345L7.84537 96.7059V90.9145V89.4805C7.84537 74.0552 21.0014 68.2455 35.2798 66.4988Z" fill="white"/>
</svg>
