<svg width="100" height="100" viewBox="0 0 100 100" fill="none" xmlns="http://www.w3.org/2000/svg">
<path fill-rule="evenodd" clip-rule="evenodd" d="M4 32.7044H95.9999V5H4V32.7044ZM92.085 28.7914H7.91489V8.91305H92.085V28.7914ZM4 63.8721H48.2774V36.1285H4V63.8721ZM44.3625 59.959H7.91489V40.0416H44.3625V59.959ZM31.7761 95H4V67.2956H31.7761V95ZM7.91489 91.0869H27.8613V71.2086H7.91489V91.0869ZM35.2016 95H64.7981V67.2956H35.2016V95ZM60.8832 91.0869H39.1165V71.2086H60.8832V91.0869ZM96 95H68.2239V67.2956H96V95ZM72.1388 91.0869H92.0851V71.2086H72.1388V91.0869ZM51.7029 63.8721H95.9999V36.1285H51.7029V63.8721ZM92.085 59.959H55.6178V40.0416H92.085V59.959Z" fill="white"/>
</svg>
