<svg width="100" height="100" viewBox="0 0 100 100" fill="none" xmlns="http://www.w3.org/2000/svg">
<path fill-rule="evenodd" clip-rule="evenodd" d="M79.0811 37.9864C80.6067 40.0576 81.4714 42.5331 81.5643 45.0945C85.6488 45.7801 89.3501 47.8906 91.9978 51.044C94.6455 54.1972 96.0645 58.1847 95.9977 62.2841C95.9977 78.5985 79.5832 79.9989 79.5832 79.9989H22.0967C17.5565 80.049 13.1659 78.3932 9.81099 75.3654C6.45604 72.3376 4.38631 68.1632 4.01942 63.6845V62.2841C3.83723 58.544 4.9413 54.8532 7.15144 51.814C9.3616 48.7747 12.5474 46.5665 16.1889 45.5496V44.0442C16.2805 39.4158 17.6727 34.9042 20.2096 31.0148C22.7464 27.1254 26.3274 24.0119 30.5517 22.0233C35.0527 20.0577 40.0551 19.5073 44.8825 20.4465C49.7099 21.3857 54.1295 23.7692 57.5438 27.2747C59.9327 29.6509 61.863 32.4391 63.2394 35.5019C64.574 34.3974 66.1624 33.6345 67.865 33.2804C69.5676 32.9263 71.3322 32.9919 73.0032 33.4714C75.4388 34.3427 77.5556 35.9151 79.0811 37.9864ZM22.1321 76.603H79.477L79.7246 76.673C83.2789 76.323 86.5749 74.6781 88.9722 72.0578C91.3696 69.4375 92.6972 66.0289 92.6972 62.4942C92.6972 58.9594 91.3696 55.5509 88.9722 52.9305C86.5749 50.3103 83.2789 48.6654 79.7246 48.3153C79.2758 48.2382 78.8756 47.9892 78.6109 47.6222C78.346 47.2554 78.2378 46.8001 78.3096 46.3548C78.3771 44.3374 77.8158 42.3483 76.702 40.6573C75.5881 38.9664 73.9758 37.6554 72.0834 36.9023C70.6144 36.5029 69.0564 36.5645 67.6243 37.0788C66.1923 37.5929 64.9567 38.5343 64.0884 39.773C63.8968 40.0254 63.64 40.2219 63.345 40.3416C63.05 40.4614 62.7278 40.5 62.4124 40.4533C62.097 40.4068 61.8002 40.2766 61.5535 40.0767C61.3067 39.8768 61.1191 39.6147 61.0107 39.3179C59.8182 35.7863 57.8349 32.567 55.2088 29.9004C51.3247 25.9209 46.011 23.6187 40.4216 23.4937C37.496 23.5237 34.6072 24.1431 31.9313 25.3142C28.3584 27.0489 25.3327 29.7174 23.1816 33.031C21.0304 36.3447 19.8357 40.1771 19.7265 44.1143C19.6728 44.9652 19.6728 45.8188 19.7265 46.6699C19.7759 47.0925 19.6713 47.5188 19.4312 47.8718C19.1912 48.2249 18.8318 48.4814 18.4176 48.5954C15.2353 49.2155 12.3869 50.9532 10.3975 53.4881C8.40809 56.0231 7.41184 59.1845 7.59243 62.3892V63.5444C7.88834 67.1409 9.55536 70.4914 12.2554 72.9164C14.9554 75.3413 18.4863 76.6593 22.1321 76.603ZM55.7037 50.6959H58.3216C58.7907 50.6959 59.2407 50.8803 59.5724 51.2085C59.9041 51.5368 60.0905 51.982 60.0905 52.4463V65.7848C60.0905 66.2491 59.9041 66.6944 59.5724 67.0227C59.2407 67.3509 58.7907 67.5353 58.3216 67.5353H37.9095C37.4404 67.5353 36.9905 67.3509 36.6588 67.0227C36.3271 66.6944 36.1407 66.2491 36.1407 65.7848V52.3763C36.1407 51.912 36.3271 51.4667 36.6588 51.1385C36.9905 50.8102 37.4404 50.6258 37.9095 50.6258H40.5274V48.2801C40.6587 46.3771 41.5153 44.5945 42.924 43.2924C44.3325 41.9904 46.1882 41.2662 48.1156 41.2662C50.0431 41.2662 51.8986 41.9904 53.3073 43.2924C54.7158 44.5945 55.5724 46.3771 55.7037 48.2801V50.6959ZM45.4823 45.7487C44.7331 46.424 44.2655 47.3517 44.1712 48.3502L44.0649 50.6959H52.2723V48.3502C52.1779 47.3517 51.7104 46.424 50.9612 45.7487C50.212 45.0734 49.2351 44.6991 48.2217 44.6991C47.2084 44.6991 46.2315 45.0734 45.4823 45.7487ZM39.6784 63.8593H56.659L56.5529 54.1968H39.6784V63.8593Z" fill="white"/>
</svg>
