<svg width="100" height="101" viewBox="0 0 100 101" fill="none" xmlns="http://www.w3.org/2000/svg">
<path fill-rule="evenodd" clip-rule="evenodd" d="M50 96.9165C40.9021 96.9165 32.0084 94.2187 24.4438 89.1642C16.8791 84.1095 10.9832 76.9253 7.50156 68.52C4.01993 60.1146 3.10898 50.8655 4.8839 41.9423C6.65882 33.0192 11.0399 24.8228 17.4731 18.3896C23.9063 11.9564 32.1027 7.57532 41.0258 5.8004C49.949 4.02548 59.1981 4.93643 67.6035 8.41806C76.0088 11.8997 83.193 17.7956 88.2477 25.3603C93.3022 32.9249 96 41.8186 96 50.9165C95.9849 63.1119 91.1337 74.8033 82.5103 83.4268C73.8868 92.0502 62.1954 96.9014 50 96.9165ZM26.5532 15.826C32.2361 12.0289 38.7363 9.68139 45.4875 8.95538C44.8127 9.34536 44.1879 9.82322 43.6303 10.3796C42.3672 11.64 41.5065 13.2468 41.157 14.9966C40.8076 16.7464 40.985 18.5605 41.667 20.2093C42.3489 21.8583 43.5048 23.2678 44.9881 24.2595C45.9383 24.8947 46.9955 25.3403 48.1015 25.5785V37.8977C47.8783 37.9303 47.6554 37.9686 47.4333 38.0129C44.8812 38.5205 42.537 39.7735 40.6969 41.6134C38.857 43.4535 37.604 45.7977 37.0964 48.3498C37.0521 48.5719 37.0138 48.7948 36.9812 49.018H24.662C24.4238 47.912 23.9782 46.8548 23.343 45.9046C22.3513 44.4213 20.9418 43.2654 19.2928 42.5835C17.644 41.9015 15.8299 41.7241 14.0801 42.0735C12.3303 42.423 10.7235 43.2837 9.46312 44.5468C8.90673 45.1043 8.42889 45.7292 8.03891 46.404C8.46689 42.4243 9.46109 38.5043 11.0095 34.7661C14.2037 27.0545 19.613 20.4633 26.5532 15.826ZM51.8985 37.8977C52.97 38.0541 54.0238 38.3428 55.0347 38.7616C57.4387 39.7573 59.4935 41.4436 60.9391 43.6071C62.0304 45.2404 62.7376 47.0901 63.0187 49.018H75.3191C75.6842 47.3228 76.5305 45.7677 77.7581 44.54C79.0194 43.2789 80.6262 42.42 82.3754 42.072C84.1246 41.7242 85.9379 41.9027 87.5856 42.5852C89.2334 43.2678 90.6417 44.4237 91.6326 45.9066C91.7475 46.0785 91.8562 46.2539 91.9585 46.4326C90.9279 36.8936 86.6726 27.9383 79.8254 21.0911C72.9879 14.2537 64.0484 10.0007 54.5248 8.96239C55.7162 9.65351 56.7383 10.6113 57.5072 11.7667C58.4958 13.2521 59.0215 14.9975 59.0178 16.7818C59.0128 19.1702 58.0605 21.459 56.3699 23.146C55.1345 24.3788 53.5787 25.2166 51.8985 25.5785V37.8977ZM63.0161 52.815C62.6065 55.6002 61.3116 58.1998 59.2974 60.2139C57.2833 62.2281 54.6837 63.523 51.8985 63.9326V76.2356C52.4272 76.3493 52.9468 76.5111 53.4509 76.7198C55.0988 77.4024 56.5071 78.5582 57.4981 80.0413C58.489 81.5242 59.0178 83.2677 59.0178 85.0512C59.0178 87.4429 58.0678 89.7366 56.3765 91.4277C55.8043 92.0001 55.1629 92.4875 54.4721 92.882C58.4656 92.4564 62.3996 91.4607 66.1505 89.907C73.862 86.7127 80.4532 81.3035 85.0906 74.3632C88.8952 68.6692 91.2445 62.1542 91.9655 55.3885C91.571 56.0794 91.0836 56.7208 90.5112 57.2931C88.8201 58.9843 86.5264 59.9343 84.1347 59.9343C82.3512 59.9343 80.6077 59.4055 79.1248 58.4146C77.6417 57.4236 76.4859 56.0153 75.8033 54.3675C75.5946 53.8633 75.4328 53.3437 75.3191 52.815H63.0161ZM42.6906 61.8556C44.3239 62.9469 46.1736 63.6541 48.1015 63.9352V76.2356C46.4063 76.6007 44.8512 77.447 43.6235 78.6746C42.3624 79.9359 41.5035 81.5427 41.1555 83.2919C40.8077 85.0411 40.9862 86.8544 41.6687 88.5021C42.3513 90.1499 43.5072 91.5582 44.9901 92.5491C45.1658 92.6666 45.3454 92.7776 45.5282 92.882C44.2699 92.7479 43.0148 92.5569 41.7667 92.3086C33.5801 90.6803 26.0601 86.6608 20.158 80.7586C14.2558 74.8564 10.2363 67.3365 8.60789 59.1499C8.36229 57.9153 8.17275 56.6738 8.03889 55.4292C8.73054 56.6258 9.69088 57.6523 10.8502 58.4237C12.3356 59.4123 14.081 59.938 15.8653 59.9343C18.2537 59.9293 20.5425 58.977 22.2295 57.2864C23.4623 56.051 24.3001 54.4952 24.662 52.815H36.9812C37.1376 53.8865 37.4263 54.9403 37.8451 55.9512C38.8408 58.3552 40.5271 60.41 42.6906 61.8556ZM47.0996 12.4409C47.9581 11.8672 48.9675 11.561 50.0001 11.561C51.3847 11.561 52.7127 12.1111 53.6917 13.0902C54.6708 14.0693 55.2208 15.3972 55.2208 16.7818C55.2208 17.8144 54.9147 18.8238 54.341 19.6824C53.7673 20.5409 52.9519 21.21 51.9979 21.6053C51.0439 22.0004 49.9943 22.1038 48.9815 21.9023C47.9688 21.7008 47.0385 21.2036 46.3083 20.4735C45.5783 19.7433 45.081 18.8131 44.8796 17.8004C44.6782 16.7876 44.7815 15.7379 45.1766 14.7839C45.5718 13.8299 46.241 13.0146 47.0996 12.4409ZM81.2342 46.5757C82.0928 46.002 83.1021 45.6958 84.1347 45.6958C85.5193 45.6958 86.8473 46.2458 87.8264 47.225C88.8054 48.204 89.3554 49.5319 89.3554 50.9166C89.3554 51.9492 89.0493 52.9586 88.4756 53.8171C87.902 54.6756 87.0865 55.3448 86.1325 55.7399C85.1786 56.1352 84.1289 56.2385 83.1161 56.0371C82.1035 55.8356 81.1731 55.3384 80.443 54.6082C79.7129 53.8781 79.2156 52.9479 79.0143 51.9351C78.8128 50.9224 78.9162 49.8726 79.3113 48.9186C79.7064 47.9647 80.3756 47.1494 81.2342 46.5757ZM50.0001 79.8493C48.9667 79.8493 47.9566 80.156 47.0976 80.7305C46.2387 81.3051 45.5695 82.1217 45.1749 83.0766C44.7802 84.0318 44.678 85.0824 44.8811 86.0958C45.084 87.109 45.5832 88.0392 46.3152 88.7685C47.0472 89.4979 47.9792 89.9937 48.9933 90.1929C50.0072 90.3923 51.0576 90.2862 52.0111 89.8881C52.9648 89.4901 53.7789 88.8179 54.3503 87.9569C54.9217 87.0957 55.2246 86.0845 55.2208 85.0512C55.2158 83.6698 54.6636 82.3468 53.685 81.3719C52.7066 80.3968 51.3814 79.8493 50.0001 79.8493ZM12.9596 46.5664C13.8207 45.995 14.8319 45.6921 15.8653 45.6958C17.2467 45.7007 18.5698 46.2531 19.5447 47.2315C20.5198 48.2101 21.0671 49.5352 21.0671 50.9166C21.0671 51.9499 20.7604 52.9601 20.186 53.819C19.6115 54.678 18.7949 55.3472 17.8398 55.7418C16.8848 56.1363 15.8341 56.2385 14.8208 56.0356C13.8076 55.8326 12.8773 55.3335 12.148 54.6014C11.4186 53.8694 10.9229 52.9373 10.7236 51.9234C10.5243 50.9095 10.6303 49.8591 11.0284 48.9054C11.4265 47.9519 12.0986 47.1377 12.9596 46.5664ZM44.8002 43.1344C46.3392 42.1059 48.1488 41.557 50 41.557C51.229 41.557 52.4461 41.7991 53.5817 42.2694C54.7172 42.7398 55.7491 43.4293 56.6182 44.2984C57.4873 45.1675 58.1766 46.1992 58.647 47.3348C59.1173 48.4703 59.3594 49.6874 59.3594 50.9165C59.3594 52.7676 58.8105 54.5772 57.782 56.1164C56.7537 57.6554 55.2919 58.8552 53.5817 59.5635C51.8715 60.2719 49.9896 60.4573 48.174 60.096C46.3584 59.735 44.6908 58.8436 43.3819 57.5347C42.0729 56.2257 41.1815 54.558 40.8204 52.7424C40.4593 50.9269 40.6445 49.0449 41.3529 47.3348C42.0614 45.6246 43.261 44.1628 44.8002 43.1344Z" fill="white"/>
</svg>
