<svg width="100" height="100" viewBox="0 0 100 100" fill="none" xmlns="http://www.w3.org/2000/svg">
<path fill-rule="evenodd" clip-rule="evenodd" d="M69.5955 94H92.1679C92.6538 94 93.1197 93.8146 93.4634 93.4846C93.8069 93.1544 94 92.7068 94 92.2401V72.88C94 72.4133 93.8069 71.9655 93.4634 71.6355C93.1197 71.3054 92.6538 71.12 92.1679 71.12H84.1612L52.3913 7.0032C52.2428 6.70369 52.0092 6.45061 51.7175 6.27311C51.4257 6.09561 51.0877 6.00094 50.7424 6H22.527C22.0409 6 21.575 6.18543 21.2313 6.51549C20.8878 6.84556 20.6947 7.29322 20.6947 7.76V27.1199C20.6947 27.5868 20.8878 28.0344 21.2313 28.3646C21.575 28.6946 22.0409 28.88 22.527 28.88H36.03L67.9465 92.9968C68.0949 93.2963 68.3285 93.5494 68.6204 93.7269C68.9121 93.9044 69.2501 93.9991 69.5955 94ZM90.3356 90.48H70.7497L38.8516 26.3632C38.7031 26.0637 38.4695 25.8106 38.1778 25.6331C37.886 25.4556 37.548 25.3609 37.2027 25.36H24.3774V9.51999H49.5881L81.358 73.6368C81.5066 73.9363 81.74 74.1894 82.0319 74.3669C82.3236 74.5444 82.6616 74.639 83.007 74.64H90.3356V90.48ZM7.85125 94H31.6695C32.0302 93.9934 32.3809 93.8846 32.6774 93.6874C32.9739 93.4901 33.2034 93.2132 33.3368 92.8912L46.3452 66.4912C46.4653 66.2524 46.5277 65.9908 46.5277 65.7256C46.5277 65.4604 46.4653 65.1988 46.3452 64.96L34.4177 41.3936C34.2667 41.0974 34.032 40.8479 33.7404 40.6737C33.4488 40.4993 33.1122 40.4073 32.7688 40.408C32.4235 40.4089 32.0854 40.5036 31.7937 40.6811C31.502 40.8586 31.2684 41.1117 31.1198 41.4112L6.2023 91.4128C6.05519 91.688 5.9862 91.9956 6.00229 92.3046C6.01837 92.6136 6.11896 92.9131 6.29391 93.1728C6.45894 93.4265 6.68853 93.6356 6.96101 93.7802C7.2335 93.925 7.53989 94.0007 7.85125 94ZM30.5152 90.48H10.7827L32.7872 46.216L42.6625 65.84L30.5152 90.48Z" fill="white"/>
</svg>
