<svg width="100" height="100" viewBox="0 0 100 100" fill="none" xmlns="http://www.w3.org/2000/svg">
<path fill-rule="evenodd" clip-rule="evenodd" d="M70.9001 26.0604H67.0235V25.434C67.0235 15.8034 59.8326 7.95404 50.9166 7.91489C46.49 8.05821 42.2984 9.96052 39.2531 13.2082C36.2079 16.4558 34.5552 20.7863 34.6545 25.2579V26.0604H30.778V25.2383C30.6839 19.7419 32.7393 14.4296 36.4985 10.4537C40.2577 6.47777 45.4173 4.15889 50.8584 4C53.5756 4.08097 56.2501 4.7026 58.7289 5.82926C61.2078 6.95593 63.442 8.56549 65.3038 10.5657C67.1656 12.5659 68.6182 14.9175 69.5786 17.4856C70.5389 20.0539 70.988 22.7881 70.9001 25.5319V26.0604ZM34.6158 37.159H30.7392V46.2026H21.6295C21.373 46.2037 21.1194 46.2561 20.8831 46.357C20.6469 46.4578 20.4328 46.6049 20.2533 46.7898C19.8952 47.1544 19.6934 47.6465 19.6912 48.16V94.0426C19.6912 94.5618 19.8954 95.0596 20.2589 95.4267C20.6224 95.7938 21.1154 96 21.6295 96H79.7774C80.2914 96 80.7844 95.7938 81.1479 95.4267C81.5114 95.0596 81.7157 94.5618 81.7157 94.0426V48.16C81.7157 47.6409 81.5114 47.1431 81.1479 46.7759C80.7844 46.4088 80.2914 46.2026 79.7774 46.2026H70.9V37.159H67.0234V46.2026H34.6158V37.159ZM23.5678 92.0851H77.8391V50.1371H23.5678V92.0851ZM48.7846 70.7973C47.6431 70.5068 46.5712 69.9636 45.6504 69.1974C44.2217 68.0085 43.2451 66.3565 42.887 64.5222C42.5288 62.6881 42.8112 60.7852 43.6862 59.1376C44.561 57.4901 45.9743 56.1997 47.6853 55.4861C49.3963 54.7725 51.2994 54.6798 53.0704 55.2239C54.8415 55.768 56.371 56.9151 57.3988 58.47C58.4266 60.0249 58.8889 61.8915 58.7071 63.752C58.5254 65.6125 57.7108 67.3518 56.402 68.674C55.3605 69.7217 54.0645 70.452 52.6611 70.8036V81.6912H48.7846V70.7973ZM50.7228 58.7497C49.6243 58.7548 48.5722 59.1978 47.7955 59.9823C47.0186 60.7668 46.58 61.8293 46.575 62.9387C46.575 64.0496 47.0119 65.115 47.7898 65.9007C48.5677 66.6862 49.6227 67.1276 50.7228 67.1276C51.2683 67.1301 51.8088 67.0236 52.3132 66.814C52.8175 66.6044 53.2758 66.2959 53.6615 65.9064C54.0472 65.5169 54.3526 65.0541 54.5602 64.5447C54.7677 64.0353 54.8732 63.4895 54.8707 62.9387C54.8745 62.3883 54.7683 61.843 54.5585 61.335C54.3487 60.8272 54.0395 60.3673 53.6496 59.9829C53.2663 59.5926 52.8104 59.2828 52.3081 59.0711C51.8058 58.8595 51.2671 58.7503 50.7228 58.7497ZM78.5367 39.4102L81.2891 42.1702L90.4377 32.931C90.6197 32.7458 90.7631 32.5256 90.8596 32.2837C90.9561 32.0417 91.0038 31.7825 90.9998 31.5217C90.9822 30.998 90.7673 30.5009 90.3989 30.1319L81.1146 21.1081L78.4204 23.9268L84.3977 29.7402H15.6596L21.4743 23.8681L18.7607 21.0885L9.57334 30.2298C9.39166 30.4117 9.24747 30.6282 9.14907 30.8667C9.05066 31.1052 9 31.3611 9 31.6195C9 31.8779 9.05066 32.1338 9.14907 32.3723C9.24747 32.6108 9.39166 32.8273 9.57334 33.0093L18.7607 42.1702L21.4743 39.5276L15.6593 33.6551H84.2354L78.5367 39.4102Z" fill="white"/>
</svg>
