<svg width="100" height="100" viewBox="0 0 100 100" fill="none" xmlns="http://www.w3.org/2000/svg">
<path fill-rule="evenodd" clip-rule="evenodd" d="M88.64 26.08H96V29.76H88.64V37.12H96V40.8H88.64V48.16H96V51.84H88.64V59.2H96V62.88H88.64V70.24H96V73.92H88.64V81.8872C88.64 83.6781 87.9285 85.3957 86.6622 86.6622C85.3957 87.9285 83.6781 88.64 81.8872 88.64H73.92V96H70.24V88.64H62.88V96H59.2V88.64H51.84V96H48.16V88.64H40.8V96H37.12V88.64H29.76V96H26.08V88.64H18.1128C16.3218 88.64 14.6043 87.9285 13.3379 86.6622C12.0715 85.3957 11.36 83.6781 11.36 81.8872V73.92H4V70.24H11.36V62.88H4V59.2H11.36V51.84H4V48.16H11.36V40.8H4V37.12H11.36V29.76H4V26.08H11.36V18.1128C11.36 16.3218 12.0715 14.6043 13.3379 13.3379C14.6043 12.0715 16.3218 11.36 18.1128 11.36H26.08V4H29.76V11.36H37.12V4H40.8V11.36H48.16V4H51.84V11.36H59.2V4H62.88V11.36H70.24V4H73.92V11.36H81.8872C83.6781 11.36 85.3957 12.0715 86.6622 13.3379C87.9285 14.6043 88.64 16.3218 88.64 18.1128V26.08ZM84.0601 84.0601C84.6363 83.4838 84.96 82.7021 84.96 81.8872V18.1128C84.96 17.7093 84.8805 17.3097 84.7261 16.9369C84.5718 16.5641 84.3453 16.2253 84.0601 15.94C83.7747 15.6547 83.4359 15.4283 83.0631 15.2739C82.6904 15.1195 82.2907 15.04 81.8872 15.04H18.1128C17.7093 15.04 17.3097 15.1195 16.9369 15.2739C16.5641 15.4283 16.2253 15.6547 15.94 15.94C15.6547 16.2253 15.4283 16.5641 15.2739 16.9369C15.1195 17.3097 15.04 17.7093 15.04 18.1128V81.8872C15.04 82.2907 15.1195 82.6904 15.2739 83.0631C15.4283 83.4359 15.6547 83.7747 15.94 84.0601C16.2253 84.3453 16.5641 84.5718 16.9369 84.7261C17.3097 84.8805 17.7093 84.96 18.1128 84.96H81.8872C82.7021 84.96 83.4838 84.6363 84.0601 84.0601ZM32.2992 27.92H67.7008C68.8593 27.9296 69.9675 28.3942 70.7867 29.2133C71.6058 30.0325 72.0704 31.1407 72.08 32.2992V67.7008C72.0704 68.8593 71.6058 69.9675 70.7867 70.7867C69.9675 71.6058 68.8593 72.0704 67.7008 72.08H32.2992C31.1407 72.0704 30.0325 71.6058 29.2133 70.7867C28.3942 69.9675 27.9296 68.8593 27.92 67.7008V32.2992C27.9296 31.1407 28.3942 30.0325 29.2133 29.2133C30.0325 28.3942 31.1407 27.9296 32.2992 27.92ZM68.1952 68.1952C68.3264 68.064 68.4 67.8863 68.4 67.7008V32.2992C68.4 32.1137 68.3264 31.936 68.1952 31.8048C68.064 31.6736 67.8863 31.6 67.7008 31.6H32.2992C32.1137 31.6 31.936 31.6736 31.8048 31.8048C31.6736 31.936 31.6 32.1137 31.6 32.2992V67.7008C31.6 67.8863 31.6736 68.064 31.8048 68.1952C31.936 68.3264 32.1137 68.4 32.2992 68.4H67.7008C67.8863 68.4 68.064 68.3264 68.1952 68.1952Z" fill="white"/>
</svg>
