<svg width="100" height="100" viewBox="0 0 100 100" fill="none" xmlns="http://www.w3.org/2000/svg">
<path d="M83.12 45.342C83.1035 43.1087 82.4065 40.9333 81.1216 39.1043C79.8366 37.2753 78.0245 35.8792 75.9256 35.1013C74.3386 34.5765 72.6479 34.4426 70.9977 34.711C69.3476 34.9795 67.7871 35.6423 66.4496 36.6429C65.2498 34.0339 63.5923 31.6598 61.5552 29.6323C58.4363 26.4349 54.4134 24.2631 50.0239 23.4072C45.6345 22.5512 41.0877 23.0519 36.9912 24.8423C33.175 26.6168 29.9346 29.4237 27.6382 32.9437C25.3418 36.4638 24.0816 40.5558 24.0008 44.7547V45.7458C21.7638 46.4188 19.7122 47.5966 18.005 49.1879C16.2979 50.7792 14.9812 52.7413 14.1568 54.922H18.168C19.012 53.3725 20.1826 52.0238 21.5993 50.9687C23.016 49.9137 24.6451 49.1774 26.3744 48.8106C26.7792 48.7066 27.1365 48.4681 27.3873 48.1346C27.6382 47.801 27.7676 47.3921 27.7544 46.9754L27.6072 44.6446C27.7209 41.1907 28.7808 37.8339 30.6719 34.9383C32.563 32.0427 35.213 29.7189 38.3344 28.2191C41.7699 26.7191 45.583 26.3019 49.2628 27.0235C52.9426 27.7451 56.3136 29.571 58.924 32.2567C61.2213 34.5768 62.958 37.3886 64.0024 40.4786C64.116 40.792 64.3131 41.0686 64.5724 41.2788C64.8318 41.489 65.1436 41.6247 65.4744 41.6715C65.8005 41.7175 66.1331 41.6754 66.4373 41.5495C66.7416 41.4236 67.0063 41.2185 67.204 40.9558C68.0432 39.8248 69.2191 38.987 70.5638 38.5619C71.9086 38.1367 73.3536 38.146 74.6928 38.5883C77.7288 39.5977 79.4584 42.5524 79.4584 46.5533C79.3838 47.0298 79.5003 47.5164 79.7827 47.9079C80.065 48.2995 80.4905 48.5644 80.9672 48.6454C84.3528 49.2327 92.2648 51.5818 92.2648 60.9416C92.2648 72.1182 81.2248 73.2928 80.8936 73.3295H42.7136V77H81.1328C86.2848 76.5412 96 72.5954 96 60.9416C96 51.6369 89.5968 46.8469 83.12 45.342ZM7.68 77H4V73.3295H7.68V77ZM24.24 77H11.36V73.3295H24.24V77ZM38.96 77H27.92V73.3295H38.96V77ZM22.4 69.659H5.84V65.9885H22.4V69.659ZM57.36 69.659H35.28V65.9885H57.36V69.659ZM38.96 62.318H27.92V58.6475H38.96V62.318ZM24.24 62.318H9.52V58.6475H24.24V62.318ZM31.6 69.659H26.08V65.9885H31.6V69.659Z" fill="white"/>
</svg>
