<svg width="100" height="100" viewBox="0 0 100 100" fill="none" xmlns="http://www.w3.org/2000/svg">
<path fill-rule="evenodd" clip-rule="evenodd" d="M5.95745 79H94.0426C94.5617 79 95.0595 78.7971 95.4267 78.436C95.7938 78.0748 96 77.585 96 77.0744V22.9256C96 22.4149 95.7938 21.9251 95.4267 21.564C95.0595 21.2029 94.5617 21 94.0426 21H5.95745C5.4383 21 4.94042 21.2029 4.57332 21.564C4.20623 21.9251 4 22.4149 4 22.9256V77.0744C4 77.585 4.20623 78.0748 4.57332 78.436C4.94042 78.7971 5.4383 79 5.95745 79ZM92.0851 75.1487H7.91489V24.8513H92.0851V75.1487ZM13.1803 30.1468H17.0952V69.8725H13.1803V30.1468ZM28.0963 30.1468H24.1814V69.8725H28.0963V30.1468ZM71.9037 30.1468H75.8186V69.8725H71.9037V30.1468ZM86.8197 30.1468H82.9048V69.8725H86.8197V30.1468ZM44.3821 64.5578H40.9566V68.0434H37.0417V64.2198C36.7221 64.0641 36.4274 63.8573 36.1705 63.6046C35.9189 63.3571 35.7121 63.0739 35.555 62.767H31.6587V58.9158H35.2016V55.5459H31.6587V51.6947H35.2016V48.3248H31.6587V44.4735H35.2016V41.1037H31.6587V37.2524H35.5451C35.7033 36.9381 35.9136 36.6481 36.1705 36.3954C36.4274 36.1427 36.7221 35.9358 37.0417 35.7802V31.9569H40.9566V35.4422H44.3821V31.9569H48.297V35.4422H51.7226V31.9569H55.6374V35.4422H59.063V31.9569H62.9779V35.7899C63.2898 35.9444 63.5777 36.1479 63.8293 36.3954C64.0862 36.6481 64.2964 36.9381 64.4547 37.2524H68.3414V41.1037H64.7982V44.4735H68.3414V48.3248H64.7982V51.6947H68.3414V55.5459H64.7982V58.9158H68.3414V62.767H64.4448C64.2877 63.0739 64.0808 63.3571 63.8293 63.6046C63.5777 63.852 63.2898 64.0556 62.9779 64.2101V68.0434H59.063V64.5578H55.6374V68.0434H51.7226V64.5578H48.297V68.0434H44.3821V64.5578ZM60.8833 60.7065H39.1165V39.2935H60.8833V60.7065Z" fill="white"/>
</svg>
