<svg width="100" height="100" viewBox="0 0 100 100" fill="none" xmlns="http://www.w3.org/2000/svg">
<path fill-rule="evenodd" clip-rule="evenodd" d="M21.5248 75V14C21.5248 13.4696 21.734 12.9609 22.1061 12.5858C22.4782 12.2107 22.9829 12 23.5092 12H65.577V7H15.9687V75H21.5248ZM21.5248 79.02H13.9843C13.4581 79.02 12.9533 78.8093 12.5812 78.4342C12.2091 78.0591 12 77.5504 12 77.02V5C12 4.46957 12.2091 3.96086 12.5812 3.58579C12.9533 3.21071 13.4581 3 13.9843 3H67.5614C68.0876 3 68.5923 3.21071 68.9645 3.58579C69.3366 3.96086 69.5457 4.46957 69.5457 5V12H77.0862C77.6125 12 78.1172 12.2107 78.4894 12.5858C78.8615 12.9609 79.0705 13.4696 79.0705 14V21H86.0157C86.542 21 87.0467 21.2107 87.4189 21.5858C87.791 21.9609 88 22.4696 88 23V95C88 95.5304 87.791 96.0391 87.4189 96.4142C87.0467 96.7893 86.542 97 86.0157 97H32.4387C31.9124 97 31.4077 96.7893 31.0356 96.4142C30.6635 96.0391 30.4543 95.5304 30.4543 95V88H23.5092C22.9829 88 22.4782 87.7893 22.1061 87.4142C21.734 87.0391 21.5248 86.5304 21.5248 86V79.02ZM30.4543 23V84H25.4935V16H75.1018V21H32.4387C31.9124 21 31.4077 21.2107 31.0356 21.5858C30.6635 21.9609 30.4543 22.4696 30.4543 23ZM34.423 93H84.0313V25H34.423V93ZM48.7896 43H39.8601C39.3338 43 38.8291 42.7893 38.457 42.4142C38.0848 42.0391 37.8757 41.5304 37.8757 41V32C37.8757 31.4696 38.0848 30.9609 38.457 30.5858C38.8291 30.2107 39.3338 30 39.8601 30H48.7896C49.3159 30 49.8206 30.2107 50.1927 30.5858C50.5649 30.9609 50.7739 31.4696 50.7739 32V41C50.7739 41.5304 50.5649 42.0391 50.1927 42.4142C49.8206 42.7893 49.3159 43 48.7896 43ZM41.8444 39H46.8052V34H41.8444V39ZM39.8601 64H48.7896C49.3159 64 49.8206 63.7893 50.1927 63.4142C50.5649 63.0391 50.7739 62.5304 50.7739 62V53C50.7739 52.4696 50.5649 51.9609 50.1927 51.5858C49.8206 51.2107 49.3159 51 48.7896 51H39.8601C39.3338 51 38.8291 51.2107 38.457 51.5858C38.0848 51.9609 37.8757 52.4696 37.8757 53V62C37.8757 62.5304 38.0848 63.0391 38.457 63.4142C38.8291 63.7893 39.3338 64 39.8601 64ZM46.8052 60H41.8444V55H46.8052V60ZM48.7896 85.02H39.8601C39.3338 85.02 38.8291 84.8093 38.457 84.4342C38.0848 84.0591 37.8757 83.5504 37.8757 83.02V74C37.8757 73.4696 38.0848 72.9609 38.457 72.5858C38.8291 72.2107 39.3338 72 39.8601 72H48.7896C49.3159 72 49.8206 72.2107 50.1927 72.5858C50.5649 72.9609 50.7739 73.4696 50.7739 74V83.02C50.7739 83.5504 50.5649 84.0591 50.1927 84.4342C49.8206 84.8093 49.3159 85.02 48.7896 85.02ZM41.8444 81.02H46.8052V76H41.8444V81.02ZM53.2742 34.5H80.0826V38.5H53.2742V34.5ZM80.0826 55.48H53.2742V59.48H80.0826V55.48ZM53.2742 76.5H80.0826V80.5H53.2742V76.5Z" fill="white"/>
</svg>
