<svg width="100" height="100" viewBox="0 0 100 100" fill="none" xmlns="http://www.w3.org/2000/svg">
<path fill-rule="evenodd" clip-rule="evenodd" d="M21.48 24.0664L24.056 21.4914L10.2744 7.67853H22.4V4H5.84C5.352 4 4.88399 4.19378 4.53892 4.53871C4.19386 4.88364 4 5.35146 4 5.83926V22.3926H7.68V10.2903L21.48 24.0664ZM95.9999 5.87601V22.4294H92.3199V10.2902L78.7223 23.8824L76.1279 21.289L89.7071 7.71527H77.5999V4.03674H94.1599C94.6479 4.03674 95.1159 4.23052 95.461 4.57545C95.8061 4.92038 95.9999 5.3882 95.9999 5.87601ZM70.148 32.9501C70.148 27.6162 59.6784 25.1516 49.908 25.1516C40.1376 25.1516 29.668 27.6162 29.668 32.9501C29.66 33.2168 29.691 33.4832 29.76 33.741V66.9397C29.668 72.4575 40.156 74.8118 50 74.8118C59.844 74.8118 70.24 72.3839 70.24 67.0501V32.9501H70.148ZM49.9448 28.8485C60.672 28.8485 66.5048 31.773 66.5048 32.9685C66.5048 34.164 60.7088 37.0884 49.9448 37.0884C39.1808 37.0884 33.3848 34.1824 33.3848 32.9685C33.3848 31.7546 39.2176 28.8485 49.9448 28.8485ZM66.5048 67.0684C66.5048 68.2456 60.6904 71.1516 49.9448 71.1516C39.1992 71.1516 33.3848 68.2456 33.3848 67.0684V61.2564C37.2672 63.3715 43.7808 64.3831 49.9448 64.3831C56.1088 64.3831 62.5672 63.3899 66.5048 61.3116V67.0684ZM66.5048 56.603C66.5048 57.7802 60.7088 60.723 49.9448 60.723C39.1808 60.723 33.3848 57.7802 33.3848 56.603H33.44V49.577C37.3224 51.6738 43.836 52.6854 50 52.6854C56.164 52.6854 62.6224 51.6922 66.56 49.6138L66.5048 56.603ZM66.5048 44.8869C66.5048 46.0824 60.7088 49.0253 49.9448 49.0253C39.1808 49.0253 33.3848 46.0824 33.3848 44.8869H33.44V37.7138C37.3592 39.7922 43.7992 40.7486 50 40.7486C56.2008 40.7486 62.7144 39.7554 66.56 37.6402L66.5048 44.8869ZM10.2744 92.3214H22.4V95.9999H5.84C5.352 95.9999 4.88399 95.8062 4.53892 95.4612C4.19386 95.1163 4 94.6485 4 94.1607V77.6073H7.68V89.6913L21.48 75.9152L24.056 78.5085L10.2744 92.3214ZM95.9999 94.1607V77.6074H92.3199V89.6913L78.7223 76.1176L76.1279 78.6925L89.7255 92.3215H77.5999V96H94.1599C94.6479 96 95.1159 95.8062 95.461 95.4613C95.8061 95.1164 95.9999 94.6485 95.9999 94.1607ZM21.7742 66.4799C10.5318 62.4336 4.0918 56.2536 4.0918 49.5403C4.0918 42.827 10.5318 36.6655 21.7742 32.6007L23.0254 36.0585C13.4758 39.4979 7.7718 44.5375 7.7718 49.5403C7.7718 54.5431 13.4758 59.5827 23.0254 63.0221L21.7742 66.4799ZM76.0178 63.39L77.1954 66.8846C89.137 62.8382 96.0002 56.5111 96.0002 49.5403C96.0002 42.5695 89.137 36.2056 77.1954 32.196L76.0178 35.6723C86.2298 39.1301 92.3202 44.3168 92.3202 49.5403C92.3202 54.7638 86.2298 59.9505 76.0178 63.39Z" fill="white"/>
</svg>
