<svg width="100" height="100" viewBox="0 0 100 100" fill="none" xmlns="http://www.w3.org/2000/svg">
<path fill-rule="evenodd" clip-rule="evenodd" d="M47.3693 31.9715H47.2716C36.6035 31.9715 25.2364 30.5704 17.1205 27.8912C14.6398 27.0753 12.4638 26.1409 10.7066 25.0916L18.7139 85.2329V85.4873C18.7139 87.7971 29.8284 92.1817 47.2911 92.1817C53.5555 92.2156 59.8046 91.5592 65.9259 90.2243C67.8071 89.7749 69.6544 89.1927 71.4538 88.4822C75.0674 87.0533 75.8683 85.7614 75.8683 85.3895C75.8594 85.3048 75.8594 85.2196 75.8683 85.135L79.6008 57.3491C70.5935 54.7369 58.9783 49.5704 49.9216 45.2181C49.191 45.7729 48.2963 46.0801 47.3692 46.0843C46.5309 46.0843 45.7114 45.8352 45.0143 45.3684C44.3173 44.9017 43.7739 44.2383 43.4532 43.4622C43.1324 42.686 43.0484 41.832 43.212 41.008C43.3756 40.1841 43.7792 39.4272 44.3721 38.8332C44.9648 38.2391 45.7201 37.8346 46.5423 37.6707C47.3646 37.5069 48.2168 37.5909 48.9914 37.9124C49.7659 38.2339 50.4279 38.7783 50.8936 39.4768C51.3294 40.1305 51.5751 40.8914 51.6049 41.6749C61.7556 46.5257 72.4979 50.9818 80.1275 53.4284L83.9245 25.1632C76.3251 29.6116 61.2064 31.9715 47.3693 31.9715ZM79.8336 85.5461L83.5545 58.3613C85.5748 58.7978 87.3825 59.0424 88.897 59.0424C89.6632 59.1313 90.4396 59.0552 91.174 58.8188C91.9085 58.5825 92.5839 58.1916 93.1553 57.6722C93.4991 57.2663 93.7477 56.7883 93.8829 56.2734C94.0181 55.7586 94.0365 55.2198 93.9366 54.6969C93.4563 52.3273 90.757 49.8176 85.1614 46.6215L88.8384 19.7572C88.8939 19.4721 88.8861 19.1813 88.8189 18.9044V18.6806C88.8189 10.0288 67.1565 4 47.545 4C27.9336 4 6.09537 10.0288 6.09537 18.6806C6.09168 18.7158 6.08952 18.751 6.0889 18.7862C5.99271 19.0978 5.97337 19.4313 6.0368 19.7572L14.8854 85.5461C15.1393 93.1604 34.8875 95.9987 47.3692 95.9987C53.9284 96.0344 60.4718 95.3518 66.883 93.963C68.9555 93.4956 70.9921 92.8807 72.9774 92.123C77.4505 90.3417 79.8336 88.1299 79.8336 85.5461ZM90.0495 55.2058C89.1202 55.602 87.0047 55.341 84.0716 54.5834L84.586 50.825C88.8153 53.3489 89.8145 54.7181 90.0495 55.2058ZM47.3408 28.0566H47.3692C68.9535 28.0566 83.623 22.8695 84.8341 19.0917V18.5632C84.6191 14.7658 69.227 7.91483 47.3692 7.91483C25.5115 7.91483 10.0997 14.7658 9.82623 18.5632L9.83276 18.6221C9.88128 18.7413 9.91851 18.8657 9.94346 18.9938C10.9185 22.7655 25.6196 28.0394 47.3408 28.0566Z" fill="white"/>
</svg>
