<svg width="100" height="101" viewBox="0 0 100 101" fill="none" xmlns="http://www.w3.org/2000/svg">
<path d="M50 96.8779L48.8319 95.975C42.7975 91.6042 35.9251 88.5363 28.6489 86.9652C13.8468 84.3141 5 76.2072 5 65.2956C5.14755 60.0061 6.80944 54.8709 9.78723 50.5033C11.7021 47.1415 13.4064 44.2406 13.4064 40.3024C13.3103 37.6889 12.6833 35.1226 11.5637 32.7607C10.4442 30.3988 8.85578 28.2911 6.89574 26.5668L5.38298 25.3373L6.62766 23.8389C6.62766 23.7044 17.1787 11.0061 19.5723 7.72111L20.9319 5.80004L22.5213 7.49058C24.1523 9.43332 26.1627 11.0203 28.4285 12.1535C30.6944 13.2868 33.1676 13.9424 35.6957 14.0799C40.6936 14.0799 44.6383 11.8322 48.4872 6.799L50 4.87793L51.5128 6.799C55.3426 11.8322 59.3064 14.0799 64.3043 14.0799C66.8324 13.9424 69.3056 13.2868 71.5715 12.1535C73.8373 11.0203 75.8477 9.43332 77.4787 7.49058L79.0681 5.80004L80.4277 7.72111C82.8213 11.0061 93.2766 23.7044 93.3723 23.8389L94.617 25.3373L93.1043 26.5668C91.1537 28.2991 89.5717 30.4085 88.453 32.7687C87.3343 35.1288 86.7018 37.6913 86.5936 40.3024C86.5936 44.2406 88.2787 47.1415 90.2128 50.5033C93.1906 54.8709 94.8525 60.0061 95 65.2956C95 76.2072 86.1532 84.3141 71.3511 86.9652C64.0749 88.5363 57.2025 91.6042 51.1681 95.975L50 96.8779ZM10.7064 24.8955C14.7588 28.9942 17.095 34.4927 17.2362 40.264C17.0146 44.6132 15.5816 48.8129 13.1 52.386C10.8979 56.2281 8.82979 59.7629 8.82979 65.2571C8.82979 78.4357 24.5128 82.2778 29.3191 83.1615C36.7431 84.7081 43.7781 87.7468 50 92.0945C56.225 87.7604 63.2597 84.7349 70.6808 83.1999C75.4872 82.3162 91.1702 78.4741 91.1702 65.2956C91.1702 59.8013 89.1021 56.2281 86.9 52.4244C84.4184 48.8513 82.9854 44.6516 82.7638 40.3024C82.905 34.5312 85.2412 29.0326 89.2936 24.9339C86.9383 22.0331 81.5383 15.4438 78.7234 11.7554C74.8793 15.566 69.7438 17.7819 64.3426 17.9604C61.5854 17.9639 58.8632 17.3419 56.3795 16.141C53.8958 14.94 51.7149 13.1912 50 11.0254C48.2891 13.1861 46.1144 14.9319 43.6378 16.1326C41.1611 17.3334 38.4464 17.9581 35.6957 17.9604C30.2811 17.7915 25.1303 15.5749 21.2766 11.7554C18.4617 15.4438 13.0617 22.0331 10.7064 24.8955Z" fill="white"/>
</svg>
