<svg width="100" height="101" viewBox="0 0 100 101" fill="none" xmlns="http://www.w3.org/2000/svg">
<path fill-rule="evenodd" clip-rule="evenodd" d="M10.9044 9H82.5431C83.5067 9.03349 84.4541 9.25849 85.3304 9.66195C86.2067 10.0654 86.9944 10.6393 87.648 11.3504C88.3015 12.0615 88.8079 12.8956 89.1377 13.8044C89.4676 14.7132 89.6143 15.6787 89.5694 16.6448V50.021H85.8518V31.3751H80.2754V48.1564H76.5577V47.597V22.0521H44.9579V47.0749C46.8575 44.1032 49.585 41.7562 52.8021 40.3251C51.2881 38.5496 50.4342 36.3028 50.3856 33.9669C50.3856 31.247 51.4627 28.6385 53.38 26.7153C55.2973 24.7921 57.8977 23.7116 60.6091 23.7116C63.3205 23.7116 65.9209 24.7921 67.8382 26.7153C69.7555 28.6385 70.8326 31.247 70.8326 33.9669C70.833 36.3413 69.9969 38.6396 68.4719 40.4556C71.8139 41.962 74.6253 44.4443 76.5391 47.5784L73.3792 49.443C71.517 46.3747 68.5914 44.104 65.1632 43.0661C63.7283 43.725 62.1686 44.0661 60.5905 44.0661C59.0124 44.0661 57.4527 43.725 56.0178 43.0661C53.0443 43.9547 50.4369 45.7838 48.5844 48.2805C46.7319 50.7772 45.7337 53.8077 45.7386 56.92V57.4793H57.9138V61.2085H43.0433C42.5503 61.2085 42.0775 61.0121 41.7289 60.6624C41.3803 60.3127 41.1845 59.8385 41.1845 59.3439V31.3751H7.72579V62.8867C7.66957 63.8203 7.96513 64.741 8.55387 65.4662C9.14262 66.1915 9.98156 66.6684 10.9044 66.8023H50.4785V70.5315H10.9044C8.98102 70.4301 7.1759 69.5691 5.88363 68.1365C4.59137 66.704 3.91707 64.8165 4.00816 62.8867V16.6448C3.91707 14.715 4.59137 12.8275 5.88363 11.3949C7.1759 9.9624 8.98102 9.10134 10.9044 9ZM63.0874 27.8831C62.3007 27.5616 61.4586 27.3986 60.6091 27.4035C59.7596 27.3986 58.9175 27.5616 58.1308 27.8831C57.3441 28.2047 56.6283 28.6785 56.0241 29.2776C55.42 29.8767 54.9394 30.5893 54.6098 31.3747C54.2803 32.16 54.1081 33.0029 54.1032 33.855C54.1112 35.0023 54.4258 36.1265 55.0143 37.1104C55.6028 38.0943 56.4436 38.9018 57.4491 39.4488C58.4172 39.9726 59.4999 40.2469 60.5998 40.2469C61.6997 40.2469 62.7824 39.9726 63.7505 39.4488C64.7607 38.9058 65.6064 38.0997 66.1985 37.1153C66.7905 36.1309 67.1071 35.0046 67.115 33.855C67.1101 33.0029 66.9379 32.16 66.6084 31.3747C66.2788 30.5893 65.7982 29.8767 65.1941 29.2776C64.5899 28.6785 63.8741 28.2047 63.0874 27.8831ZM80.2196 20.1875V27.6459H85.7589V16.6448C85.8141 15.7056 85.5134 14.7801 84.9171 14.0539C84.3207 13.3278 83.4727 12.8546 82.5431 12.7292H10.9044C9.98156 12.8631 9.14262 13.34 8.55387 14.0652C7.96513 14.7905 7.66957 15.7112 7.72579 16.6448V27.6459H41.1845V20.1875C41.1845 19.693 41.3803 19.2188 41.7289 18.8691C42.0775 18.5194 42.5503 18.323 43.0433 18.323H78.3608C78.8538 18.323 79.3266 18.5194 79.6752 18.8691C80.0238 19.2188 80.2196 19.693 80.2196 20.1875ZM11.4807 40.605H31.8905V44.3342H11.4807V40.605ZM24.4552 49.928H11.4807V53.6572H24.4552V49.928ZM28.2102 49.928H33.7495V53.6572H28.2102V49.928ZM77.2271 92.9999C74.656 93.0122 72.1096 92.4952 69.7457 91.4808C67.3818 90.4664 65.2505 88.9762 63.4837 87.1023C61.717 85.2285 60.3524 83.0109 59.4743 80.5868C58.5962 78.1628 58.2234 75.5837 58.3789 73.0093C58.5343 70.4348 59.2148 67.9198 60.3781 65.6197C61.5415 63.3197 63.163 61.2836 65.1423 59.6374C67.1216 57.9912 69.4166 56.7699 71.8854 56.0492C74.3541 55.3284 76.944 55.1235 79.4949 55.447C82.8664 55.8648 86.0622 57.1905 88.743 59.2835C91.4238 61.3765 93.4895 64.1587 94.7209 67.3346C95.9523 70.5106 96.3033 73.9617 95.7367 77.3217C95.1701 80.6816 93.707 83.8249 91.5028 86.4179C89.7622 88.4269 87.6305 90.0576 85.2386 91.2099C82.7306 92.3868 79.9959 92.9978 77.2271 92.9999ZM77.2139 59.0271C74.8309 59.0281 72.4831 59.6036 70.3681 60.7052C66.8689 62.5267 64.2203 65.6508 62.9899 69.4078C61.7595 73.1648 62.0452 77.2559 63.7859 80.8041C65.5265 84.3523 68.5836 87.0753 72.3018 88.3896C76.02 89.7039 80.1036 89.5048 83.6772 87.835C85.6074 86.9167 87.3236 85.6017 88.7146 83.9753C90.4861 81.8959 91.6622 79.3735 92.1176 76.6767C92.573 73.9798 92.2907 71.2096 91.3008 68.661C90.3108 66.1124 88.6503 63.8808 86.496 62.204C84.3417 60.5272 81.7743 59.4679 79.0673 59.1389C78.4444 59.063 77.8174 59.0257 77.1899 59.0271H77.2139ZM73.5579 81.9535C73.7843 82.0463 74.0268 82.0933 74.2715 82.0919C74.7397 82.0755 75.1845 81.8824 75.5169 81.5511L87.4505 69.5991L84.811 66.9514L74.2157 77.5982L69.5315 72.8995L66.9478 75.5285L72.9517 81.5511C73.1254 81.724 73.3314 81.8607 73.5579 81.9535Z" fill="white"/>
</svg>
