<svg width="100" height="100" viewBox="0 0 100 100" fill="none" xmlns="http://www.w3.org/2000/svg">
<path fill-rule="evenodd" clip-rule="evenodd" d="M48.1569 11.4903C40.6614 11.8128 33.426 14.3279 27.3501 18.7229L25.1201 15.7415C31.8464 10.8843 39.8622 8.12432 48.1569 7.80956V4H51.8428V7.80956C60.1376 8.12432 68.1533 10.8843 74.8796 15.7415L72.6497 18.7229C66.5737 14.3279 59.3384 11.8128 51.8428 11.4903V15.0422H48.1569V11.4903ZM4.46525 7.12622L7.07157 4.52355L31.4928 28.9106L28.8864 31.5132L4.46525 7.12622ZM70.8843 73.4719L73.4907 70.8693L95.5271 92.8748L92.9208 95.4775L70.8843 73.4719ZM22.8928 74.5355L9.99154 87.4187L12.5979 90.0214L25.4991 77.1382L22.8928 74.5355ZM74.4946 22.9919L87.3959 10.1087L90.0022 12.7114L77.1009 25.5946L74.4946 22.9919ZM92.314 48.1688C91.9708 39.9249 89.2086 31.9636 84.3709 25.2747L81.3854 27.4463C85.7677 33.5027 88.2848 40.7046 88.6281 48.1688H84.9423V51.8495H88.6281C88.3235 59.355 85.8036 66.6031 81.3854 72.6825L84.3709 74.8173C89.2439 68.105 92.0087 60.0977 92.314 51.8127H95.9999V48.132L92.314 48.1688ZM72.6497 81.406C66.5737 85.801 59.3384 88.3161 51.8428 88.6386V84.9579H48.1569V88.6386C40.6614 88.3161 33.426 85.801 27.3501 81.406L25.1201 84.3874C31.8464 89.2446 39.8622 92.0046 48.1569 92.3194V96.0001H51.8428V92.3194C60.1376 92.0046 68.1533 89.2446 74.8796 84.3874L72.6497 81.406ZM18.6146 72.6457L15.629 74.8174C10.756 68.1051 7.9912 60.0978 7.68589 51.8128H4V48.132H7.68589C8.02916 39.8882 10.7913 31.9268 15.629 25.2379L18.6146 27.4095C14.2322 33.466 11.7151 40.6679 11.3718 48.132H15.0577V51.8128H11.3718C11.6764 59.3183 14.1963 66.5663 18.6146 72.6457ZM59.012 25.5876C56.4828 23.4898 53.2876 22.3609 50 22.4038C42.8863 22.4038 37.0994 27.428 37.0994 33.6116V42.6478H33.4135C32.9248 42.6478 32.456 42.8417 32.1104 43.1868C31.7648 43.532 31.5706 44.0001 31.5706 44.4882V70.2533C31.5692 70.4955 31.6157 70.7356 31.7074 70.9598C31.7991 71.184 31.9342 71.388 32.105 71.5599C32.2772 71.7305 32.4815 71.8655 32.706 71.957C32.9306 72.0486 33.171 72.0951 33.4135 72.0937H66.5865C67.0753 72.0937 67.5441 71.8998 67.8897 71.5546C68.2353 71.2095 68.4295 70.7414 68.4295 70.2533V44.4882C68.4274 44.0054 68.2355 43.5427 67.895 43.1999C67.7243 43.026 67.5208 42.8877 67.2962 42.7929C67.0716 42.6981 66.8304 42.6488 66.5865 42.6478H62.9006V33.63C62.8837 32.0865 62.5265 30.5658 61.8545 29.1758C61.1824 27.7858 60.2119 26.5607 59.012 25.5876ZM40.7853 33.6116C40.7853 29.4524 44.9319 26.0845 50 26.0845C52.4141 26.0453 54.7643 26.8602 56.6346 28.385C57.4252 29.0166 58.0675 29.8135 58.5164 30.7197C58.9654 31.6258 59.21 32.6193 59.2332 33.63V42.6478H40.8037L40.7853 33.6116ZM64.7436 51.8496H59.2148V55.5304H64.7436V59.2111H59.2148V62.8918H64.7436V68.4129H35.2565V46.3285H64.7436V51.8496ZM48.1569 64.7321V59.6527C46.9633 59.2199 45.9606 58.3808 45.325 57.283C44.6894 56.1852 44.4617 54.8988 44.6817 53.6499C44.9017 52.4009 45.5555 51.2694 46.5281 50.4541C47.5007 49.6388 48.73 49.1919 49.9998 49.1919C51.2697 49.1919 52.499 49.6388 53.4716 50.4541C54.4442 51.2694 55.098 52.4009 55.318 53.6499C55.538 54.8988 55.3102 56.1852 54.6747 57.283C54.0391 58.3808 53.0364 59.2199 51.8428 59.6527V64.7321H48.1569ZM51.1144 52.9511C50.7839 52.7333 50.3958 52.6189 49.9998 52.6225C49.48 52.6224 48.9812 52.8274 48.6119 53.1927C48.2427 53.558 48.0328 54.0542 48.0279 54.5732C48.0206 54.9686 48.1315 55.3572 48.3466 55.6893C48.5616 56.0213 48.8709 56.2818 49.235 56.4373C49.5991 56.5929 50.0013 56.6365 50.3903 56.5625C50.7793 56.4885 51.1374 56.3003 51.4187 56.022C51.7001 55.7437 51.8918 55.3879 51.9696 55.0002C52.0473 54.6124 52.0075 54.2103 51.8551 53.8453C51.7028 53.4803 51.4449 53.169 51.1144 52.9511Z" fill="white"/>
</svg>
