<svg width="100" height="100" viewBox="0 0 100 100" fill="none" xmlns="http://www.w3.org/2000/svg">
<path fill-rule="evenodd" clip-rule="evenodd" d="M24.4438 88.2476C32.0084 93.3022 40.9021 96 50 96C62.1968 95.9896 73.891 91.14 82.5154 82.5154C91.14 73.891 95.9896 62.1968 96 50C96 40.9021 93.3022 32.0084 88.2476 24.4438C83.1931 16.8791 76.0089 10.9832 67.6034 7.50156C59.198 4.01993 49.949 3.10898 41.0259 4.8839C32.1028 6.65882 23.9064 11.0399 17.4731 17.4731C11.0399 23.9064 6.65882 32.1028 4.8839 41.0259C3.10898 49.949 4.01993 59.198 7.50156 67.6034C10.9832 76.0089 16.8791 83.1931 24.4438 88.2476ZM26.6188 15.0075C33.5396 10.3832 41.6763 7.91491 50 7.91491C61.1585 7.92528 71.857 12.3626 79.7472 20.2528C87.6375 28.1431 92.0747 38.8416 92.0851 50C92.0851 58.3237 89.6169 66.4604 84.9925 73.3812C80.3681 80.3022 73.7953 85.6963 66.1053 88.8815C58.4153 92.0669 49.9533 92.9004 41.7896 91.2765C33.626 89.6526 26.1271 85.6444 20.2413 79.7587C14.3557 73.873 10.3474 66.3741 8.72356 58.2104C7.09971 50.0467 7.93313 41.5848 11.1185 33.8947C14.3038 26.2047 19.6979 19.6319 26.6188 15.0075ZM64.6613 77.6391H72.0213C72.5404 77.6391 73.0383 77.4329 73.4054 77.0658C73.7725 76.6987 73.9787 76.2008 73.9787 75.6817V32.1481C73.9803 31.8507 73.9141 31.5569 73.7853 31.2891C73.6564 31.0211 73.4682 30.786 73.2349 30.6017C66.6573 25.7468 58.6633 23.1945 50.4894 23.3396C41.834 23.1242 33.3885 26.0204 26.6868 31.5021C26.478 31.6855 26.3107 31.9113 26.1959 32.1644C26.0812 32.4176 26.0217 32.6923 26.0213 32.9702V75.6817C26.0213 76.2008 26.2275 76.6987 26.5946 77.0658C26.9617 77.4329 27.4596 77.6391 27.9787 77.6391H35.2604C35.7795 77.6391 36.2774 77.4329 36.6445 77.0658C37.0117 76.6987 37.2179 76.2008 37.2179 75.6817V38.1379C41.2858 35.9105 45.8328 34.7016 50.4698 34.6145C54.7301 34.7007 58.9144 35.7585 62.7038 37.7072V75.6817C62.7038 76.2008 62.91 76.6987 63.2772 77.0658C63.6443 77.4329 64.1422 77.6391 64.6613 77.6391ZM70.0638 73.7243H66.6187V36.3957C66.6196 36.0213 66.5132 35.6546 66.312 35.3388C66.1108 35.0231 65.8232 34.7717 65.4834 34.6145H65.2877C60.7171 32.1823 55.6452 30.8424 50.4698 30.6996C44.821 30.8413 39.2943 32.3742 34.3796 35.1626C34.0538 35.3267 33.7803 35.5786 33.5901 35.8899C33.3999 36.2012 33.3004 36.5594 33.303 36.9243V73.7243H29.9362V33.8511C35.8423 29.3855 43.0874 27.0533 50.4894 27.2349C57.4654 27.1143 64.3062 29.1666 70.0638 33.1072V73.7243Z" fill="white"/>
</svg>
