<svg width="100" height="101" viewBox="0 0 100 101" fill="none" xmlns="http://www.w3.org/2000/svg">
<path fill-rule="evenodd" clip-rule="evenodd" d="M5.95745 33.5822H94.0426C94.5617 33.5822 95.0595 33.3761 95.4267 33.0092C95.7938 32.6422 96 32.1446 96 31.6257V7.83444C96 7.31554 95.7938 6.8179 95.4267 6.45098C95.0595 6.08406 94.5617 5.87793 94.0426 5.87793H5.95745C5.4383 5.87793 4.94042 6.08406 4.57332 6.45098C4.20623 6.8179 4 7.31554 4 7.83444V31.6257C4 32.1446 4.20623 32.6422 4.57332 33.0092C4.94042 33.3761 5.4383 33.5822 5.95745 33.5822ZM92.0851 29.6692H7.91489V9.79096H92.0851V29.6692ZM31.8348 13.8997C31.2258 14.114 30.6519 14.4173 30.1318 14.7997L30.1514 16.3062C31.0501 15.643 32.1125 15.2372 33.2246 15.1323C34.262 15.1323 34.7905 15.8171 34.7905 17.0888C34.7856 17.7222 34.6314 18.3457 34.3403 18.9084C33.9234 19.7752 33.4252 20.6005 32.8527 21.3736C32.148 22.3714 31.1497 23.6627 29.8382 25.2866V26.6562H37.1591V25.1301H31.8544C33.3616 23.3105 34.4186 21.941 35.045 21.0605C35.5545 20.3656 35.9877 19.6178 36.3369 18.8301C36.5606 18.2763 36.6801 17.6859 36.6893 17.0888C36.7193 16.6397 36.6604 16.189 36.5159 15.7627C36.3715 15.3363 36.1444 14.9425 35.8476 14.604C35.5478 14.2942 35.1841 14.0533 34.7819 13.8979C34.3797 13.7425 33.9485 13.6763 33.5182 13.704C32.95 13.6713 32.3803 13.7375 31.8348 13.8997ZM21.5582 26.5584L25.6884 15.3672H20.0901V13.8411H27.548V15.2106L23.4765 26.5584H21.5582ZM14.3746 26.5585V15.6607L11.458 17.0303V15.6607L14.5312 13.9194H16.2146V26.6368L14.3746 26.5585ZM40.3498 26.7342C40.1954 26.7431 40.041 26.7199 39.896 26.666C39.7512 26.6121 39.6191 26.5288 39.5081 26.4212C39.3964 26.3083 39.3092 26.1736 39.252 26.0254C39.1947 25.8773 39.1686 25.719 39.1753 25.5603C39.1698 25.4047 39.1966 25.2495 39.2536 25.1046C39.3107 24.9598 39.397 24.8282 39.5072 24.718C39.6173 24.608 39.749 24.5217 39.894 24.4646C40.0389 24.4075 40.1941 24.3809 40.3498 24.3864C40.5057 24.3788 40.6615 24.4044 40.8067 24.4618C40.9518 24.5192 41.083 24.6068 41.1915 24.719C41.3017 24.829 41.3881 24.9604 41.4454 25.105C41.5026 25.2498 41.5295 25.4048 41.5243 25.5603C41.531 25.719 41.505 25.8773 41.4477 26.0254C41.3905 26.1736 41.3033 26.3083 41.1915 26.4212C41.0813 26.5298 40.9493 26.6138 40.8042 26.6678C40.6592 26.7218 40.5042 26.7444 40.3498 26.7342ZM47.2008 15.6607V26.5585L49.0408 26.6368V13.9194H47.3573L44.2842 15.6607V17.0303L47.2008 15.6607ZM57.6537 15.0542C57.244 15.0342 56.8367 15.1256 56.4747 15.3185C56.1129 15.5114 55.8101 15.7987 55.5984 16.1499C55.0624 17.2104 54.7937 18.3858 54.8154 19.5738C55.5864 19.0969 56.4731 18.8398 57.3797 18.8303C57.8386 18.8134 58.2951 18.9037 58.713 19.0938C59.1309 19.284 59.4987 19.5689 59.7873 19.9259C60.4206 20.686 60.7423 21.6578 60.6878 22.6455C60.7409 23.7481 60.3776 24.8305 59.6699 25.6781C59.3214 26.0514 58.8957 26.3446 58.4225 26.5371C57.9493 26.7297 57.4399 26.8171 56.9295 26.7933C56.3375 26.8395 55.7441 26.7237 55.213 26.4583C54.6819 26.1929 54.2332 25.7879 53.915 25.2868C53.1667 23.847 52.8281 22.2295 52.9363 20.6107C52.8266 18.8059 53.234 17.0074 54.1107 15.4259C54.4571 14.8689 54.947 14.4152 55.5289 14.1123C56.111 13.8094 56.7637 13.6685 57.4188 13.7042C57.8747 13.7048 58.3286 13.764 58.7695 13.8803C59.1788 13.9694 59.574 14.1142 59.9439 14.3107V15.6607C59.5857 15.4989 59.2118 15.3743 58.8282 15.2889C58.4449 15.1741 58.0517 15.0954 57.6537 15.0542ZM56.8707 20.2977C56.1472 20.3081 55.4363 20.4891 54.7958 20.8259V20.9629C54.733 22.0948 54.9063 23.2275 55.3048 24.289C55.4417 24.6092 55.6716 24.8811 55.9647 25.0694C56.2578 25.2577 56.6007 25.3539 56.949 25.3455C58.1822 25.3455 58.789 24.4846 58.789 22.7629C58.8381 22.1183 58.6654 21.4764 58.2997 20.9433C58.1329 20.7265 57.9153 20.5543 57.666 20.4417C57.4169 20.329 57.1437 20.2796 56.8707 20.2977ZM63.2483 26.6661C63.3931 26.72 63.5477 26.7432 63.702 26.7343C63.8564 26.7432 64.0109 26.72 64.1558 26.6661C64.3007 26.6123 64.4327 26.5289 64.5437 26.4213C64.6554 26.3084 64.7427 26.1737 64.8 26.0256C64.8572 25.8774 64.8833 25.7191 64.8765 25.5604C64.8765 25.249 64.7528 24.9505 64.5325 24.7304C64.3123 24.5102 64.0136 24.3865 63.702 24.3865C63.3905 24.3865 63.0918 24.5102 62.8716 24.7304C62.6513 24.9505 62.5276 25.249 62.5276 25.5604C62.5208 25.7191 62.5468 25.8774 62.6041 26.0256C62.6614 26.1737 62.7486 26.3084 62.8603 26.4213C62.9713 26.5289 63.1033 26.6123 63.2483 26.6661ZM70.6511 26.7933C70.0383 26.8257 69.4288 26.6851 68.8923 26.3875C68.3558 26.09 67.9138 25.6475 67.617 25.1107C66.8374 23.5962 66.4792 21.9002 66.5796 20.1999C66.4792 18.4995 66.8374 16.8035 67.617 15.289C67.93 14.7734 68.3782 14.3531 68.913 14.0738C69.4478 13.7945 70.0489 13.6667 70.6511 13.7042C71.2541 13.6829 71.8512 13.8288 72.3764 14.1258C72.9014 14.4228 73.3341 14.8592 73.6264 15.3868C74.406 16.9014 74.7642 18.5974 74.6638 20.2977C74.7642 21.9979 74.406 23.694 73.6264 25.2085C73.3245 25.7209 72.8871 26.1401 72.3621 26.4197C71.837 26.6994 71.2449 26.8286 70.6511 26.7933ZM70.6511 25.3064C71.0136 25.3039 71.3657 25.1845 71.6549 24.9659C71.9442 24.7474 72.155 24.4413 72.2562 24.0933C72.672 22.8329 72.8447 21.505 72.7651 20.1803C72.8428 18.8555 72.6702 17.528 72.2562 16.2673C72.1535 15.9187 71.9407 15.6127 71.6497 15.395C71.3586 15.1774 71.0048 15.0598 70.6413 15.0598C70.2778 15.0598 69.924 15.1774 69.6329 15.395C69.3418 15.6127 69.1291 15.9187 69.0264 16.2673C68.6221 17.5303 68.4496 18.8559 68.5174 20.1803C68.4479 21.5047 68.6203 22.8307 69.0264 24.0933C69.1285 24.4445 69.3423 24.7529 69.6354 24.9718C69.9287 25.1906 70.2851 25.3081 70.6511 25.3064ZM77.1268 26.6661C77.2716 26.72 77.4262 26.7432 77.5805 26.7343C77.7349 26.7432 77.8893 26.72 78.0343 26.6661C78.1791 26.6123 78.3112 26.5289 78.4222 26.4213C78.5339 26.3084 78.6211 26.1737 78.6784 26.0256C78.7356 25.8774 78.7617 25.7191 78.755 25.5604C78.755 25.249 78.6312 24.9505 78.411 24.7304C78.1907 24.5102 77.892 24.3865 77.5805 24.3865C77.269 24.3865 76.9703 24.5102 76.75 24.7304C76.5298 24.9505 76.4061 25.249 76.4061 25.5604C76.3993 25.7191 76.4253 25.8774 76.4826 26.0256C76.5398 26.1737 76.6271 26.3084 76.7388 26.4213C76.8497 26.5289 76.9818 26.6123 77.1268 26.6661ZM84.5294 26.793C83.923 26.8181 83.3218 26.6739 82.7929 26.3768C82.264 26.0796 81.8282 25.6411 81.5345 25.1104C80.7548 23.5959 80.3965 21.8999 80.497 20.1996C80.3965 18.4993 80.7548 16.8032 81.5345 15.2888C81.8443 14.7792 82.2862 14.3629 82.8135 14.084C83.3407 13.805 83.9335 13.6737 84.5294 13.704C85.1324 13.6827 85.7295 13.8286 86.2546 14.1255C86.7797 14.4225 87.2123 14.859 87.5047 15.3866C88.2842 16.9011 88.6425 18.5972 88.5421 20.2974C88.6425 21.9977 88.2842 23.6937 87.5047 25.2082C87.2028 25.7208 86.7654 26.1398 86.2403 26.4195C85.7153 26.6991 85.1232 26.8284 84.5294 26.793ZM84.5294 25.3061C84.8919 25.3036 85.2439 25.1843 85.5331 24.9657C85.8224 24.7471 86.0333 24.4411 86.1345 24.093C86.5503 22.8326 86.723 21.5049 86.6434 20.18C86.7211 18.8553 86.5485 17.5278 86.1345 16.267C86.0318 15.9184 85.819 15.6125 85.528 15.3948C85.2368 15.1772 84.8831 15.0595 84.5196 15.0595C84.156 15.0595 83.8023 15.1772 83.5112 15.3948C83.2201 15.6125 83.0074 15.9184 82.9047 16.267C82.5004 17.53 82.3279 18.8557 82.3957 20.18C82.3262 21.5045 82.4986 22.8305 82.9047 24.093C83.0068 24.4443 83.2206 24.7527 83.5137 24.9716C83.8069 25.1904 84.1634 25.3079 84.5294 25.3061ZM14.3746 45.7712V56.6103H16.2146V43.9125H14.5312L11.458 45.6538V47.1604L14.3746 45.7712ZM21.5582 56.6103L25.6884 45.4386H20.0901V43.9125H27.548V45.2625L23.4765 56.6103H21.5582ZM31.8348 43.9519C31.2294 44.1743 30.6566 44.477 30.1318 44.8519L30.1514 46.3388C31.0501 45.6757 32.1125 45.2698 33.2246 45.1649C34.262 45.1649 34.7905 45.8497 34.7905 47.1214C34.787 47.7488 34.6326 48.3662 34.3403 48.9214C33.9159 49.7408 33.418 50.5201 32.8527 51.2497C32.148 52.2475 31.1497 53.5388 29.8382 55.1627V56.5323H37.1591V55.0258H31.8544C33.3616 53.1866 34.4186 51.8171 35.045 50.9366C35.5628 50.2471 35.9964 49.4983 36.3369 48.7062C36.5623 48.1529 36.6818 47.5622 36.6893 46.9649C36.727 46.0847 36.4258 45.2234 35.8476 44.5584C35.5437 44.2552 35.179 44.0201 34.7774 43.8682C34.3759 43.7165 33.9467 43.6516 33.5182 43.678C32.9454 43.67 32.3755 43.7628 31.8348 43.9519ZM40.3498 56.7475C40.1941 56.7529 40.0388 56.7263 39.8939 56.6692C39.7489 56.6122 39.6173 56.5259 39.5071 56.4158C39.3969 56.3057 39.3106 56.174 39.2535 56.0292C39.1965 55.8843 39.1698 55.7291 39.1753 55.5736C39.1696 55.415 39.1963 55.257 39.2535 55.109C39.3107 54.9611 39.3973 54.8263 39.5081 54.7127C39.619 54.605 39.7511 54.5217 39.896 54.4678C40.0409 54.4139 40.1954 54.3907 40.3498 54.3997C40.5042 54.3895 40.6591 54.4121 40.8041 54.466C40.9493 54.52 41.0812 54.604 41.1915 54.7127C41.3022 54.8263 41.3888 54.9611 41.4461 55.109C41.5032 55.257 41.5298 55.415 41.5243 55.5736C41.5294 55.7291 41.5026 55.8841 41.4454 56.0288C41.3881 56.1735 41.3017 56.3049 41.1915 56.4149C41.083 56.527 40.9517 56.6146 40.8066 56.6721C40.6614 56.7294 40.5056 56.7551 40.3498 56.7475ZM47.2008 45.7712V56.6103H49.0408V43.9125H47.3573L44.2842 45.6538V47.1604L47.2008 45.7712ZM57.6536 45.1258C57.2456 45.1017 56.8386 45.1892 56.4765 45.3788C56.1145 45.5683 55.8109 45.8529 55.5983 46.2019C55.0582 47.282 54.7895 48.4773 54.8153 49.6845C55.5838 49.1998 56.4709 48.9358 57.3796 48.9214C57.8258 48.8998 58.2711 48.9801 58.6815 49.1564C59.0919 49.3328 59.4567 49.6003 59.7481 49.9388C60.3861 50.7041 60.7081 51.6836 60.6485 52.6779C60.7025 53.7749 60.3388 54.8514 59.6306 55.691C59.2855 56.07 58.861 56.3683 58.3873 56.5645C57.9136 56.7606 57.4024 56.8498 56.8902 56.8257C56.3062 56.8689 55.7215 56.7535 55.1977 56.4918C54.674 56.23 54.2307 55.8316 53.9149 55.3388C53.1663 53.9062 52.8276 52.2949 52.9362 50.6823C52.8238 48.8711 53.2314 47.0656 54.1106 45.478C54.4439 44.908 54.926 44.4394 55.5052 44.1224C56.0845 43.8053 56.7392 43.6516 57.3992 43.678C57.8542 43.6721 58.3082 43.7246 58.7498 43.8345C59.1564 43.9326 59.5506 44.077 59.9243 44.2649V45.6149C59.5686 45.4511 59.1937 45.3329 58.8085 45.2627C58.4301 45.1728 58.0426 45.1269 57.6536 45.1258ZM56.8706 50.3692C56.1497 50.3821 55.4407 50.5559 54.7957 50.8779V51.0345C54.7346 52.1664 54.9079 53.2987 55.3047 54.3605C55.4416 54.6808 55.6715 54.9527 55.9645 55.1411C56.2577 55.3294 56.6006 55.4256 56.9489 55.4171C58.1821 55.4171 58.7889 54.5562 58.7889 52.8149C58.8318 52.171 58.6596 51.531 58.2996 50.9953C58.1285 50.7847 57.9096 50.618 57.6611 50.5091C57.4125 50.4003 57.1415 50.3523 56.8706 50.3692ZM63.2463 56.6693C63.3913 56.7264 63.5465 56.753 63.7022 56.7475C63.8579 56.753 64.0131 56.7264 64.158 56.6693C64.303 56.6122 64.4347 56.526 64.5448 56.4159C64.655 56.3057 64.7413 56.1741 64.7984 56.0293C64.8555 55.8844 64.8821 55.7292 64.8767 55.5736C64.8823 55.4151 64.8557 55.2571 64.7985 55.1091C64.7412 54.9612 64.6547 54.8263 64.5439 54.7127C64.3096 54.5117 64.011 54.401 63.7022 54.401C63.3933 54.401 63.0947 54.5117 62.8605 54.7127C62.7497 54.8263 62.6631 54.9612 62.606 55.1091C62.5487 55.2571 62.5221 55.4151 62.5278 55.5736C62.5223 55.7292 62.5489 55.8844 62.606 56.0293C62.6631 56.1741 62.7493 56.3057 62.8595 56.4159C62.9697 56.526 63.1014 56.6122 63.2463 56.6693ZM70.5532 56.6103V45.7712L67.617 47.1604V45.6538L70.6902 43.9125H72.3736V56.6103H70.5532ZM77.1245 56.6693C77.2696 56.7264 77.4247 56.753 77.5804 56.7475C77.7361 56.753 77.8913 56.7264 78.0362 56.6693C78.1813 56.6122 78.3129 56.526 78.4231 56.4159C78.5332 56.3057 78.6195 56.1741 78.6766 56.0293C78.7338 55.8844 78.7604 55.7292 78.7549 55.5736C78.7605 55.4151 78.7339 55.2571 78.6767 55.1091C78.6195 54.9612 78.5329 54.8263 78.4221 54.7127C78.1878 54.5117 77.8892 54.401 77.5804 54.401C77.2716 54.401 76.973 54.5117 76.7387 54.7127C76.6279 54.8263 76.5413 54.9612 76.4842 55.1091C76.427 55.2571 76.4004 55.4151 76.406 55.5736C76.4005 55.7292 76.4271 55.8844 76.4843 56.0293C76.5413 56.1741 76.6276 56.3057 76.7377 56.4159C76.8479 56.526 76.9796 56.6122 77.1245 56.6693ZM84.5294 56.865C83.9215 56.8858 83.3198 56.7377 82.791 56.4372C82.2623 56.1368 81.8273 55.6956 81.5345 55.1628C80.7548 53.6483 80.3965 51.9522 80.497 50.252C80.3985 48.5517 80.7567 46.8562 81.5345 45.3411C81.8326 44.8156 82.2698 44.3823 82.7981 44.0889C83.3264 43.7955 83.9254 43.6534 84.5294 43.6781C85.1307 43.6525 85.7273 43.7946 86.2527 44.0882C86.7781 44.3819 87.2115 44.8156 87.5047 45.3411C88.2825 46.8562 88.6407 48.5517 88.5421 50.252C88.6452 51.9586 88.2868 53.6617 87.5047 55.1824C87.2123 55.7099 86.7797 56.1464 86.2546 56.4433C85.7295 56.7403 85.1324 56.8862 84.5294 56.865ZM84.5294 55.378C84.8911 55.3725 85.2417 55.2518 85.5303 55.0338C85.8189 54.8156 86.0305 54.5114 86.1345 54.165C86.5475 52.9039 86.7201 51.5766 86.6434 50.252C86.7197 48.9272 86.5471 47.6 86.1345 46.3389C86.0318 45.9903 85.819 45.6844 85.528 45.4667C85.2368 45.249 84.8831 45.1314 84.5196 45.1314C84.156 45.1314 83.8023 45.249 83.5112 45.4667C83.2201 45.6844 83.0074 45.9903 82.9047 46.3389C82.502 47.6022 82.3296 48.9276 82.3957 50.252C82.3292 51.5762 82.5015 52.9017 82.9047 54.165C83.0096 54.5145 83.2241 54.8211 83.5167 55.0396C83.8092 55.2579 84.1642 55.3766 84.5294 55.378ZM14.3746 77.6429V88.482H16.2146V75.7646H14.5312L11.458 77.5059V79.0125L14.3746 77.6429ZM21.5582 88.482L25.6884 77.2907H20.0901V75.7646H27.548V77.1342L23.4765 88.482H21.5582ZM31.8348 75.8235C31.2258 76.0379 30.6519 76.3411 30.1318 76.7235L30.1514 78.23C31.0501 77.567 32.1125 77.1611 33.2246 77.0562C34.262 77.0562 34.7905 77.7409 34.7905 79.0127C34.7813 79.6456 34.6273 80.2681 34.3403 80.8323C33.9136 81.6628 33.4159 82.4548 32.8527 83.1997C32.148 84.178 31.1497 85.4693 29.8382 87.1127V88.4823H37.1591V86.9562H31.8544C33.3616 85.117 34.4186 83.7671 35.045 82.867C35.5578 82.1811 35.9911 81.4395 36.3369 80.6562C36.5625 80.0961 36.682 79.499 36.6893 78.8953C36.7435 77.989 36.4415 77.0975 35.8476 76.4105C35.5437 76.1074 35.179 75.8722 34.7774 75.7204C34.3759 75.5687 33.9467 75.5037 33.5182 75.5301C32.9442 75.5289 32.3745 75.6283 31.8348 75.8235ZM40.3498 88.6583C40.1954 88.6672 40.0409 88.644 39.896 88.5901C39.7511 88.5362 39.619 88.4528 39.5081 88.3452C39.3973 88.2317 39.3107 88.0968 39.2535 87.9489C39.1963 87.8008 39.1696 87.6429 39.1753 87.4844C39.1698 87.3287 39.1965 87.1736 39.2535 87.0287C39.3106 86.8838 39.3969 86.7522 39.5071 86.6421C39.6173 86.532 39.7489 86.4458 39.8939 86.3886C40.0388 86.3316 40.1941 86.305 40.3498 86.3105C40.5056 86.3027 40.6614 86.3285 40.8066 86.3859C40.9517 86.4432 41.083 86.5309 41.1915 86.6431C41.3017 86.7529 41.3881 86.8844 41.4454 87.0291C41.5026 87.1739 41.5294 87.3288 41.5243 87.4844C41.5298 87.6429 41.5032 87.8008 41.4461 87.9489C41.3888 88.0968 41.3022 88.2317 41.1915 88.3452C41.0812 88.4538 40.9493 88.5379 40.8041 88.5919C40.6591 88.6458 40.5042 88.6685 40.3498 88.6583ZM47.2008 77.6429V88.482H49.0408V75.7646H47.3573L44.2842 77.5059V79.0125L47.2008 77.6429ZM57.6537 76.9776C57.244 76.9577 56.8367 77.049 56.4747 77.2419C56.1129 77.4348 55.8101 77.7221 55.5984 78.0732C55.0531 79.1515 54.784 80.3481 54.8154 81.5558C55.5864 81.079 56.4731 80.8219 57.3797 80.8124C57.8252 80.7964 58.2687 80.8794 58.6782 81.0553C59.0877 81.2311 59.4532 81.4957 59.7482 81.8297C60.3759 82.6006 60.6967 83.5761 60.6486 84.5689C60.7018 85.6716 60.3385 86.754 59.6307 87.6015C59.2821 87.9749 58.8566 88.2681 58.3834 88.4606C57.9101 88.6532 57.4007 88.7406 56.8903 88.7167C56.3047 88.7557 55.7195 88.6364 55.1959 88.3713C54.6724 88.1063 54.2299 87.7052 53.915 87.2102C53.1667 85.7705 52.8281 84.153 52.9363 82.5341C52.8294 80.7234 53.2365 78.9193 54.1107 77.3298C54.4472 76.7628 54.9299 76.2964 55.5085 75.9798C56.087 75.6631 56.74 75.5078 57.3992 75.5298C57.8538 75.5336 58.3065 75.5861 58.7499 75.6863C59.1574 75.7905 59.5516 75.9414 59.9244 76.1363V77.4667C59.5622 77.3205 59.1891 77.2028 58.8086 77.1145C58.4302 77.0246 58.0427 76.9787 57.6537 76.9776ZM56.8707 82.1819C56.1498 82.1947 55.4409 82.3686 54.7958 82.6906V82.8471C54.7347 83.9791 54.908 85.1114 55.3048 86.1732C55.4417 86.4935 55.6716 86.7654 55.9647 86.9538C56.2578 87.1421 56.6007 87.2382 56.949 87.2297C58.1822 87.2297 58.789 86.3689 58.789 84.6471C58.8381 84.0027 58.6654 83.3607 58.2997 82.8276C58.1329 82.6109 57.9153 82.4386 57.666 82.3259C57.4169 82.2133 57.1437 82.1639 56.8707 82.1819ZM63.2484 88.5902C63.3933 88.6441 63.5479 88.6673 63.7022 88.6584C63.8566 88.6673 64.011 88.6441 64.156 88.5902C64.3008 88.5363 64.4329 88.4529 64.5439 88.3453C64.6547 88.2318 64.7412 88.0969 64.7985 87.9489C64.8557 87.801 64.8823 87.6429 64.8767 87.4845C64.8767 87.1731 64.7529 86.8745 64.5327 86.6544C64.3124 86.4342 64.0137 86.3106 63.7022 86.3106C63.3907 86.3106 63.092 86.4342 62.8717 86.6544C62.6515 86.8745 62.5278 87.1731 62.5278 87.4845C62.5221 87.6429 62.5487 87.801 62.606 87.9489C62.6631 88.0969 62.7497 88.2318 62.8605 88.3453C62.9714 88.4529 63.1035 88.5363 63.2484 88.5902ZM67.3625 76.7235C67.8825 76.3411 68.4565 76.0379 69.0654 75.8235C69.6051 75.6283 70.1749 75.5289 70.7488 75.5301C71.1773 75.5037 71.6066 75.5687 72.0081 75.7204C72.4096 75.8722 72.7744 76.1074 73.0782 76.4105C73.6721 77.0975 73.9741 77.989 73.9199 78.8953C73.9127 79.499 73.7932 80.0961 73.5676 80.6562C73.2218 81.4395 72.7884 82.1811 72.2757 82.867C71.6493 83.7671 70.5922 85.117 69.085 86.9562H74.3897V88.4823H67.0688V87.1127C68.3803 85.4693 69.3786 84.178 70.0833 83.1997C70.6331 82.4534 71.1176 81.6614 71.5318 80.8323C71.8189 80.2681 71.9728 79.6456 71.982 79.0127C71.982 77.7409 71.4535 77.0562 70.4161 77.0562C69.304 77.1611 68.2415 77.567 67.3429 78.23L67.3625 76.7235ZM77.1267 88.5902C77.2715 88.6441 77.4261 88.6673 77.5804 88.6584C77.7348 88.6673 77.8893 88.6441 78.0342 88.5902C78.1791 88.5363 78.3111 88.4529 78.4221 88.3453C78.5329 88.2318 78.6195 88.0969 78.6767 87.9489C78.7339 87.801 78.7605 87.6429 78.7549 87.4845C78.7549 87.1731 78.6312 86.8745 78.4109 86.6544C78.1907 86.4342 77.892 86.3106 77.5804 86.3106C77.2689 86.3106 76.9702 86.4342 76.75 86.6544C76.5297 86.8745 76.406 87.1731 76.406 87.4845C76.4004 87.6429 76.427 87.801 76.4842 87.9489C76.5413 88.0969 76.6279 88.2318 76.7387 88.3453C76.8496 88.4529 76.9817 88.5363 77.1267 88.5902ZM84.5294 88.7168C83.9238 88.7373 83.3244 88.5913 82.7962 88.2946C82.2681 87.9979 81.8316 87.5618 81.5345 87.0342C80.7669 85.5364 80.4089 83.8625 80.497 82.182C80.3965 80.4817 80.7548 78.7857 81.5345 77.2712C81.8316 76.7435 82.2681 76.3075 82.7962 76.0108C83.3244 75.7141 83.9238 75.568 84.5294 75.5886C85.1324 75.5672 85.7295 75.7131 86.2546 76.0101C86.7797 76.3071 87.2123 76.7435 87.5047 77.2712C88.2842 78.7857 88.6425 80.4817 88.5421 82.182C88.6425 83.8822 88.2842 85.5783 87.5047 87.0929C87.2046 87.6095 86.7686 88.0342 86.2441 88.3204C85.7195 88.6067 85.1264 88.7438 84.5294 88.7168ZM84.5294 87.2298C84.8919 87.2274 85.2439 87.1079 85.5331 86.8894C85.8224 86.6709 86.0333 86.3648 86.1345 86.0168C86.5485 84.7559 86.7211 83.4284 86.6434 82.1038C86.723 80.7789 86.5503 79.4511 86.1345 78.1907C86.0318 77.8422 85.819 77.5362 85.528 77.3185C85.2368 77.1008 84.8831 76.9833 84.5196 76.9833C84.156 76.9833 83.8023 77.1008 83.5112 77.3185C83.2201 77.5362 83.0074 77.8422 82.9047 78.1907C82.4986 79.4534 82.3262 80.7793 82.3957 82.1038C82.3279 83.428 82.5004 84.7538 82.9047 86.0168C83.0068 86.368 83.2206 86.6763 83.5137 86.8953C83.8069 87.1141 84.1634 87.2316 84.5294 87.2298ZM94.0426 64.7494H5.95745C5.4383 64.7494 4.94042 64.5432 4.57332 64.1763C4.20623 63.8093 4 63.3117 4 62.7928V38.9625C4 38.4436 4.20623 37.9459 4.57332 37.579C4.94042 37.2121 5.4383 37.0059 5.95745 37.0059H94.0426C94.5617 37.0059 95.0595 37.2121 95.4267 37.579C95.7938 37.9459 96 38.4436 96 38.9625V62.7928C96 63.0497 95.9494 63.3042 95.851 63.5416C95.7526 63.7789 95.6084 63.9946 95.4267 64.1763C95.2449 64.3579 95.0291 64.502 94.7917 64.6005C94.5541 64.6988 94.2996 64.7494 94.0426 64.7494ZM7.91489 60.8363H92.0851V40.919H7.91489V60.8363ZM5.95745 95.8779H94.0426C94.5617 95.8779 95.0595 95.6717 95.4267 95.3049C95.7938 94.9379 96 94.4403 96 93.9214V70.1302C96 69.6112 95.7938 69.1136 95.4267 68.7466C95.0595 68.3798 94.5617 68.1736 94.0426 68.1736H5.95745C5.4383 68.1736 4.94042 68.3798 4.57332 68.7466C4.20623 69.1136 4 69.6112 4 70.1302V93.9214C4 94.4403 4.20623 94.9379 4.57332 95.3049C4.94042 95.6717 5.4383 95.8779 5.95745 95.8779ZM92.0851 91.9649H7.91489V72.0867H92.0851V91.9649Z" fill="white"/>
</svg>
