<svg width="100" height="100" viewBox="0 0 100 100" fill="none" xmlns="http://www.w3.org/2000/svg">
<path fill-rule="evenodd" clip-rule="evenodd" d="M24.4438 88.2091C32.0084 93.2636 40.9021 95.9614 50 95.9614C62.1967 95.951 73.891 91.1013 82.5154 82.4769C91.1399 73.8525 95.9896 62.1582 96 49.9614C96 40.8635 93.3021 31.9699 88.2476 24.4052C83.1931 16.8406 76.0089 10.9446 67.6034 7.46299C59.198 3.98136 49.949 3.0704 41.0259 4.84532C32.1028 6.62024 23.9063 11.0013 17.4731 17.4346C11.0399 23.8677 6.65882 32.0641 4.8839 40.9873C3.10898 49.9104 4.01993 59.1595 7.50156 67.5648C10.9832 75.9702 16.8791 83.1544 24.4438 88.2091ZM26.6188 14.969C33.5396 10.3446 41.6763 7.87634 50 7.87634C61.1585 7.88671 71.857 12.324 79.7472 20.2142C87.6375 28.1045 92.0747 38.8029 92.0851 49.9614C92.0851 58.2851 89.6168 66.4218 84.9925 73.3427C80.3681 80.2635 73.7953 85.6576 66.1053 88.843C58.4152 92.0283 49.9533 92.8617 41.7896 91.2379C33.6259 89.614 26.1271 85.6058 20.2413 79.7201C14.3557 73.8344 10.3474 66.3356 8.72356 58.1719C7.0997 50.0081 7.93313 41.5462 11.1184 33.8562C14.3038 26.1661 19.6979 19.5933 26.6188 14.969ZM53.5431 39.6261V42.5035H46.4571V39.587C46.4059 39.0709 46.4578 38.5498 46.6098 38.054C46.7617 37.5582 47.0106 37.0975 47.342 36.6987C47.6735 36.2998 48.0808 35.9708 48.5405 35.7307C49.0002 35.4906 49.503 35.3443 50.0197 35.3002C50.4814 35.3136 50.935 35.4252 51.3501 35.6277C51.7653 35.8302 52.1325 36.119 52.4273 36.4746C53.1652 37.3572 53.5612 38.4758 53.5431 39.6261ZM42.5422 39.5674V42.5035H38.9796C38.4605 42.5035 37.9625 42.7097 37.5955 43.0767C37.2283 43.4438 37.0221 43.9417 37.0221 44.4609V62.8022C37.0221 63.3213 37.2283 63.8192 37.5955 64.1863C37.9625 64.5533 38.4605 64.7596 38.9796 64.7596H61.0008H61.0204C61.5395 64.7596 62.0374 64.5533 62.4045 64.1863C62.7716 63.8192 62.9779 63.3213 62.9779 62.8022V44.4609C62.9779 43.9417 62.7716 43.4438 62.4045 43.0767C62.0374 42.7097 61.5395 42.5035 61.0204 42.5035H57.442L57.4188 39.6457C57.4445 37.5457 56.7072 35.5079 55.3439 33.9104C54.6874 33.1297 53.8701 32.4998 52.9478 32.064C52.0256 31.6283 51.0201 31.3967 50.0001 31.3853C47.9262 31.4817 45.9756 32.3978 44.577 33.9321C43.1785 35.4666 42.4465 37.4935 42.5422 39.5674ZM40.9566 60.8447H59.0434V46.4184H40.9566V60.8447ZM15.1378 59.5136C14.8456 59.516 14.5571 59.449 14.2961 59.3178C13.9629 59.1592 13.6815 58.9096 13.4841 58.5979C13.2867 58.2862 13.1814 57.925 13.1803 57.5561V42.3664C13.1814 41.9974 13.2867 41.6362 13.4841 41.3245C13.6815 41.0128 13.9629 40.7633 14.2961 40.6047C14.633 40.4426 15.0094 40.3804 15.3805 40.4255C15.7517 40.4706 16.1022 40.6211 16.3905 40.8591L25.4927 48.454C25.7143 48.6376 25.8928 48.8679 26.0152 49.1284C26.1376 49.389 26.2012 49.6733 26.2012 49.9612C26.2012 50.2491 26.1376 50.5334 26.0152 50.7939C25.8928 51.0545 25.7143 51.2848 25.4927 51.4685L16.3905 59.0634C16.0384 59.3551 15.5951 59.5145 15.1378 59.5136ZM17.0952 53.3672L21.1863 49.9612L17.0952 46.5553V53.3672ZM83.6094 59.0634C83.9616 59.3551 84.4049 59.5145 84.8622 59.5136C85.1544 59.516 85.4429 59.449 85.7039 59.3178C86.037 59.1592 86.3185 58.9096 86.5159 58.5979C86.7133 58.2862 86.8186 57.925 86.8197 57.5561V42.3664C86.8186 41.9974 86.7133 41.6362 86.5159 41.3245C86.3185 41.0128 86.037 40.7633 85.7039 40.6047C85.3669 40.4426 84.9906 40.3804 84.6194 40.4255C84.2483 40.4706 83.8978 40.6211 83.6094 40.8591L74.5073 48.454C74.2856 48.6376 74.1072 48.8679 73.9848 49.1284C73.8622 49.389 73.7988 49.6733 73.7988 49.9612C73.7988 50.2491 73.8622 50.5334 73.9848 50.7939C74.1072 51.0545 74.2856 51.2848 74.5073 51.4685L83.6094 59.0634ZM82.9048 53.3672L78.8137 49.9612L82.9048 46.5553V53.3672ZM31.7761 26.1003H27.8612V73.8228H31.7761V26.1003ZM68.2239 26.1003H72.1388V73.8228H68.2239V26.1003Z" fill="white"/>
</svg>
