<svg width="100" height="101" viewBox="0 0 100 101" fill="none" xmlns="http://www.w3.org/2000/svg">
<path fill-rule="evenodd" clip-rule="evenodd" d="M95.9999 38.1134V34.4341H88.4054C54.294 34.4341 28.5497 23.0835 28.5497 8.36653V5H24.6696V8.36653C24.6696 25.6039 51.4621 38.1134 88.3869 38.1134H95.9999ZM95.9999 41.8111V45.4904H79.7809C37.3212 45.4904 4.05571 28.7496 4.05571 7.33638C4.04971 6.56123 4.09887 5.78662 4.20282 5.01844H7.88059C7.75539 5.78468 7.69389 6.55999 7.69669 7.33638C7.69669 26.3398 40.0243 41.8111 79.7809 41.8111H95.9999ZM96 49.1696V52.8487H73.4921C37.505 52.8487 11.632 58.6804 4.05576 68.4672V63.537C12.0917 56.5097 26.9867 52.8672 41.5322 51.0091C26.9499 49.1696 12.1101 45.4902 4.03737 38.6285V33.2567C11.5216 43.0803 36.8982 48.9855 72.2599 49.1696H96ZM95.9999 56.528V60.2073H79.7809C40.0059 60.2073 7.65995 75.7338 7.65995 94.7373C7.6595 95.4945 7.7148 96.2508 7.82545 97H4.14769C4.0432 96.2504 3.99403 95.494 4.00058 94.7373C4.00058 73.3055 37.3027 56.528 79.8177 56.528H95.9999ZM96 67.5658V63.8867H88.4239C51.5541 63.8867 24.78 76.3042 24.78 93.4494V96.9999H28.4579V93.4494C28.4579 78.6036 54.2206 67.5658 88.387 67.5658H96Z" fill="white"/>
</svg>
