<svg width="100" height="101" viewBox="0 0 100 101" fill="none" xmlns="http://www.w3.org/2000/svg">
<path fill-rule="evenodd" clip-rule="evenodd" d="M48.8951 96.5115C49.2239 96.7754 49.6336 96.9183 50.0552 96.9165C50.4451 96.8981 50.8193 96.7563 51.1232 96.5115C57.3048 92.0327 64.3552 88.8969 71.8214 87.3057C86.9583 84.5809 96 76.2589 96 65.212C95.8512 59.8223 94.1575 54.5884 91.12 50.1331L91.0211 49.9587C89.1099 46.589 87.4371 43.6393 87.4371 39.6754C87.5489 37.0029 88.2005 34.3807 89.3523 31.9664C90.5043 29.5522 92.1329 27.396 94.1401 25.6276C94.5316 25.297 94.782 24.8294 94.8399 24.3203C94.8686 24.0662 94.8442 23.809 94.7681 23.565C94.6921 23.3208 94.566 23.0953 94.3979 22.9026C94.382 22.8805 94.0528 22.4797 93.5059 21.814C90.8681 18.6042 83.1677 9.23337 81.1393 6.44278C80.9754 6.21223 80.7605 6.02255 80.5115 5.88845C80.2623 5.75434 79.9857 5.67942 79.703 5.6695C79.4229 5.64603 79.1413 5.68693 78.8796 5.78904C78.6178 5.89116 78.3829 6.05181 78.1929 6.25867C76.5166 8.24643 74.4509 9.86982 72.1232 11.0288C69.7953 12.1877 67.2548 12.8576 64.6581 12.9973C59.5203 12.9973 55.4692 10.7879 51.5285 5.63269C51.3417 5.40855 51.108 5.2282 50.844 5.10443C50.5798 4.98066 50.2917 4.9165 50 4.9165C49.7083 4.9165 49.4201 4.98066 49.156 5.10443C48.8918 5.2282 48.6582 5.40855 48.4715 5.63269C44.5492 10.7142 40.4796 12.9973 35.3419 12.9973C32.7452 12.8576 30.2046 12.1877 27.8768 11.0288C25.5489 9.86982 23.4832 8.24643 21.8071 6.25867C21.6169 6.05181 21.3821 5.89116 21.1204 5.78904C20.8587 5.68693 20.5769 5.64603 20.297 5.6695C20.0143 5.67942 19.7377 5.75434 19.4885 5.88845C19.2395 6.02255 19.0246 6.21223 18.8606 6.44278C17.3111 8.57451 12.4149 14.546 9.0272 18.6778C7.06044 21.0765 5.60208 22.8552 5.60208 22.9026C5.42732 23.0926 5.29445 23.3171 5.21211 23.5616C5.12977 23.8063 5.09977 24.0655 5.12408 24.3225C5.14839 24.5793 5.22646 24.8283 5.35322 25.0531C5.47998 25.2781 5.6526 25.4737 5.85989 25.6276C7.86708 27.396 9.49563 29.5522 10.6476 31.9664C11.7995 34.3807 12.451 37.0029 12.5628 39.6754C12.5628 43.7075 10.8871 46.6902 8.8799 50.1331C5.8425 54.5884 4.14874 59.8223 4 65.212C4 76.2589 13.0416 84.5809 28.1785 87.3057C35.6463 88.9095 42.7003 92.044 48.8951 96.5115ZM16.4483 39.6938C16.309 33.7935 13.9097 28.1719 9.74539 23.9889C10.0158 23.6608 10.3271 23.2841 10.6706 22.8685C13.3915 19.5765 18.1288 13.8446 20.4996 10.4933C24.4298 14.4 29.6925 16.6758 35.2314 16.8637C38.0649 16.8718 40.8632 16.2363 43.4152 15.0052C45.9672 13.774 48.2062 11.9795 49.9631 9.75684C51.7201 11.9795 53.9591 13.774 56.5111 15.0052C59.0631 16.2363 61.8615 16.8718 64.6949 16.8637C70.2337 16.6758 75.4965 14.4 79.4268 10.4933C82.3547 14.2676 87.9343 21.0615 90.3466 23.9889C86.1823 28.1719 83.783 33.7935 83.6437 39.6938C83.6437 44.5782 85.6931 48.2014 87.7248 51.7935C87.7764 51.8844 87.8277 51.9754 87.8791 52.0663C87.9511 52.193 88.0229 52.3194 88.0944 52.4453C90.2603 56.2556 92.2618 59.777 92.2618 65.2305C92.2618 78.7077 76.1674 82.6477 71.2321 83.5314C63.6333 85.1086 56.4307 88.202 50.0552 92.6267C43.6743 88.1998 36.4652 85.1063 28.8598 83.5314C23.9247 82.6477 7.83026 78.7077 7.83026 65.2305C7.83026 59.6443 9.93045 56.0129 12.1561 52.1646L12.213 52.0663C14.2938 48.476 16.4483 44.757 16.4483 39.6938ZM50.0552 85.8698C49.7309 85.8665 49.4133 85.7775 49.1344 85.6121C43.1664 82.0796 36.6403 79.5891 29.8359 78.2474C25.9504 77.5479 13.2626 74.5652 13.2626 65.3595C13.2626 61.1986 14.8647 58.4368 16.9456 54.9386C19.9947 50.4681 21.7241 45.2298 21.936 39.8229C21.9169 34.6349 20.3945 29.5637 17.5533 25.2225C17.3453 24.8957 17.2457 24.5114 17.2689 24.1246C17.2921 23.7378 17.4367 23.3683 17.6822 23.0684L20.6285 19.3862C20.903 19.0478 21.2886 18.8176 21.7168 18.7367C22.1451 18.6557 22.5881 18.7293 22.9672 18.9443C26.7452 21.1373 31.0286 22.311 35.3972 22.3504C40.2682 22.4211 45.0327 20.9235 48.9871 18.079C49.2991 17.8569 49.6724 17.7376 50.0552 17.7376C50.4381 17.7376 50.8114 17.8569 51.1232 18.079C55.0776 20.9235 59.8423 22.4211 64.7133 22.3504C69.096 22.3118 73.3928 21.1315 77.1801 18.9258C77.5592 18.711 78.0021 18.6374 78.4304 18.7183C78.8586 18.7992 79.2443 19.0294 79.5187 19.3677L82.465 23.05C82.7106 23.3498 82.8552 23.7195 82.8783 24.1063C82.9015 24.493 82.8019 24.8772 82.594 25.2042C79.7508 29.5443 78.2282 34.6162 78.2112 39.8044C78.2112 46.207 80.7556 50.6661 83.0406 54.6703H83.0407L83.1832 54.9202L83.2455 55.0268C85.2604 58.4747 86.8662 61.2224 86.8662 65.3411C86.8662 74.5467 74.1969 77.5846 70.293 78.2291C63.4885 79.5707 56.9624 82.0612 50.9944 85.5936C50.7119 85.7687 50.3874 85.8641 50.0552 85.8698ZM21.3283 24.1916C24.105 28.8597 25.5743 34.189 25.5821 39.6203C25.5821 47.1505 22.5436 52.3794 20.0577 56.5772L19.8527 56.9396C18.1212 59.9991 16.9271 62.1091 16.9271 65.1569C16.9271 71.7114 28.1785 74.0681 30.4436 74.4732C37.3271 75.8423 43.9397 78.33 50.0184 81.8377C56.097 78.33 62.7096 75.8423 69.5931 74.4732C71.8582 74.0681 83.1096 71.7114 83.1096 65.1569C83.1096 62.0086 81.8719 59.8611 80.0117 56.6337H80.0115L79.979 56.5772L79.9383 56.5074C77.496 52.3214 74.4546 47.1088 74.4546 39.6203C74.4847 34.1821 75.9795 28.8524 78.7822 24.1916L77.6221 22.7555C73.6354 24.8131 69.2182 25.8983 64.7317 25.9222C59.5116 25.9882 54.3879 24.5154 50 21.6876C45.6121 24.5154 40.4882 25.9882 35.2682 25.9222C30.7816 25.8983 26.3646 24.8131 22.3779 22.7555L21.3283 24.1916ZM61.7301 49.857H61.3435L69.1697 41.5719V38.5709H53.7013V41.6824H64.8423L56.8686 50.391V52.8949C58.092 52.7657 59.3215 52.7042 60.5516 52.7108C64.4187 52.7108 66.3523 54.2389 66.3523 57.2953C66.3959 57.9867 66.2789 58.6789 66.0107 59.3177C65.7424 59.9565 65.3298 60.5246 64.8054 60.9775C63.5171 61.9165 61.9398 62.3727 60.349 62.2664C57.9409 62.1871 55.5606 61.7273 53.2963 60.9039V63.9418C55.5156 64.9352 57.9176 65.4556 60.349 65.47C62.9361 65.5941 65.4845 64.8055 67.5493 63.2421C68.426 62.5316 69.1277 61.6291 69.6003 60.6044C70.0728 59.5798 70.3036 58.4602 70.2746 57.332C70.3311 56.306 70.1626 55.2801 69.7808 54.326C69.3991 53.3719 68.8134 52.5127 68.0648 51.8086C66.3788 50.4034 64.2146 49.7042 62.0248 49.857H61.7301ZM38.4725 62.2662C36.0105 62.1861 33.5756 61.7266 31.2538 60.9039L31.1065 63.9418C33.3885 64.9619 35.8622 65.4829 38.362 65.4698C40.9321 65.5901 43.4582 64.7721 45.47 63.1685C46.3477 62.4364 47.0462 61.5133 47.5122 60.4697C47.9782 59.4262 48.1993 58.2899 48.1586 57.148C48.2189 56.0473 48.0449 54.9465 47.6481 53.9181C47.2513 52.8898 46.6407 51.9575 45.8567 51.1827C44.073 49.6619 41.77 48.89 39.43 49.0285C38.1938 49.0398 36.9611 49.1631 35.747 49.3966L36.2442 41.6824H46.9801V38.6076H33.1138L32.3956 49.9675V52.5819C34.3518 52.3543 36.3189 52.2314 38.2882 52.2136C39.952 52.0728 41.6142 52.5012 43.0025 53.4288C43.5179 53.9311 43.9144 54.5423 44.163 55.2177C44.4115 55.893 44.5057 56.6155 44.4388 57.332C44.4687 58.0201 44.3473 58.7065 44.0832 59.3427C43.8191 59.9788 43.4187 60.5494 42.9104 61.0144C41.6293 61.9506 40.0541 62.3951 38.4725 62.2662Z" fill="white"/>
</svg>
