<svg width="100" height="100" viewBox="0 0 100 100" fill="none" xmlns="http://www.w3.org/2000/svg">
<path fill-rule="evenodd" clip-rule="evenodd" d="M24.4438 88.2476C32.0084 93.3022 40.9021 96 50 96C62.1968 95.9896 73.891 91.14 82.5154 82.5154C91.14 73.891 95.9896 62.1968 96 50C96 40.9021 93.3022 32.0084 88.2476 24.4438C83.1931 16.8791 76.0089 10.9832 67.6034 7.50156C59.198 4.01993 49.949 3.10898 41.0259 4.8839C32.1028 6.65882 23.9064 11.0399 17.4731 17.4731C11.0399 23.9064 6.65882 32.1028 4.8839 41.0259C3.10898 49.949 4.01993 59.198 7.50156 67.6034C10.9832 76.0089 16.8791 83.1931 24.4438 88.2476ZM26.6188 15.0075C33.5396 10.3832 41.6763 7.91491 50 7.91491C61.1585 7.92528 71.857 12.3626 79.7472 20.2528C87.6375 28.1431 92.0747 38.8416 92.0851 50C92.0851 58.3237 89.6169 66.4604 84.9925 73.3812C80.3681 80.3022 73.7953 85.6963 66.1053 88.8815C58.4153 92.0669 49.9533 92.9004 41.7896 91.2765C33.626 89.6526 26.1271 85.6444 20.2413 79.7587C14.3557 73.873 10.3474 66.3741 8.72356 58.2104C7.09971 50.0467 7.93313 41.5848 11.1185 33.8947C14.3038 26.2047 19.6979 19.6319 26.6188 15.0075ZM50 83.1592C40.2128 83.1592 32.8528 78.0503 28.9183 68.4001C27.3079 64.3214 26.35 60.0144 26.08 55.6375L29.9949 55.3831C30.2407 59.3349 31.0991 63.2244 32.5396 66.9124C35.8672 75.0946 41.7396 79.2443 50 79.2443C69.7702 79.2443 70.0638 56.6946 70.0638 55.755V28.9967L50 20.9124L29.9362 28.9967V44.4997H26.0213V27.6656C26.0209 27.2736 26.1382 26.8905 26.3582 26.5659C26.578 26.2413 26.8903 25.9903 27.2545 25.8452L49.2757 16.978C49.7408 16.7928 50.2592 16.7928 50.7243 16.978L72.7455 25.8452C73.1097 25.9903 73.422 26.2413 73.6418 26.5659C73.8618 26.8905 73.9791 27.2736 73.9787 27.6656V55.7354C73.9787 56.0095 73.7047 83.1592 50 83.1592ZM50 74.703C36.7677 74.703 33.5183 57.5362 33.4009 56.8119C33.3913 56.6947 33.3913 56.5768 33.4009 56.4596V55.5004H37.3157V56.2638C37.6485 57.8494 40.6434 70.7881 50.0392 70.7881C59.4349 70.7881 62.3906 57.8298 62.7234 56.2638V35.5932L50 30.4255L37.2766 35.5345V44.4408H33.3617V34.3404C33.3613 33.9483 33.4787 33.5653 33.6986 33.2407C33.9184 32.9161 34.2307 32.665 34.5949 32.52L49.2757 26.6477C49.7408 26.4624 50.2592 26.4624 50.7243 26.6477L65.4051 32.52C65.7693 32.665 66.0816 32.9161 66.3014 33.2407C66.5213 33.5653 66.6387 33.9483 66.6383 34.3404V56.4596C66.6479 56.5768 66.6479 56.6947 66.6383 56.8119C66.6348 56.828 66.6298 56.8521 66.6232 56.8841C66.3324 58.2904 62.9384 74.703 50 74.703ZM45.8698 60.5508L43.1098 57.83L48.9822 51.9574H13.2979V48.0426H48.9819L43.1098 42.1704L45.8698 39.4104L55.0502 48.5713C55.2336 48.7532 55.3793 48.9697 55.4786 49.2082C55.578 49.4467 55.6292 49.7027 55.6292 49.961C55.6292 50.2194 55.578 50.4753 55.4786 50.7138C55.3793 50.9523 55.2336 51.1689 55.0502 51.3508L45.8698 60.5508Z" fill="white"/>
</svg>
