<svg width="100" height="100" viewBox="0 0 100 100" fill="none" xmlns="http://www.w3.org/2000/svg">
<path fill-rule="evenodd" clip-rule="evenodd" d="M24.2778 29.6471C25.258 31.8972 26.681 33.9076 28.4456 35.5678C22.7572 37.668 17.7366 41.3123 13.9675 46.1238C9.4307 51.9155 6.97001 59.0628 6.98001 66.4198V72.6598H46.98L46.9 68.6598H10.9V66.4198C10.908 60.0944 12.9925 53.9465 16.8333 48.9206C20.6741 43.8947 26.0587 40.2688 32.16 38.5998C34.8377 39.8972 37.7745 40.5712 40.75 40.5712C43.7255 40.5712 46.6623 39.8972 49.34 38.5998C54.7312 40.051 59.5911 43.0225 63.34 47.1598L66.3 44.4798C62.6922 40.4618 58.1681 37.4028 53.1353 35.5477C54.89 33.8914 56.3055 31.8881 57.2818 29.6471C58.8793 25.9802 59.2099 21.8858 58.2216 18.0101C57.2332 14.1344 54.9821 10.6983 51.8237 8.24423C48.6653 5.79019 44.7795 4.45801 40.7798 4.45801C36.7801 4.45801 32.8943 5.79019 29.7359 8.24423C26.5775 10.6983 24.3264 14.1344 23.338 18.0101C22.3496 21.8858 22.6803 25.9802 24.2778 29.6471ZM40.7998 8.95977C37.7259 8.90086 34.7213 9.8761 32.268 11.729C29.8147 13.582 28.0548 16.2052 27.2707 19.178C26.4865 22.1508 26.7236 25.3008 27.9438 28.1227C29.1641 30.9446 31.2968 33.2749 33.9998 34.7398C36.0663 35.8479 38.3749 36.4278 40.7198 36.4278C43.0647 36.4278 45.3732 35.8479 47.4398 34.7398C50.1296 33.2809 52.2546 30.9647 53.4768 28.1593C54.699 25.354 54.9483 22.2206 54.1851 19.2573C53.4218 16.294 51.6898 13.6709 49.2645 11.8051C46.8392 9.93923 43.8597 8.93771 40.7998 8.95977Z" fill="white"/>
<path fill-rule="evenodd" clip-rule="evenodd" d="M50.54 83.08L71.82 95.36L93.1 83.08V58.5L71.82 46.22L50.54 58.5V83.08ZM69.8198 89.6024L54.54 80.76V63.131L69.8198 71.9462V89.6024ZM73.8198 89.6027L89.1 80.76V63.131L73.8198 71.9465V89.6027ZM71.82 50.76L56.4817 59.6363L71.82 68.4802L87.1584 59.6363L71.82 50.76Z" fill="white"/>
</svg>
