<svg width="100" height="100" viewBox="0 0 100 100" fill="none" xmlns="http://www.w3.org/2000/svg">
<path fill-rule="evenodd" clip-rule="evenodd" d="M48.7374 95.7608C49.0107 95.9231 49.3239 96.0058 49.6417 95.9997C49.9511 95.9893 50.2519 95.895 50.5118 95.7267L85.9155 75.2522C86.1957 75.1031 86.4288 74.8789 86.5885 74.6046C86.7483 74.3303 86.8284 74.0169 86.8197 73.6996C86.8204 73.3815 86.7371 73.0689 86.5783 72.7933C86.4195 72.5177 86.1909 72.2889 85.9155 72.1299L68.99 62.4045C68.7306 62.2547 68.4364 62.1759 68.1369 62.1759C67.8374 62.1759 67.5431 62.2547 67.2838 62.4045L49.6929 72.6417L29.5768 61.0225V37.2379L47.4407 27.0007C47.7003 26.8411 47.9149 26.6178 48.0642 26.3521C48.2135 26.0864 48.2925 25.787 48.2938 25.4822V5.84377C48.3199 5.52104 48.2536 5.19755 48.1027 4.91108C47.9518 4.62461 47.7226 4.38699 47.4417 4.22597C47.1608 4.06494 46.8399 3.98717 46.5164 4.00173C46.193 4.01628 45.8803 4.12257 45.615 4.30818L9.90429 24.885C9.62885 25.0441 9.40021 25.2729 9.24145 25.5485C9.08268 25.8241 8.9994 26.1367 9 26.4547V71.8057C8.9994 72.1237 9.08268 72.4363 9.24145 72.7119C9.40021 72.9875 9.62885 73.2164 9.90429 73.3754L48.7374 95.7608ZM50.563 92.5702L12.4636 70.5772L12.4124 27.632L44.8302 8.86375V24.5267L26.9663 34.764C26.686 34.913 26.4529 35.1373 26.2932 35.4116C26.1334 35.6859 26.0534 35.9993 26.062 36.3166V61.6538C26.0627 61.9693 26.1466 62.279 26.3054 62.5516C26.4642 62.8243 26.6922 63.0502 26.9663 63.2064L49.6246 76.2759C49.9084 76.4359 50.2287 76.5199 50.5545 76.5199C50.8803 76.5199 51.2005 76.4359 51.4844 76.2759L69.6213 65.7998L83.2709 73.6654L50.563 92.5702ZM88.2361 69.4169C88.5134 69.5695 88.824 69.6516 89.1404 69.6558C89.4809 69.642 89.8112 69.5358 90.0959 69.3486C90.3713 69.1896 90.6 68.9608 90.7587 68.6852C90.9175 68.4096 91.0008 68.097 91.0002 67.7789V26.5399C90.9995 26.2244 90.9155 25.9147 90.7568 25.642C90.598 25.3694 90.37 25.1435 90.0959 24.9873L54.2486 4.39338C53.9893 4.24363 53.695 4.16479 53.3955 4.16479C53.096 4.16479 52.8018 4.24363 52.5424 4.39338C52.268 4.54343 52.0401 4.76603 51.8836 5.03685C51.7272 5.30766 51.6482 5.61628 51.6552 5.92897V25.5674C51.6559 25.8829 51.7398 26.1926 51.8986 26.4653C52.0574 26.7379 52.2854 26.9638 52.5595 27.12L70.4234 37.4255V58.0877C70.4148 58.405 70.4949 58.7184 70.6546 58.9927C70.8144 59.267 71.0475 59.4913 71.3277 59.6403L88.2361 69.4169ZM87.5366 64.7931L73.887 56.9445L73.9382 36.4189C73.9468 36.1016 73.8667 35.7882 73.707 35.5139C73.5472 35.2396 73.3141 35.0153 73.0339 34.8662L55.1188 24.4925V8.91483L87.5366 27.6831V64.7931Z" fill="white"/>
</svg>
