<svg width="100" height="100" viewBox="0 0 100 100" fill="none" xmlns="http://www.w3.org/2000/svg">
<path d="M80.6819 17.7841C80.0427 9.47443 64.5527 5 49.9362 5C35.3197 5 19.8083 9.47443 19.1052 17.7841V81.7045C19.1052 90.3338 35.0214 95 50.0001 95C64.9788 95 80.895 90.3551 80.895 81.7258V17.8054L80.6819 17.7841ZM49.9362 9.26136C66.3851 9.26136 76.4845 14.5241 76.4845 18.3168C76.4845 22.1094 66.3851 27.3722 49.9362 27.3722C33.4873 27.3722 23.3666 22.0881 23.3666 18.3168C23.3666 14.5455 33.466 9.26136 49.9362 9.26136ZM49.9362 90.7599C33.466 90.7599 23.3666 85.4972 23.3666 81.7258V69.4318C29.0555 73.6932 39.7941 75.8239 50.064 75.8239C60.3339 75.8239 70.9021 73.6932 76.6336 69.4318V81.6406C76.4845 85.4972 66.3851 90.7599 49.9362 90.7599ZM50.064 71.5838C33.6152 71.5838 23.5157 66.2997 23.5157 62.5284H23.3666V48.125C29.0555 52.3864 39.7941 54.517 50.064 54.517C60.3339 54.517 70.9021 52.3864 76.6336 48.125V62.5284C76.6336 66.2997 66.5342 71.5838 50.064 71.5838ZM50.064 50.277C33.6152 50.277 23.5157 44.9929 23.5157 41.2216H23.3666V25.2415C29.0981 29.375 39.7302 31.6335 49.9362 31.6335C60.1422 31.6335 70.9447 29.5028 76.6336 25.2415V41.2216C76.6336 44.9929 66.5342 50.277 50.064 50.277Z" fill="white"/>
</svg>
