<svg width="100" height="100" viewBox="0 0 100 100" fill="none" xmlns="http://www.w3.org/2000/svg">
<path fill-rule="evenodd" clip-rule="evenodd" d="M16.3655 4V14.9881H10V19.0428H16.3655V25.9965H10V30.0512H16.3655V36.9846H10V41.0393H16.3655V47.9727H10V52.0273H16.3655V58.9608H10V63.0154H16.3655V69.9489H10V74.0035H16.3655V80.9573H10V85.0119H16.3655V96H90V4H16.3655ZM85.9839 91.9454H20.3816V85.0119H26.747V80.9573H20.3816V74.0035H26.747V69.9489H20.3816V63.0154H26.747V58.9608H20.3816V52.0273H26.747V47.9727H20.3816V41.0393H26.747V36.9846H20.3816V30.0512H26.747V25.9965H20.3816V19.0428H26.747V14.9881H20.3816V8.05465H85.9839V91.9454ZM75.3813 28.3076H34.819V32.3622H75.3813V28.3076ZM34.819 54.9262H55.1002V58.9809H34.819V54.9262ZM75.3813 14.988H34.819V19.0427H75.3813V14.988ZM34.819 41.6272H75.3813V45.6818H34.819V41.6272Z" fill="white"/>
</svg>
