<svg width="100" height="101" viewBox="0 0 100 101" fill="none" xmlns="http://www.w3.org/2000/svg">
<path fill-rule="evenodd" clip-rule="evenodd" d="M50 96.8779C40.9021 96.8779 32.0084 94.1801 24.4438 89.1256C16.8791 84.0709 10.9832 76.8867 7.50156 68.4814C4.01993 60.076 3.10898 50.827 4.8839 41.9038C6.65882 32.9806 11.0399 24.7842 17.4731 18.3511C23.9063 11.9178 32.1028 7.53674 41.0259 5.76183C49.949 3.98691 59.198 4.89786 67.6034 8.37949C76.0089 11.8611 83.1931 17.7571 88.2476 25.3217C93.3021 32.8864 96 41.78 96 50.8779C95.9896 63.0747 91.1399 74.769 82.5154 83.3934C73.891 92.0178 62.1967 96.8676 50 96.8779ZM50 8.79285C41.6763 8.79285 33.5396 11.2611 26.6188 15.8855C19.6979 20.5098 14.3038 27.0826 11.1184 34.7727C7.93313 42.4627 7.0997 50.9246 8.72356 59.0884C10.3474 67.2521 14.3557 74.7509 20.2413 80.6366C26.1271 86.5223 33.6259 90.5305 41.7896 92.1544C49.9533 93.7782 58.4152 92.9448 66.1053 89.7595C73.7953 86.5741 80.3681 81.18 84.9925 74.2592C89.6168 67.3383 92.0851 59.2016 92.0851 50.8779C92.0747 39.7194 87.6375 29.021 79.7472 21.1307C71.857 13.2405 61.1585 8.80321 50 8.79285ZM55.5003 76.6966H39.371V72.7817H53.5429V54.6753H38.9796V50.7604H53.5429V32.654H39.371V28.7391H55.5003C56.0194 28.7391 56.5173 28.9453 56.8844 29.3124C57.2515 29.6795 57.4578 30.1774 57.4578 30.6966V50.7604H73.7242V43.5374C73.722 43.1486 73.8356 42.7679 74.0505 42.444C74.2655 42.1199 74.572 41.8673 74.9311 41.7182C75.2902 41.5691 75.6855 41.5304 76.0667 41.6068C76.4479 41.6833 76.7977 41.8715 77.0715 42.1476L86.2519 51.3281C86.6165 51.6948 86.8211 52.1909 86.8211 52.7081C86.8211 53.2252 86.6165 53.7213 86.2519 54.0881L77.0715 63.2685C76.8886 63.4499 76.6717 63.5934 76.4331 63.6908C76.1947 63.7883 75.9393 63.8376 75.6817 63.8361C75.4275 63.8364 75.1753 63.7899 74.9379 63.6991C74.5773 63.551 74.2692 63.2986 74.053 62.9743C73.8368 62.6499 73.7223 62.2684 73.7242 61.8787V54.6753H57.4578V74.7391C57.4578 74.9961 57.4072 75.2507 57.3088 75.4881C57.2103 75.7257 57.0662 75.9415 56.8844 76.1232C56.7027 76.305 56.4869 76.4491 56.2494 76.5475C56.0119 76.6459 55.7573 76.6966 55.5003 76.6966ZM26.1388 39.9943C25.8472 39.9927 25.5596 39.9257 25.2971 39.7986C24.9641 39.6399 24.6826 39.3904 24.4852 39.0788C24.2878 38.767 24.1824 38.4059 24.1814 38.0369V23.3561C24.1824 22.9872 24.2878 22.626 24.4852 22.3143C24.6826 22.0026 24.9641 21.753 25.2971 21.5944C25.6299 21.4336 26.0013 21.3705 26.3685 21.412C26.7357 21.4536 27.0836 21.5983 27.372 21.8292L36.5329 29.1697C36.7635 29.352 36.9502 29.5839 37.079 29.8482C37.2078 30.1126 37.2753 30.4025 37.2767 30.6965C37.2753 30.9905 37.2078 31.2805 37.079 31.5447C36.9502 31.8091 36.7635 32.041 36.5329 32.2233L27.372 39.5637C27.0224 39.8442 26.5871 39.9963 26.1388 39.9943ZM28.0963 27.4275V33.9654L32.1873 30.6965L28.0963 27.4275ZM25.2971 61.8199C25.5596 61.947 25.8472 62.014 26.1388 62.0156C26.5871 62.0176 27.0224 61.8655 27.372 61.585L36.5329 54.2446C36.7635 54.0623 36.9502 53.8304 37.079 53.566C37.2078 53.3018 37.2753 53.0118 37.2767 52.7177C37.2753 52.4237 37.2078 52.1338 37.079 51.8695C36.9502 51.6051 36.7635 51.3733 36.5329 51.1909L27.372 43.8505C27.0836 43.6195 26.7357 43.4749 26.3685 43.4333C26.0013 43.3918 25.6299 43.455 25.2971 43.6156C24.9641 43.7743 24.6826 44.0238 24.4852 44.3356C24.2878 44.6473 24.1824 45.0084 24.1814 45.3773V60.0582C24.1824 60.4272 24.2878 60.7883 24.4852 61.1C24.6826 61.4116 24.9641 61.6612 25.2971 61.8199ZM32.1873 52.7177L28.0963 55.9867V49.4488L32.1873 52.7177ZM77.6391 48.1766V57.083L82.1021 52.6395L77.6391 48.1766ZM25.2969 82.0013C25.5594 82.1285 25.847 82.1953 26.1386 82.1971C26.5869 82.1989 27.0222 82.047 27.3718 81.7664L36.5327 74.426C36.7613 74.2425 36.9458 74.0102 37.0725 73.7459C37.1994 73.4817 37.2651 73.1922 37.2651 72.8992C37.2651 72.6061 37.1994 72.3167 37.0725 72.0524C36.9458 71.7882 36.7613 71.5558 36.5327 71.3724L27.3718 64.032C27.0842 63.7986 26.7361 63.6517 26.3683 63.6082C26.0004 63.5646 25.6278 63.6265 25.2937 63.7864C24.9596 63.9462 24.6776 64.1977 24.4807 64.5115C24.2837 64.8251 24.1799 65.1883 24.1812 65.5588V80.2396C24.1823 80.6085 24.2875 80.9697 24.4849 81.2814C24.6823 81.5931 24.9638 81.8427 25.2969 82.0013ZM32.1871 72.8992L28.0961 76.1682V69.6303L32.1871 72.8992Z" fill="white"/>
</svg>
