<svg width="100" height="101" viewBox="0 0 100 101" fill="none" xmlns="http://www.w3.org/2000/svg">
<path d="M87 52.9382L73.097 35.9346L87 18.894H25.8939V14.0887C26.9755 13.7394 27.9186 13.0624 28.5894 12.1535C29.2602 11.2445 29.6247 10.1498 29.6313 9.02454C29.5177 7.66558 28.8916 6.39853 27.8774 5.4749C26.8631 4.55127 25.5348 4.03857 24.1561 4.03857C22.7774 4.03857 21.449 4.55127 20.4348 5.4749C19.4205 6.39853 18.7944 7.66558 18.6808 9.02454C18.6817 10.1512 19.044 11.2485 19.7156 12.1586C20.3873 13.0686 21.3335 13.7444 22.4182 14.0887V92.3421H13V96.0386H35.0879V92.3421H25.8939V52.9382H87ZM24.0253 7.32418C24.3757 7.31688 24.7204 7.41348 25.0149 7.60153C25.3095 7.78958 25.5404 8.0605 25.6779 8.37942C25.8155 8.69833 25.8534 9.05067 25.7868 9.39108C25.7203 9.7315 25.5522 10.0444 25.3043 10.2896C25.0564 10.5348 24.74 10.701 24.3959 10.7668C24.0517 10.8327 23.6954 10.7952 23.373 10.6591C23.0505 10.5231 22.7766 10.2947 22.5865 10.0034C22.3963 9.7121 22.2987 9.37119 22.3061 9.02454C22.3156 8.57654 22.4998 8.14951 22.8202 7.83265C23.1405 7.51579 23.5723 7.33362 24.0253 7.32418V7.32418ZM79.1515 22.5905L68.2758 35.9346L79.1515 49.2417H25.8939V22.5905H79.1515Z" fill="white"/>
</svg>
