<svg width="100" height="100" viewBox="0 0 100 100" fill="none" xmlns="http://www.w3.org/2000/svg">
<path fill-rule="evenodd" clip-rule="evenodd" d="M61.0458 24.4357H68.3608C68.8799 24.4357 69.3777 24.2295 69.7449 23.8624C70.112 23.4953 70.3182 22.9974 70.3182 22.4783V17.1737C72.7631 18.9782 76.3087 21.6102 79.6913 24.1813H77.5218C77.0027 24.1813 76.5048 24.3875 76.1377 24.7546C75.7706 25.1217 75.5644 25.6196 75.5644 26.1387V31.9323L67.9336 34.5026L61.0458 24.4357ZM70.3182 12.2272C72.7474 13.9733 80.6062 19.8039 86.1931 24.1813H94.0426C94.5619 24.1813 95.0597 24.3875 95.4268 24.7546C95.7939 25.1217 96.0001 25.6196 96.0001 26.1387V42.6596C96.0001 43.1787 95.7939 43.6766 95.4268 44.0437C95.0597 44.4108 94.5619 44.617 94.0426 44.617H82.2268L78.541 50.006L82.22 55.383H94.0426C94.5619 55.383 95.0597 55.5892 95.4268 55.9563C95.7939 56.3234 96.0001 56.8213 96.0001 57.3404V73.8613C96.0001 74.3804 95.7939 74.8783 95.4268 75.2454C95.0597 75.6125 94.5619 75.8187 94.0426 75.8187H86.1841C81.9607 79.0921 76.3991 83.2086 72.9046 85.7949L72.9041 85.7953C71.7998 86.6127 70.902 87.2771 70.3182 87.7139V94.0426C70.3182 94.5617 70.112 95.0595 69.7449 95.4267C69.3777 95.7938 68.8799 96 68.3608 96H51.8399C51.3207 96 50.8228 95.7938 50.4558 95.4267C50.0887 95.0595 49.8825 94.5617 49.8825 94.0426V80.5274L32.7981 66.6383H5.95745C5.4383 66.6383 4.94042 66.4321 4.57332 66.065C4.20623 65.6978 4 65.2 4 64.6809V35.3191C4 34.8 4.20623 34.3022 4.57332 33.935C4.94042 33.5679 5.4383 33.3617 5.95745 33.3617H32.7941L49.8825 19.4695V5.95745C49.8825 5.4383 50.0887 4.94042 50.4558 4.57332C50.8228 4.20623 51.3207 4 51.8399 4H68.3608C68.8799 4 69.3777 4.20623 69.7449 4.57332C70.112 4.94042 70.3182 5.4383 70.3182 5.95745V12.2272ZM37.2109 34.8164C37.2542 34.979 37.2766 35.148 37.2766 35.3191V44.8292L64.0785 35.8012L56.3023 24.4357H51.8399C51.3696 24.4357 50.9168 24.2665 50.5628 23.9618L37.2109 34.8164ZM37.2766 48.9704V51.0269L66.4474 60.7533L73.7978 50.0064L66.3812 39.1667L37.2766 48.9704ZM37.2766 55.1537V64.6809C37.2766 64.8512 37.2544 65.0192 37.2116 65.181L50.5647 76.0366C50.9183 75.7329 51.3704 75.5643 51.8399 75.5643H56.3176L64.1491 64.1138L37.2766 55.1537ZM76.1377 44.0437C76.4959 44.4019 76.9786 44.6069 77.484 44.6166L76.1691 46.5392L70.2363 37.8681L75.5644 36.0734V42.6596C75.5644 43.1787 75.7706 43.6766 76.1377 44.0437ZM77.4768 55.3835L76.1697 53.4731L70.3097 62.0411L75.5644 63.7932V57.3404C75.5644 56.8213 75.7706 56.3234 76.1377 55.9563C76.4941 55.5999 76.9739 55.395 77.4768 55.3835ZM75.5644 67.9199L68.0113 65.4016L61.0606 75.5643H68.3608C68.8799 75.5643 69.3777 75.7705 69.7449 76.1376C70.112 76.5047 70.3182 77.0026 70.3182 77.5217V82.9187C72.7679 81.1109 76.3582 78.4303 79.7803 75.8187H77.5218C77.0027 75.8187 76.5048 75.6125 76.1377 75.2454C75.7706 74.8783 75.5644 74.3804 75.5644 73.8613V67.9199ZM66.4033 20.5209H53.7974V7.91489H66.4033V20.5209ZM53.7974 92.0851H66.4033V79.4791H53.7974V92.0851ZM92.0852 71.9038H79.4792V59.2979H92.0852V71.9038ZM79.4792 40.7021H92.0852V28.0962H79.4792V40.7021ZM33.3617 62.7234H7.91489V37.2766H33.3617V62.7234Z" fill="white"/>
</svg>
