<svg width="100" height="100" viewBox="0 0 100 100" fill="none" xmlns="http://www.w3.org/2000/svg">
<path fill-rule="evenodd" clip-rule="evenodd" d="M45.493 94.6518C45.8985 94.8808 46.3581 95.0009 46.8258 95C47.2935 95.0009 47.7532 94.8808 48.1587 94.6518C48.5667 94.4243 48.9053 94.0938 49.1397 93.6944C49.374 93.295 49.4955 92.8414 49.4915 92.3805V50.037L86.8281 28.8155C87.2328 28.5801 87.5683 28.2456 87.802 27.8445C88.0356 27.4435 88.1593 26.9897 88.1609 26.5275C88.1597 26.0676 88.036 25.616 87.8022 25.2174C87.5684 24.819 87.2326 24.4877 86.8281 24.2562L51.6848 4.36105C51.2787 4.1247 50.8155 4 50.3435 4C49.8716 4 49.4083 4.1247 49.0022 4.36105L10.3328 26.2954C9.92719 26.5256 9.59042 26.8567 9.35643 27.2554C9.12244 27.6542 8.9995 28.1065 9 28.5668V72.4853C8.9995 72.9456 9.12244 73.3979 9.35643 73.7967C9.59042 74.1954 9.92719 74.5266 10.3328 74.7567L45.493 94.6518ZM46.1172 91.1702L12.3743 72.0377L12.3912 28.9979L50.3351 7.44479L84.078 26.5939L47.4501 47.3511C47.0442 47.5852 46.7077 47.9196 46.4739 48.3209C46.2401 48.7222 46.1172 49.1766 46.1172 49.6391V91.1702ZM86.6089 71.0761V37.1715V36.674L74.7988 43.3058V62.173C74.8331 62.6034 74.8331 63.0358 74.7988 63.4662C74.7254 63.9698 74.5351 64.4501 74.2425 64.8698C73.95 65.2896 73.563 65.6376 73.1117 65.8867L56.2402 75.453V88.3185L86.6089 71.0761ZM88.4985 31.8163C88.6487 31.7371 88.8172 31.6971 88.9877 31.7003L89.0046 31.5843C89.1345 31.582 89.2636 31.6052 89.3843 31.6526C89.5049 31.6999 89.6148 31.7704 89.7075 31.8599C89.8001 31.9495 89.8737 32.0562 89.9239 32.174C89.9742 32.2917 90 32.4181 90 32.5458V72.4356C89.9989 72.6059 89.9534 72.773 89.8677 72.9211C89.7821 73.0692 89.6591 73.1931 89.5107 73.2811L54.3675 93.1762C54.2185 93.2606 54.0501 93.3062 53.8782 93.3089C53.7475 93.3089 53.6181 93.2836 53.4973 93.2344C53.3765 93.1852 53.2668 93.1132 53.1744 93.0224C53.0819 92.9315 53.0086 92.8237 52.9586 92.705C52.9086 92.5863 52.8828 92.4592 52.8828 92.3307V74.0935C52.8839 73.9232 52.9294 73.7561 53.0151 73.608C53.1008 73.4599 53.2237 73.336 53.3721 73.2479L71.4245 63.0185C71.4428 62.737 71.4428 62.4545 71.4245 62.173V41.8137C71.4245 41.4748 71.9441 41.2014 72.2729 41.0284C72.3142 41.0066 72.3524 40.9865 72.3862 40.9681L88.4985 31.8163Z" fill="white"/>
</svg>
