<svg width="100" height="101" viewBox="0 0 100 101" fill="none" xmlns="http://www.w3.org/2000/svg">
<path d="M72.2249 52.7702C72.6879 55.6083 74.204 58.1685 76.4715 59.9413C78.739 61.7141 81.5918 62.5696 84.4623 62.3377C87.3328 62.1058 90.0108 60.8034 91.9633 58.6897C93.9159 56.5759 95 53.8057 95 50.9302C95 48.0546 93.9159 45.2844 91.9633 43.1706C90.0108 41.0569 87.3328 39.7545 84.4623 39.5226C81.5918 39.2907 78.739 40.1463 76.4715 41.9191C74.204 43.6919 72.6879 46.252 72.2249 49.0902H58.4778C58.2646 45.7023 57.3881 42.3892 55.8979 39.3381L72.4829 25.3357C74.5181 26.9439 77.0396 27.8149 79.635 27.8061C82.2304 27.7973 84.746 26.9092 86.7702 25.2872C88.7943 23.6652 90.2072 21.4052 90.7778 18.8771C91.3483 16.349 91.0426 13.7024 89.9108 11.3703C88.779 9.03825 86.888 7.15874 84.5472 6.03932C82.2064 4.91991 79.5544 4.62685 77.0251 5.20811C74.4959 5.78937 72.239 7.21052 70.6239 9.23906C69.0087 11.2676 68.1309 13.7834 68.1339 16.3749C68.1124 18.5967 68.7539 20.7746 69.9767 22.6309L53.9445 36.1181C50.7614 31.3565 46.1288 27.7435 40.7311 25.813C35.3335 23.8824 29.457 23.7366 23.9699 25.3971C18.4829 27.0576 13.6763 30.4364 10.2603 35.0343C6.84424 39.6322 5 45.2053 5 50.9302C5 56.6551 6.84424 62.2281 10.2603 66.826C13.6763 71.4239 18.4829 74.8027 23.9699 76.4632C29.457 78.1238 35.3335 77.978 40.7311 76.0474C46.1288 74.1168 50.7614 70.5038 53.9445 65.7422L69.9767 79.2294C68.7539 81.0857 68.1124 83.2636 68.1339 85.4854C68.1329 88.072 69.0108 90.5824 70.624 92.6061C72.2373 94.6299 74.4905 96.0472 77.0152 96.6264C79.5399 97.2055 82.1867 96.9123 84.5228 95.7945C86.8589 94.6768 88.7461 92.8007 89.8758 90.473C91.0055 88.1454 91.3108 85.5039 90.7419 82.9805C90.1729 80.4571 88.7634 78.2011 86.7437 76.5814C84.724 74.9616 82.2137 74.0741 79.6232 74.0638C77.0328 74.0534 74.5155 74.921 72.4829 76.5246L55.8979 62.5222C57.3881 59.4712 58.2646 56.158 58.4778 52.7702H72.2249ZM83.5027 43.1653C85.0416 43.1617 86.5469 43.614 87.8282 44.465C89.1094 45.316 90.109 46.5274 90.7004 47.9459C91.2919 49.3644 91.4485 50.9263 91.1505 52.4337C90.8525 53.9411 90.1133 55.3264 89.0265 56.4142C87.9397 57.5019 86.5541 58.2433 85.0451 58.5444C83.5361 58.8455 81.9715 58.6928 80.5495 58.1057C79.1274 57.5185 77.9118 56.5233 77.0565 55.246C76.2012 53.9687 75.7446 52.4667 75.7446 50.9302C75.7446 48.874 76.5614 46.9018 78.0158 45.4461C79.4702 43.9904 81.4435 43.1702 83.5027 43.1653ZM79.6698 8.6101C81.2078 8.6101 82.7113 9.0655 83.9902 9.9187C85.269 10.7719 86.2657 11.9846 86.8543 13.4034C87.4429 14.8223 87.5969 16.3835 87.2969 17.8898C86.9968 19.396 86.2562 20.7795 85.1686 21.8655C84.081 22.9514 82.6954 23.6909 81.1869 23.9905C79.6784 24.2901 78.1148 24.1364 76.6938 23.5487C75.2728 22.961 74.0583 21.9657 73.2038 20.6888C72.3493 19.4119 71.8932 17.9106 71.8932 16.3749C71.8932 14.3156 72.7125 12.3405 74.1709 10.8844C75.6293 9.42817 77.6073 8.6101 79.6698 8.6101ZM79.6698 77.739C81.2086 77.739 82.7128 78.1949 83.9921 79.0489C85.2713 79.9029 86.268 81.1167 86.8561 82.5366C87.4441 83.9565 87.597 85.5187 87.2955 87.0254C86.9939 88.5322 86.2515 89.9157 85.162 91.0009C84.0726 92.0861 82.6853 92.8241 81.1756 93.1217C79.6658 93.4192 78.1017 93.2628 76.681 92.6723C75.2604 92.0817 74.0471 91.0836 73.1948 89.8043C72.3426 88.525 71.8896 87.0219 71.8932 85.4854C71.8981 83.4292 72.7196 81.459 74.1774 80.0067C75.6353 78.5545 77.6105 77.739 79.6698 77.739ZM31.8312 73.9302C27.2753 73.9302 22.8218 72.5813 19.0338 70.054C15.2457 67.5267 12.2933 63.9346 10.5498 59.7319C8.8064 55.5292 8.35023 50.9046 9.23903 46.4431C10.1278 41.9815 12.3217 37.8833 15.5431 34.6667C18.7646 31.4501 22.869 29.2595 27.3373 28.3721C31.8056 27.4846 36.4371 27.9401 40.6462 29.6809C44.8552 31.4217 48.4528 34.3697 50.9839 38.152C53.515 41.9344 54.8659 46.3812 54.8659 50.9302C54.8562 57.0272 52.4262 62.8717 48.1084 67.1829C43.7907 71.4941 37.9374 73.9205 31.8312 73.9302Z" fill="white"/>
</svg>
