<svg width="100" height="101" viewBox="0 0 100 101" fill="none" xmlns="http://www.w3.org/2000/svg">
<path fill-rule="evenodd" clip-rule="evenodd" d="M50.0063 96.9165C37.8046 96.9165 26.1027 92.0698 17.4749 83.4427C8.84707 74.8155 4 63.1147 4 50.914C4 49.9756 4 49.074 4.09201 48.1355C4.66077 38.7207 8.11004 29.7081 13.9725 22.3188C19.835 14.9297 27.8274 9.52092 36.8669 6.82542C42.7692 5.07011 48.9637 4.51745 55.0836 5.20018C61.2034 5.8829 67.124 7.78715 72.4941 10.8C79.1226 14.5164 84.7273 19.8168 88.8073 26.2275C92.8872 32.6383 95.3155 39.9599 95.8751 47.538C96.4347 55.1161 95.1081 62.7149 92.014 69.6553C88.9199 76.5958 84.1545 82.6616 78.1437 87.3112C77.4675 87.831 76.7785 88.3308 76.0775 88.8105C72.6334 91.1918 68.8689 93.0812 64.8927 94.4205C60.1317 96.049 55.1056 96.9028 50.0063 96.9165ZM90.5159 63.0828C88.2149 70.7472 83.7933 77.5854 77.785 82.8209C77.3165 81.7396 76.8163 80.672 76.2851 79.6195L72.991 81.2573C73.6358 82.5607 74.2379 83.8534 74.789 85.2085C74.6871 85.2828 74.5848 85.3566 74.4823 85.43C73.9244 85.8287 73.3569 86.2131 72.7805 86.583C71.2292 87.5781 69.6129 88.4677 67.9427 89.2457C68.879 87.0402 69.6801 84.778 70.341 82.4717L66.8078 81.4414C65.8452 84.8043 64.5626 88.0667 62.978 91.184C58.7915 92.55 54.4131 93.2432 50.0063 93.2363C43.1937 93.2363 36.5505 91.594 30.606 88.5287C27.9671 82.142 26.5687 75.309 26.4879 68.395C26.5543 65.7204 26.9122 63.0612 27.5552 60.4641C27.6084 60.191 27.6645 59.918 27.7214 59.6423L27.7221 59.6386L27.7222 59.638L27.7224 59.6376V59.6372L27.7225 59.6371V59.6369V59.6367C27.8031 59.2455 27.8848 58.849 27.9602 58.44L24.2796 57.7224C24.2018 58.1339 24.1172 58.5387 24.0339 58.9368C23.9796 59.1972 23.9257 59.4549 23.8748 59.7097C23.1773 62.5543 22.7947 65.4669 22.7338 68.395C22.8217 74.2085 23.7829 79.9655 25.5763 85.475C23.6279 84.0981 21.7871 82.55 20.0775 80.8403C12.1398 72.9034 7.6805 62.1386 7.6805 50.914C7.6805 50.5046 7.70301 50.0951 7.72575 49.6811L7.72588 49.6789C11.1224 48.9441 14.583 48.538 18.0595 48.4668L17.9676 44.7867C14.6192 44.8577 11.2851 45.2211 8.0032 45.872C8.94476 38.1386 12.0059 30.797 16.8709 24.6702C22.1319 18.0448 29.2549 13.1516 37.3166 10.6157C40.0248 12.0129 42.6135 13.6316 45.056 15.4555L47.2827 12.4746C45.7491 11.3378 44.1618 10.277 42.5265 9.29572C44.9902 8.83616 47.4935 8.60002 50.0063 8.59191C55.5903 8.59571 61.0851 9.70376 66.186 11.8181C64.9942 12.1744 63.8145 12.5713 62.6488 13.0082L63.9003 16.4676C66.3139 15.5746 68.7934 14.8713 71.316 14.3639C72.4443 15.0225 73.5449 15.735 74.6138 16.5001C81.7911 21.6374 87.1825 28.8896 90.034 37.2422C92.8853 45.5947 93.0538 54.6298 90.5159 63.0828ZM59.6308 31.0043C65.3468 39.6008 68.6923 49.5536 69.3289 59.857L73.0094 59.6362C72.3339 48.6942 68.7788 38.1248 62.704 28.9987L59.6308 31.0043ZM39.572 51.65C47.2966 54.3616 54.319 58.7621 60.1277 64.5308L62.612 61.8626C56.4206 55.7241 48.94 51.0412 40.713 48.1539L39.572 51.65ZM33.4441 36.2853L36.5357 38.2911C39.0522 34.1906 42.1587 30.4829 45.7553 27.2872L43.3262 24.5087C39.4748 27.9308 36.1454 31.8983 33.4441 36.2853ZM49.9471 28.2491C51.2881 29.1456 52.865 29.6241 54.4781 29.6241C55.5479 29.6266 56.6075 29.4181 57.5965 29.0104C58.5856 28.6027 59.4843 28.004 60.2417 27.2484C60.9988 26.493 61.5996 25.5957 62.0095 24.6077C62.4195 23.6197 62.6305 22.5606 62.6305 21.4909C62.6341 19.8779 62.1591 18.3001 61.2655 16.9571C60.3719 15.6142 59.1 14.5665 57.6107 13.9467C56.1214 13.3269 54.4816 13.1629 52.8991 13.4753C51.3164 13.7878 49.8621 14.5627 48.7201 15.702C47.5782 16.8413 46.7999 18.2937 46.4839 19.8754C46.1679 21.4573 46.3281 23.0972 46.9446 24.5878C47.5612 26.0784 48.606 27.3525 49.9471 28.2491ZM51.9938 17.7731C52.7292 17.2818 53.5937 17.0195 54.4781 17.0195C55.6641 17.0195 56.8015 17.4906 57.6403 18.3292C58.4789 19.1677 58.9499 20.305 58.9499 21.4909C58.9499 22.3753 58.6877 23.2398 58.1964 23.9752C57.705 24.7105 57.0066 25.2836 56.1894 25.622C55.3724 25.9604 54.4732 26.049 53.6057 25.8765C52.7383 25.7039 51.9415 25.2781 51.3161 24.6527C50.6908 24.0274 50.2648 23.2306 50.0923 22.3633C49.9198 21.4959 50.0083 20.5969 50.3468 19.7798C50.6852 18.9628 51.2584 18.2645 51.9938 17.7731ZM29.3771 55.2936C27.7646 55.2936 26.1884 54.8155 24.8478 53.9198C23.5073 53.0242 22.4623 51.7511 21.8452 50.2615C21.2283 48.772 21.0668 47.1329 21.3814 45.5516C21.6959 43.9705 22.4724 42.518 23.6124 41.3779C24.7526 40.238 26.2053 39.4615 27.7865 39.147C29.368 38.8325 31.0072 38.994 32.4968 39.6109C33.9865 40.2279 35.2597 41.2727 36.1554 42.6132C37.0512 43.9538 37.5293 45.5297 37.5293 47.142C37.5245 49.3024 36.664 51.3731 35.1362 52.9007C33.6084 54.4284 31.5376 55.2887 29.3771 55.2936ZM29.3771 42.6706C28.4926 42.6706 27.628 42.9328 26.8926 43.4241C26.1572 43.9154 25.584 44.6139 25.2456 45.4309C24.9072 46.2479 24.8186 47.147 24.9911 48.0144C25.1636 48.8818 25.5896 49.6785 26.2149 50.3038C26.8404 50.9291 27.6372 51.355 28.5046 51.5275C29.3721 51.7 30.2711 51.6115 31.0884 51.273C31.9054 50.9346 32.6038 50.3615 33.0952 49.6262C33.5865 48.8909 33.8489 48.0264 33.8489 47.142C33.8537 46.5518 33.7416 45.9664 33.519 45.4196C33.2965 44.8728 32.9679 44.3755 32.5522 43.9564C32.1365 43.5373 31.6418 43.2047 31.0969 42.9777C30.5519 42.7506 29.9674 42.6338 29.3771 42.6338V42.6706ZM65.3082 77.5174C66.6517 78.4117 68.2303 78.8871 69.8443 78.8835C72.0015 78.8835 74.0704 78.0266 75.5958 76.5014C77.1212 74.9761 77.9782 72.9074 77.9782 70.7504C77.9818 69.1365 77.5063 67.558 76.6119 66.2146C75.7176 64.8713 74.4445 63.8236 72.9541 63.2043C71.4637 62.585 69.8231 62.422 68.24 62.736C66.6569 63.05 65.2026 63.8267 64.0613 64.9679C62.92 66.109 62.1433 67.5631 61.8293 69.1462C61.5153 70.7291 61.6783 72.3696 62.2976 73.8599C62.917 75.3501 63.9647 76.6231 65.3082 77.5174ZM67.3549 67.0235C68.0927 66.5344 68.9591 66.2752 69.8443 66.2789C71.0271 66.2838 72.1597 66.757 72.9945 67.595C73.829 68.4331 74.2976 69.5676 74.2976 70.7504C74.2976 71.6354 74.035 72.5007 73.5428 73.2364C73.0505 73.9721 72.351 74.5451 71.5328 74.8831C70.7147 75.221 69.8146 75.3085 68.9466 75.1344C68.0788 74.9604 67.282 74.5327 66.6573 73.9055C66.0326 73.2784 65.6082 72.4799 65.4378 71.6113C65.2673 70.7428 65.3584 69.8431 65.6997 69.0264C66.0411 68.2096 66.617 67.5126 67.3549 67.0235Z" fill="white"/>
</svg>
