<svg width="100" height="100" viewBox="0 0 100 100" fill="none" xmlns="http://www.w3.org/2000/svg">
<path fill-rule="evenodd" clip-rule="evenodd" d="M73.3339 55.5981L61.217 67.7518C63.3969 67.1409 65.5002 66.2821 67.4863 65.1922C68.0665 65.5537 68.5619 66.0372 68.9385 66.6094C69.315 67.1816 69.5638 67.8289 69.6677 68.5068C69.6677 71.8767 62.5552 75.5412 51.9965 77.0328C48.7394 77.4754 45.4576 77.7091 42.171 77.7326H40.3379C25.5263 77.3827 14.6743 72.687 14.6743 68.5252C14.7782 67.8473 15.0269 67.2 15.4035 66.6278C15.7801 66.0556 16.2755 65.5721 16.8557 65.2106C22.6117 68.4332 31.9422 70.3483 42.171 70.3483H42.3726L43.3992 66.6653H42.171C32.0889 66.6653 22.74 64.6581 17.7723 61.4908C15.7925 60.1833 14.6927 58.7654 14.6743 57.5316V49.0056C20.2836 53.3147 31.4656 55.5612 42.171 55.5612H42.1711C43.6192 55.5612 45.0673 55.5612 46.4788 55.4323L47.5237 51.7494C45.6906 51.8783 43.9858 51.9336 42.171 51.9336C26.4429 51.9336 14.6743 47.0905 14.6743 42.7262C14.7782 42.0483 15.0269 41.4009 15.4035 40.8288C15.7801 40.2566 16.2755 39.7731 16.8557 39.4115C21.9151 42.2658 29.6875 44.052 38.5048 44.4572L38.5964 40.7742C29.9258 40.3507 22.0984 38.4724 17.7723 35.6918C15.8109 34.4211 14.711 32.9848 14.6743 31.7326V23.225C20.2836 27.534 31.4656 29.7806 42.171 29.7806H42.5743L44.5174 26.0977H42.171C26.4429 26.0977 14.6743 21.2546 14.6743 16.8903C14.6743 12.526 26.4429 7.68295 42.171 7.68295C47.4683 7.6604 52.749 8.27868 57.8991 9.52442H67.9629C62.4635 6.15452 52.968 4 42.171 4C27.0662 4 11.0081 8.49319 11.0081 16.8903V31.7142C11.0632 32.7643 11.3383 33.7909 11.8152 34.727C12.2922 35.663 12.9604 36.4875 13.7761 37.1465C12.95 37.8165 12.2757 38.6558 11.7984 39.6085C11.3211 40.5612 11.0516 41.6053 11.0081 42.6709V57.4027C11.0504 58.4686 11.3194 59.5131 11.7968 60.4659C12.2742 61.4188 12.9491 62.258 13.7761 62.9271C12.95 63.5971 12.2757 64.4365 11.7984 65.3892C11.3211 66.3418 11.0516 67.3859 11.0081 68.4516V83.1833C10.9973 83.312 10.9973 83.4414 11.0081 83.5701C11.503 91.6541 27.2678 96 42.171 96C57.0742 96 72.839 91.6541 73.3339 83.5332C73.3519 83.405 73.3519 83.2748 73.3339 83.1465V68.4147C73.2988 67.3474 73.033 66.3005 72.555 65.3465C72.0771 64.3926 71.3984 63.5545 70.5659 62.8903C71.3929 62.2212 72.0678 61.382 72.5452 60.4291C73.0226 59.4763 73.2915 58.4318 73.3339 57.3659V55.5981ZM69.6677 83.2202C69.6677 87.5661 57.8991 92.4275 42.171 92.4275C26.4429 92.4275 14.6743 87.6213 14.6743 83.2202V74.7494C20.2836 79.0216 31.4656 81.2682 42.171 81.2682C52.8764 81.2682 64.0583 79.0216 69.6677 74.7494V83.2202ZM20.1735 34.0345C21.439 34.0345 22.4649 33.0039 22.4649 31.7326C22.4649 30.4614 21.439 29.4308 20.1735 29.4308C18.908 29.4308 17.8821 30.4614 17.8821 31.7326C17.8821 33.0039 18.908 34.0345 20.1735 34.0345ZM22.4649 57.5133C22.4649 58.7845 21.439 59.8151 20.1735 59.8151C18.908 59.8151 17.8821 58.7845 17.8821 57.5133C17.8821 56.242 18.908 55.2114 20.1735 55.2114C21.439 55.2114 22.4649 56.242 22.4649 57.5133ZM20.1735 85.5957C21.439 85.5957 22.4649 84.5652 22.4649 83.2939C22.4649 82.0226 21.439 80.9921 20.1735 80.9921C18.908 80.9921 17.8821 82.0226 17.8821 83.2939C17.8821 84.5652 18.908 85.5957 20.1735 85.5957ZM45.8371 75.5966C46.1146 75.7621 46.4308 75.851 46.7536 75.8544C47.02 75.8593 47.2844 75.8059 47.5281 75.6978C47.7719 75.5896 47.9893 75.4294 48.1651 75.2283L88.4936 32.8744C88.7407 32.6139 88.9065 32.2864 88.9704 31.9323C89.0344 31.5782 88.9936 31.2131 88.8532 30.882C88.7128 30.5509 88.4789 30.2684 88.1804 30.0694C87.8819 29.8704 87.5319 29.7637 87.1737 29.7623H76.89L81.5827 15.6014C81.6753 15.3175 81.6977 15.0153 81.648 14.7208C81.5984 14.4263 81.4782 14.1483 81.2977 13.9109C81.1173 13.6735 80.8821 13.4837 80.6124 13.3579C80.3427 13.2322 80.0466 13.1742 79.7496 13.189H55.9192C55.5807 13.1901 55.249 13.2852 54.9611 13.464C54.6731 13.6428 54.44 13.8982 54.2877 14.2018L43.289 36.2995C43.1353 36.5817 43.0578 36.8994 43.0643 37.221C43.0709 37.5426 43.1611 37.8569 43.3261 38.1326C43.4912 38.4082 43.7252 38.6357 44.0049 38.7922C44.2846 38.9488 44.6003 39.029 44.9205 39.0249H55.2959L44.9938 73.4789C44.8771 73.8757 44.8968 74.3005 45.0498 74.6846C45.2028 75.0688 45.4801 75.3901 45.8371 75.5966ZM57.7523 35.342H47.8901L56.9457 16.8904H77.1099L72.4172 31.0329C72.3209 31.3178 72.2956 31.6221 72.3435 31.9192C72.3914 32.2162 72.511 32.4969 72.6919 32.7368C72.8727 32.9766 73.1094 33.1683 73.381 33.295C73.6527 33.4217 73.9512 33.4796 74.2503 33.4637H82.7926L50.6948 67.1626L59.5121 37.699C59.5917 37.4246 59.6067 37.1353 59.5558 36.854C59.5049 36.5728 59.3895 36.3072 59.2188 36.0785C59.048 35.8498 58.8266 35.6642 58.5721 35.5364C58.3175 35.4085 58.0369 35.342 57.7523 35.342Z" fill="white"/>
</svg>
