<svg width="100" height="100" viewBox="0 0 100 100" fill="none" xmlns="http://www.w3.org/2000/svg">
<path fill-rule="evenodd" clip-rule="evenodd" d="M74.8313 15.6566L72.6593 18.6398C66.5808 14.2185 59.3311 11.6941 51.8221 11.3843V15.0673H48.1408V11.3843C40.6509 11.7049 33.4219 14.2287 27.3588 18.6398L25.1316 15.6566C31.845 10.7823 39.8518 8.00759 48.1408 7.68296V4H51.8221V7.68296C60.1111 8.00759 68.1179 10.7823 74.8313 15.6566ZM7.11314 4.4402L4.50995 7.04445L28.9019 31.4461L31.505 28.8419L7.11314 4.4402ZM73.4523 70.8079L70.8492 73.4122L92.8591 95.4311L95.4623 92.8268L73.4523 70.8079ZM10.0298 87.3672L22.9155 74.4762L25.5188 77.0805L12.633 89.9715L10.0298 87.3672ZM87.341 10.0291L74.4551 22.9201L77.0584 25.5244L89.9442 12.6334L87.341 10.0291ZM96 51.8415V48.1587H92.2816C91.9572 39.8663 89.1835 31.8563 84.3113 25.1401L81.3293 27.3683C85.7385 33.4338 88.2613 40.6657 88.5817 48.1587H84.9004V51.8415H88.5817C88.2721 59.3535 85.7489 66.6061 81.3293 72.6872L84.3113 74.8601C89.1968 68.148 91.9831 60.1377 92.3185 51.8415H96ZM51.8221 92.3171C60.1111 91.9924 68.1179 89.2178 74.8313 84.3434L72.6041 81.3602C66.541 85.7714 59.312 88.2952 51.8221 88.6158V84.9328H48.1408V88.6158C40.6318 88.306 33.3821 85.7816 27.3036 81.3602L25.1316 84.3434C31.845 89.2178 39.8518 91.9924 48.1408 92.3171V96H51.8221V92.3171ZM11.3813 51.8415C11.7018 59.3345 14.2246 66.5664 18.6339 72.6319L15.6518 74.8601C10.7795 68.1439 8.00597 60.1338 7.68147 51.8415H4V48.1587H7.68147C8.00597 39.8663 10.7795 31.8563 15.6518 25.1401L18.6339 27.313C14.2143 33.3941 11.691 40.6467 11.3813 48.1587H15.0628V51.8415H11.3813ZM65.7564 38.1643C66.0581 38.1643 66.3552 38.2384 66.6215 38.3804C67.0265 38.6014 76.3222 43.9232 71.61 61.8776C68.2046 75.0994 51.5459 77.2539 49.0978 77.4749H48.7112C48.4978 77.4746 48.286 77.4373 48.0854 77.3644C43.982 75.9488 40.0829 73.9984 36.4888 71.5638C33.0659 69.1572 30.6498 65.5728 29.7023 61.4962C28.7548 57.4195 29.3427 53.1365 31.3532 49.466C31.3848 49.4122 31.4158 49.3588 31.4468 49.3061C31.5953 49.0517 31.7376 48.8076 31.9054 48.5637C34.9241 43.8127 32.8073 35.6182 31.7397 32.8743C31.6311 32.594 31.5928 32.2914 31.6282 31.9929C31.6634 31.6943 31.7712 31.409 31.9421 31.1618C32.1114 30.9179 32.3369 30.7184 32.5997 30.5806C32.8625 30.4426 33.1548 30.3704 33.4516 30.37C37.4643 30.37 40.8513 33.7399 42.9865 36.5574C43.5742 33.9334 43.4818 31.2027 42.7184 28.6244C41.9549 26.0461 40.5455 23.7059 38.624 21.8255C38.3162 21.565 38.1024 21.2107 38.0153 20.817C37.9282 20.4232 37.9727 20.0118 38.1421 19.6458C38.3114 19.2798 38.5962 18.9796 38.9525 18.7912C39.309 18.6028 39.7174 18.5366 40.1149 18.6029C43.2008 19.1225 46.1133 20.3866 48.6008 22.2858C52.6554 24.1844 56.1456 27.1068 58.7278 30.7653C61.31 34.4238 62.895 38.6921 63.3267 43.1498C63.5935 42.0532 63.7842 40.9396 63.8973 39.8168C63.9311 39.5136 64.0397 39.2239 64.2131 38.973C64.3867 38.7224 64.6197 38.5187 64.8913 38.3804C65.1576 38.2384 65.4547 38.1643 65.7564 38.1643ZM38.6425 68.6358C40.9604 70.2103 43.4265 71.5548 46.0053 72.6503C44.1696 64.8361 45.1541 56.6243 48.7848 49.466C52.319 43.0024 52.9081 35.5261 50.2943 30.1121C49.1443 27.6662 47.2756 25.6296 44.9378 24.2746C46.2505 26.9783 46.9812 29.9275 47.0827 32.9315C47.1842 35.9354 46.6542 38.9273 45.5267 41.7134C45.4044 42.0543 45.1842 42.3514 44.8939 42.5677C44.6035 42.7841 44.2558 42.9099 43.8943 42.9295C43.5329 42.9491 43.1736 42.8617 42.8615 42.6781C42.5494 42.4946 42.2984 42.2231 42.1398 41.8975C40.689 39.2297 38.6949 36.896 36.2863 35.0472C37.2619 39.0617 38.1638 45.691 35.053 50.5525L34.6112 51.3076C33.0286 54.1847 32.5647 57.5456 33.3088 60.7442C34.053 63.9428 35.9525 66.7534 38.6425 68.6358ZM50.0549 73.6816C54.1782 73.037 65.6827 70.3853 68.0941 60.9937H68.1125C70.5608 51.4917 68.7199 46.3171 66.9528 43.7575C66.3461 47.0462 64.7312 50.0646 62.3327 52.394C62.0439 52.6296 61.6904 52.7721 61.3191 52.8024C60.9477 52.8327 60.5758 52.7497 60.2526 52.5641C59.9296 52.3785 59.6703 52.0991 59.5092 51.7629C59.3481 51.4268 59.2928 51.0497 59.3507 50.6814C60.8417 41.4372 58.0437 35.2682 54.712 31.3644C56.4136 38.0581 55.443 45.1516 52.0062 51.1419C47.0914 60.1282 49.0609 70.109 50.0549 73.6816Z" fill="white"/>
</svg>
