<svg width="100" height="100" viewBox="0 0 100 100" fill="none" xmlns="http://www.w3.org/2000/svg">
<path fill-rule="evenodd" clip-rule="evenodd" d="M50 29.0792C39.3504 29.0792 28.2246 26.8702 22.6471 22.688V83.4512C22.6471 87.1313 33.0595 92.3201 50 92.3201C66.9406 92.3201 77.3529 87.168 77.3529 83.4512V22.696C71.7755 26.8795 60.6496 29.0792 50 29.0792ZM19 83.4512V16.5488C19 8.41601 34.9742 4 50 4C65.0259 4 81 8.3976 81 16.5488V83.4512C81 91.6025 65.0259 96 50 96C34.9742 96 19 91.6025 19 83.4512ZM50 7.68C66.9406 7.68 77.3529 12.8504 77.3529 16.5488C77.3529 20.2472 66.9406 25.3993 50 25.3993C33.0595 25.3993 22.6471 20.2657 22.6471 16.5488C22.6471 12.832 33.0595 7.68 50 7.68ZM46.3374 53.9474C46.26 52.8321 45.8958 51.7536 45.2775 50.8197C44.5762 49.7607 43.5793 48.9353 42.4131 48.4478C41.2469 47.9604 39.9636 47.8329 38.7255 48.0814C37.4875 48.3299 36.3503 48.9432 35.4576 49.8439C34.5651 50.7445 33.9572 51.892 33.711 53.1413C33.4647 54.3905 33.5911 55.6853 34.0741 56.8621C34.4749 57.8383 35.1062 58.6968 35.9088 59.3651L33.4157 65.2602C32.7578 65.1828 32.0883 65.2087 31.4316 65.3405C30.1935 65.5891 29.0563 66.2025 28.1637 67.1031C27.2711 68.0038 26.6632 69.1513 26.417 70.4004C26.1707 71.6497 26.2971 72.9446 26.7802 74.1213C27.2632 75.298 28.0813 76.3039 29.1308 77.0115C30.1804 77.7191 31.4144 78.0968 32.6767 78.0968C34.3694 78.0968 35.9928 77.4183 37.1896 76.2106C38.3866 75.0029 39.0591 73.3648 39.0591 71.6568C39.0591 70.3832 38.6847 69.138 37.9834 68.079C37.6427 67.5645 37.2323 67.1051 36.7666 66.7129L39.2679 60.7985C39.5005 60.8245 39.7351 60.8377 39.9707 60.8377C41.6633 60.8377 43.2867 60.1592 44.4837 58.9514C44.9032 58.5283 45.2581 58.0522 45.5424 57.5388L53.7484 59.4216C53.829 59.873 53.9574 60.3165 54.1331 60.7444C54.6162 61.9213 55.4342 62.927 56.4838 63.6347C57.5334 64.3424 58.7673 64.7199 60.0296 64.7199C61.7223 64.7199 63.3457 64.0415 64.5426 62.8337C65.7395 61.626 66.412 59.988 66.412 58.28C66.412 57.0063 66.0377 55.7611 65.3363 54.7021C65.0054 54.2023 64.6086 53.7546 64.1592 53.3697L67.2769 45.3998C67.2925 45.3999 67.3081 45.4001 67.3237 45.4001C68.9992 45.3954 70.6062 44.728 71.7996 43.5412C72.9928 42.3543 73.6774 40.7424 73.7059 39.052V38.96C73.7059 37.6863 73.3316 36.4412 72.6304 35.3821C71.9291 34.3231 70.9323 33.4977 69.766 33.0101C68.5998 32.5227 67.3166 32.3952 66.0784 32.6437C64.8404 32.8921 63.7032 33.5055 62.8106 34.4061C61.918 35.3069 61.3101 36.4543 61.064 37.7036C60.8176 38.9528 60.944 40.2477 61.4271 41.4244C61.9101 42.6013 62.7282 43.607 63.7778 44.3147C63.7785 44.3151 63.7793 44.3156 63.78 44.3162L60.8175 51.8892C60.1438 51.8046 59.4575 51.8287 58.7845 51.9638C57.5464 52.2123 56.4092 52.8256 55.5166 53.7262C54.9396 54.3084 54.4817 54.9937 54.1635 55.7429L46.3374 53.9474ZM32.6767 68.8968C32.1357 68.8968 31.6069 69.0587 31.157 69.362C30.7072 69.6653 30.3566 70.0963 30.1496 70.6007C29.9426 71.1049 29.8884 71.66 29.994 72.1953C30.0995 72.7307 30.36 73.2225 30.7425 73.6085C31.1251 73.9945 31.6125 74.2573 32.1431 74.3638C32.6737 74.4703 33.2236 74.4157 33.7235 74.2067C34.2232 73.9978 34.6505 73.6441 34.9511 73.1902C35.2515 72.7364 35.412 72.2027 35.412 71.6568C35.412 70.9248 35.1238 70.2228 34.6108 69.7052C34.0979 69.1877 33.4021 68.8968 32.6767 68.8968ZM38.451 52.1027C38.9008 51.7995 39.4297 51.6377 39.9707 51.6377C40.6961 51.6377 41.3919 51.9284 41.9049 52.4461C42.4179 52.9636 42.706 53.6657 42.706 54.3977C42.706 54.9435 42.5456 55.4771 42.245 55.931C41.9444 56.3849 41.5173 56.7387 41.0174 56.9475C40.5177 57.1564 39.9677 57.2111 39.4371 57.1047C38.9064 56.9981 38.4191 56.7352 38.0366 56.3493C37.6541 55.9633 37.3935 55.4714 37.288 54.9361C37.1824 54.4007 37.2365 53.8458 37.4436 53.3414C37.6507 52.8372 38.0012 52.406 38.451 52.1027ZM60.0296 55.52C59.4887 55.52 58.9598 55.6819 58.51 55.9851C58.0602 56.2884 57.7095 56.7195 57.5026 57.2238C57.2955 57.7282 57.2414 58.2831 57.3468 58.8185C57.4524 59.3538 57.7129 59.8456 58.0955 60.2316C58.478 60.6176 58.9654 60.8805 59.4959 60.987C60.0266 61.0934 60.5765 61.0388 61.0764 60.8298C61.5761 60.6211 62.0034 60.2672 62.304 59.8133C62.6045 59.3595 62.7649 58.8258 62.7649 58.28C62.7649 57.5479 62.4767 56.8459 61.9637 56.3284C61.4509 55.8108 60.755 55.52 60.0296 55.52ZM65.8139 36.6595C66.2616 36.3601 66.7866 36.2003 67.3237 36.2C67.6906 36.1997 68.054 36.2741 68.3919 36.4185C68.7299 36.5629 69.0356 36.7745 69.2908 37.0406C69.546 37.3068 69.7455 37.622 69.8775 37.9675C70.0095 38.3131 70.0711 38.6819 70.059 39.052C70.041 39.5936 69.8654 40.1178 69.5543 40.5594C69.243 41.0012 68.8099 41.3405 68.3088 41.5354C67.8077 41.7302 67.2608 41.7719 66.7363 41.6553C66.2119 41.5387 65.7331 41.2687 65.3596 40.8793C64.9861 40.49 64.7344 39.9982 64.6361 39.4655C64.5378 38.9328 64.597 38.3826 64.8064 37.8836C65.0159 37.3846 65.3663 36.9589 65.8139 36.6595Z" fill="white"/>
</svg>
