<svg width="100" height="101" viewBox="0 0 100 101" fill="none" xmlns="http://www.w3.org/2000/svg">
<path fill-rule="evenodd" clip-rule="evenodd" d="M16.5883 63.1096V62.7718C16.6162 52.8855 20.5325 43.3947 27.5136 36.2953C34.4948 29.1959 43.997 25.0407 54.0224 24.7034C64.0477 24.3661 73.8153 27.873 81.2714 34.4868C88.3066 40.7272 92.7667 49.2748 93.8459 58.5038C94.2013 58.6406 94.5313 58.8358 94.8217 59.082C95.1942 59.3977 95.4924 59.7895 95.6958 60.2301C95.8993 60.6708 96.0031 61.1498 95.9999 61.6339V69.5241C95.9868 70.3688 95.6511 71.1776 95.0597 71.789C94.4684 72.4005 93.6648 72.7697 92.8094 72.823H92.5353L91.3218 72.9194L87.9942 73.2281H87.6419C84.0529 73.748 80.4211 73.9224 76.7979 73.749C74.3727 73.188 72.0213 72.3528 69.7904 71.2604C65.823 69.3609 61.5858 68.0666 57.224 67.4214C50.5688 66.9198 37.8849 68.4052 32.2476 72.4371C28.7853 74.59 24.8665 75.9272 20.7955 76.3456L20.7966 76.3531C19.0505 76.5752 17.2917 76.6847 15.5312 76.6811C11.3424 76.6811 7.21227 75.9287 5.07871 73.8259C4.67344 73.4597 4.36656 73.0002 4.18553 72.4885C4.00449 71.9767 3.95494 71.4288 4.0413 70.8936C4.51107 68.4436 7.70162 67.0353 12.1449 65.1062C13.7141 64.4721 15.1952 63.8132 16.5883 63.1096ZM21.9908 64.3614C25.2685 66.3762 29.0481 67.4917 32.9351 67.5716C40.0117 64.238 51.1483 63.0516 57.5567 63.4859C62.3615 64.1949 67.0242 65.6399 71.3759 67.7686C73.3017 68.7174 75.3136 69.4859 77.3851 70.0643C80.6571 70.1628 83.9316 69.982 87.1721 69.5241H87.5049L87.6897 69.5056L87.6903 69.5055L87.6932 69.5052C88.7832 69.3959 89.8546 69.2885 90.8911 69.2155H91.9873V62.2513H91.5762L88.0529 62.5792L87.2697 62.6473V62.8877C87.2697 63.7593 86.9197 64.5955 86.2963 65.2136C85.6727 65.8316 84.8264 66.1814 83.9421 66.1865H76.1125C75.2282 66.1814 74.3819 65.8316 73.7584 65.2136C73.1349 64.5955 72.785 63.7593 72.785 62.8877V62.295C72.0543 62.0397 71.2703 61.7445 70.4165 61.4217C65.6646 59.2988 60.5032 58.2131 55.2859 58.2386C45.7729 58.7981 41.1535 59.3382 37.6693 60.3221L36.5732 56.6182C40.488 55.5378 45.2249 54.9591 55.0706 54.3996C60.8411 54.3233 66.5592 55.4886 71.8258 57.8142C72.1676 57.948 72.4991 58.0754 72.8189 58.1954C72.9207 57.4985 73.2485 56.8476 73.7595 56.3439C74.3837 55.7288 75.23 55.3833 76.1125 55.3833H78.0844C75.9428 50.1842 72.3609 45.6611 67.7245 42.3455C62.3734 38.5188 55.9067 36.5072 49.2964 36.6128C43.6402 36.5979 38.0813 38.0625 33.1871 40.857C29.7203 43.4529 26.9069 46.8011 24.9652 50.6419C23.0235 54.4826 22.0057 58.7125 21.9908 63.0036V64.3614ZM27.2721 70.6732C24.0912 69.8827 21.0807 68.4895 18.4153 66.5569C16.8884 67.3285 15.2704 68.0411 13.7891 68.6558C11.8763 69.4036 10.03 70.3069 8.26926 71.3566C10.0232 72.5666 14.4158 73.2795 20.1915 72.5051L20.1901 72.495C22.6414 72.267 25.0324 71.6498 27.2721 70.6732ZM87.7202 58.7402L87.2697 58.7767V58.6629C87.2697 57.7931 86.9191 56.9589 86.2951 56.3439C85.671 55.7288 84.8246 55.3833 83.9421 55.3833H82.2546C79.9333 48.9596 75.6988 43.3611 70.0892 39.3305C64.0735 35.0081 56.7993 32.7213 49.3552 32.8125C42.9578 32.7991 36.6731 34.4708 31.1514 37.6547L31.021 37.7446C37.2167 31.81 45.4434 28.3446 54.1088 28.0517C63.2077 27.7441 72.0674 30.9589 78.7917 37.0079C85.0417 42.6303 88.9855 50.2861 89.9263 58.5314L87.7202 58.7402ZM76.6997 62.3282H83.3549V59.3188H76.6997V62.3282Z" fill="white"/>
</svg>
