<svg width="100" height="100" viewBox="0 0 100 100" fill="none" xmlns="http://www.w3.org/2000/svg">
<path fill-rule="evenodd" clip-rule="evenodd" d="M64.72 17.6674C63.4819 14.8017 61.4321 12.3611 58.8233 10.6464C56.2146 8.93178 53.161 8.01812 50.0392 8.01812C46.9173 8.01812 43.8637 8.93178 41.255 10.6464C38.6462 12.3611 36.5964 14.8017 35.3583 17.6674L31.7566 16.1211C33.2843 12.526 35.836 9.45989 39.094 7.30457C42.3519 5.14924 46.1719 4 50.0783 4C53.9847 4 57.8047 5.14924 61.0626 7.30457C64.3205 9.45989 66.8722 12.526 68.4 16.1211L64.72 17.6674ZM55.1652 17.1497C56.6478 18.2851 57.7149 19.8772 58.2016 21.68L61.9795 20.6426C61.2809 17.9984 59.7269 15.6597 57.56 13.9911C55.3931 12.3224 52.7349 11.4175 49.9999 11.4175C47.2649 11.4175 44.6067 12.3224 42.4398 13.9911C40.2729 15.6597 38.7189 17.9984 38.0203 20.6426L41.7982 21.68C42.2849 19.8772 43.352 18.2851 44.8346 17.1497C46.3172 16.0144 48.1325 15.3992 49.9999 15.3992C51.8673 15.3992 53.6826 16.0144 55.1652 17.1497ZM5.95745 73.98H94.0426C94.5617 73.98 95.0595 73.7738 95.4267 73.4067C95.7938 73.0396 96 72.5417 96 72.0226V27.9826C96 27.4635 95.7938 26.9657 95.4267 26.5986C95.0595 26.2315 94.5617 26.0253 94.0426 26.0253H5.95745C5.4383 26.0253 4.94042 26.2315 4.57332 26.5986C4.20623 26.9657 4 27.4635 4 27.9826V72.0226C4 72.5417 4.20623 73.0396 4.57332 73.4067C4.94042 73.7738 5.4383 73.98 5.95745 73.98ZM92.0851 70.0653H33.6163V51.0205L24.0746 41.4956C24.245 41.0159 24.3378 40.4996 24.3378 39.9616C24.3378 37.432 22.2871 35.3814 19.7573 35.3814C17.2276 35.3814 15.1769 37.432 15.1769 39.9616C15.1769 42.4912 17.2276 44.5418 19.7573 44.5418C20.3029 44.5418 20.8262 44.4463 21.3115 44.2714L29.7014 52.6451V70.0653H18.9352V60.5647C20.4858 59.8308 21.5584 58.2519 21.5584 56.4226C21.5584 53.893 19.5077 51.8424 16.978 51.8424C14.4483 51.8424 12.3975 53.893 12.3975 56.4226C12.3975 58.2518 13.4699 59.8305 15.0203 60.5645V70.0653H7.91489V29.9399H31.5332L31.5805 38.0237L41.1033 47.546C40.9323 48.0263 40.8391 48.5435 40.8391 49.0826C40.8391 51.6121 42.8899 53.6627 45.4196 53.6627C47.9493 53.6627 50 51.6121 50 49.0826C50 46.553 47.9493 44.5024 45.4196 44.5024C44.874 44.5024 44.3508 44.5977 43.8657 44.7727L35.4758 36.3991L35.4459 29.9399H92.0851V59.065H59.6426C58.9085 57.5147 57.3297 56.4424 55.5003 56.4424C52.9706 56.4424 50.9199 58.493 50.9199 61.0225C50.9199 63.5521 52.9706 65.6027 55.5003 65.6027C57.3299 65.6027 58.9088 64.5302 59.6428 62.9797H92.0851V70.0653ZM42.4497 85.9832C44.6168 87.6403 47.2717 88.5333 49.9999 88.523C52.7281 88.5333 55.3829 87.6403 57.5501 85.9832C59.7173 84.3261 61.2747 81.9981 61.9795 79.3626L58.2016 78.3644C57.7149 80.1671 56.6478 81.7593 55.1652 82.8946C53.6826 84.0299 51.8673 84.6452 49.9999 84.6452C48.1325 84.6452 46.3172 84.0299 44.8346 82.8946C43.352 81.7593 42.2849 80.1671 41.7982 78.3644L38.0203 79.3626C38.725 81.9981 40.2825 84.3261 42.4497 85.9832ZM49.9999 96C46.0935 96.003 42.2728 94.8555 39.0145 92.7009C35.7561 90.5462 33.2046 87.4797 31.6782 83.8841L35.2799 82.3378C36.518 85.2035 38.5678 87.6441 41.1766 89.3587C43.7853 91.0735 46.8389 91.9871 49.9608 91.9871C53.0826 91.9871 56.1362 91.0735 58.7449 89.3587C61.3537 87.6441 63.4035 85.2035 64.6416 82.3378L68.2433 83.8841C66.7222 87.4675 64.1827 90.5256 60.9397 92.6793C57.6968 94.833 53.893 95.9877 49.9999 96ZM73.7243 51.9599H88.6597V37.045H73.7243V42.5451H66.063C65.3291 40.9948 63.7502 39.9224 61.9209 39.9224C59.3911 39.9224 57.3404 41.973 57.3404 44.5026C57.3404 47.0322 59.3911 49.0828 61.9209 49.0828C63.7503 49.0828 65.3293 48.0103 66.0632 46.4598H73.7243V51.9599ZM84.7448 48.0452H77.6392V40.9596H84.7448V48.0452Z" fill="white"/>
</svg>
