<svg width="100" height="100" viewBox="0 0 100 100" fill="none" xmlns="http://www.w3.org/2000/svg">
<path fill-rule="evenodd" clip-rule="evenodd" d="M50 96C40.9021 96 32.0084 93.3022 24.4438 88.2476C16.8791 83.1931 10.9832 76.0089 7.50156 67.6034C4.01993 59.198 3.10898 49.949 4.8839 41.0259C6.65882 32.1028 11.0399 23.9064 17.4731 17.4731C23.9064 11.0399 32.1028 6.65882 41.0259 4.8839C49.949 3.10898 59.198 4.01993 67.6034 7.50156C76.0089 10.9832 83.1931 16.8791 88.2476 24.4438C93.3022 32.0084 96 40.9021 96 50C95.9896 62.1968 91.14 73.891 82.5154 82.5154C73.891 91.14 62.1968 95.9896 50 96ZM50 7.91491C41.6763 7.91491 33.5396 10.3832 26.6188 15.0075C19.6979 19.6319 14.3038 26.2047 11.1185 33.8947C7.93313 41.5848 7.09971 50.0467 8.72356 58.2104C10.3474 66.3741 14.3557 73.873 20.2413 79.7587C26.1271 85.6444 33.626 89.6526 41.7896 91.2765C49.9533 92.9004 58.4153 92.0669 66.1053 88.8815C73.7953 85.6963 80.3681 80.3022 84.9925 73.3812C89.6169 66.4604 92.0851 58.3237 92.0851 50C92.0747 38.8416 87.6375 28.1431 79.7472 20.2528C71.857 12.3626 61.1585 7.92528 50 7.91491ZM27.9787 73.9789H21.3626V70.064H26.0213V33.5968H21.3626V29.6819H27.9787C28.4978 29.6819 28.9957 29.8881 29.3628 30.2552C29.73 30.6224 29.9362 31.1202 29.9362 31.6393V72.0215C29.9362 72.5407 29.73 73.0386 29.3628 73.4057C28.9957 73.7727 28.4978 73.9789 27.9787 73.9789ZM64.6809 70.3183H73.8613C74.3804 70.3183 74.8783 70.1121 75.2454 69.745C75.6125 69.3778 75.8187 68.88 75.8187 68.3609V64.7983H81.2017C81.4587 64.7983 81.7133 64.7477 81.9508 64.6493C82.1883 64.5509 82.4041 64.4067 82.5858 64.225C82.7676 64.0432 82.9118 63.8274 83.0102 63.59C83.1086 63.3524 83.1591 63.0979 83.1591 62.8409V35.3191C83.1591 34.8 82.9529 34.3022 82.5858 33.935C82.2187 33.5679 81.7208 33.3617 81.2017 33.3617H35.3191C34.8 33.3617 34.3022 33.5679 33.935 33.935C33.5679 34.3022 33.3617 34.8 33.3617 35.3191V62.8409C33.3617 63.36 33.5679 63.8578 33.935 64.225C34.3022 64.5921 34.8 64.7983 35.3191 64.7983H37.0221V68.3609C37.0221 68.88 37.2283 69.3778 37.5955 69.745C37.9626 70.1121 38.4605 70.3183 38.9796 70.3183H57.3404C57.8595 70.3183 58.3574 70.1121 58.7245 69.745C59.0917 69.3778 59.2979 68.88 59.2979 68.3609V64.7983H62.7234V68.3609C62.7234 68.88 62.9296 69.3778 63.2967 69.745C63.6639 70.1121 64.1617 70.3183 64.6809 70.3183ZM71.9038 66.4034H66.6383V62.8409C66.6383 62.3217 66.4321 61.8239 66.065 61.4567C65.6978 61.0896 65.2 60.8834 64.6809 60.8834H57.3404C56.8213 60.8834 56.3234 61.0896 55.9563 61.4567C55.5892 61.8239 55.383 62.3217 55.383 62.8409V66.4034H40.937V62.8409C40.937 62.3217 40.7308 61.8239 40.3637 61.4567C39.9966 61.0896 39.4987 60.8834 38.9796 60.8834H37.2766V37.2766H79.2443V60.8834H73.8613C73.3422 60.8834 72.8443 61.0896 72.4772 61.4567C72.11 61.8239 71.9038 62.3217 71.9038 62.8409V66.4034ZM70.1812 57.4579H44.4995C43.9803 57.4579 43.4824 57.2517 43.1154 56.8845C42.7482 56.5174 42.542 56.0195 42.542 55.5004V42.6596C42.542 42.1405 42.7482 41.6426 43.1154 41.2755C43.4824 40.9083 43.9803 40.7021 44.4995 40.7021H70.1812C70.7003 40.7021 71.1982 40.9083 71.5653 41.2755C71.9324 41.6426 72.1386 42.1405 72.1386 42.6596V55.5004C72.1386 56.0195 71.9324 56.5174 71.5653 56.8845C71.1982 57.2517 70.7003 57.4579 70.1812 57.4579ZM59.2979 53.543H68.2237V44.617H59.2979V53.543ZM55.383 53.543V44.617H46.4569V53.543H55.383Z" fill="white"/>
</svg>
