<svg width="100" height="100" viewBox="0 0 100 100" fill="none" xmlns="http://www.w3.org/2000/svg">
<path fill-rule="evenodd" clip-rule="evenodd" d="M13.6974 96H18.9565V92.32H13.7339C13.1818 92.32 12.6523 92.099 12.2619 91.7056C11.8715 91.3122 11.6522 90.7787 11.6522 90.2224V9.7592C11.6569 9.20925 11.8759 8.68319 12.2618 8.29429C12.6478 7.9054 13.1699 7.6848 13.7157 7.68H18.9565V4H13.7339C12.2147 4.00485 10.759 4.61512 9.68475 5.69758C8.61047 6.78004 8.00482 8.24678 8 9.7776V90.2592C8 91.7818 8.60026 93.2419 9.66872 94.3185C10.7372 95.3952 12.1863 96 13.6974 96ZM24.4348 96H90.1739C90.6582 96 91.1227 95.8062 91.4651 95.4611C91.8076 95.116 92 94.648 92 94.16V5.84C92 5.352 91.8076 4.88399 91.4651 4.53892C91.1227 4.19386 90.6582 4 90.1739 4H24.4348C23.9505 4 23.486 4.19386 23.1436 4.53892C22.8011 4.88399 22.6087 5.352 22.6087 5.84V94.16C22.6087 94.648 22.8011 95.116 23.1436 95.4611C23.486 95.8062 23.9505 96 24.4348 96ZM88.3478 92.32H26.2609V7.68H88.3478V92.32ZM82.8696 13.2H33.5652V16.88H82.8696V13.2ZM33.5652 20.56H82.8696V24.24H33.5652V20.56ZM82.8696 77.6H33.5652V81.28H82.8696V77.6ZM33.5652 84.96H82.8696V88.64H33.5652V84.96ZM57.3043 73C55.6261 72.9431 53.9958 72.4211 52.593 71.4912C52.3358 71.325 52.1242 71.0963 51.9775 70.8263C51.8307 70.5563 51.7535 70.2534 51.753 69.9456V63.5976L38.0595 36.248C37.5797 35.6762 37.3088 35.026 37.3088 34.2864C37.3088 28.472 53.9992 28.196 57.3957 28.196C60.7923 28.196 77.4827 28.4904 77.4827 34.2864C77.4827 35.2313 77.0376 36.0305 76.2781 36.7064L62.7826 63.524V69.9456C62.7801 70.2439 62.7056 70.5371 62.5657 70.7999C62.4257 71.0628 62.2244 71.2874 61.9791 71.4544C60.6078 72.4262 58.9803 72.9642 57.3043 73ZM71.0155 39.0317L59.3313 62.2544C59.2009 62.5108 59.1321 62.7944 59.1304 63.0824V68.8416C58.5717 69.1541 57.9433 69.3182 57.3043 69.3182C56.6653 69.3182 56.0369 69.1541 55.4783 68.8416V63.156C55.4765 62.868 55.4077 62.5844 55.2774 62.328L43.5288 38.9775C48.6589 40.2908 55.4052 40.3953 57.3957 40.3953C59.3545 40.3953 65.9182 40.2877 71.0155 39.0317ZM73.3998 34.2929C71.743 35.2863 66.233 36.7153 57.3957 36.7153C48.5392 36.7153 43.0427 35.28 41.381 34.2864C43.0427 33.3112 48.521 31.876 57.3957 31.876C66.2601 31.876 71.7542 33.3079 73.4048 34.283L73.3998 34.2929Z" fill="white"/>
</svg>
