<svg width="100" height="100" viewBox="0 0 100 100" fill="none" xmlns="http://www.w3.org/2000/svg">
<path d="M7.67988 10.2744L21.0935 23.7064L23.7063 21.0936L10.2743 7.68H20.5599V4H5.83988C5.35188 4 4.88387 4.19386 4.5388 4.53892C4.19373 4.88399 3.99988 5.352 3.99988 5.84V20.56H7.67988V10.2744Z" fill="white"/>
<path d="M94.16 4H79.44V7.68H89.7256L76.2936 21.0936L78.9064 23.7064L92.32 10.2744V20.56H96V5.84C96 5.352 95.8061 4.88399 95.4611 4.53892C95.116 4.19386 94.648 4 94.16 4Z" fill="white"/>
<path d="M21.0935 76.2937L7.67988 89.7257V79.4401H3.99988V94.1601C3.99988 94.6481 4.19373 95.1161 4.5388 95.4612C4.88387 95.8062 5.35188 96.0001 5.83988 96.0001H20.5599V92.3201H10.2743L23.7063 78.9065L21.0935 76.2937Z" fill="white"/>
<path d="M92.32 89.7257L78.9064 76.2937L76.2936 78.9065L89.7256 92.3201H79.44V96.0001H94.16C94.648 96.0001 95.116 95.8062 95.4611 95.4612C95.8061 95.1161 96 94.6481 96 94.1601V79.4401H92.32V89.7257Z" fill="white"/>
<path d="M35.4639 23.7616C38.7185 22.3175 42.3392 21.9118 45.8327 22.6C49.3261 23.2882 52.5225 25.0366 54.9863 27.6072C57.1813 29.8374 58.8421 32.5362 59.8439 35.5008C59.9568 35.8127 60.1519 36.0883 60.4086 36.2984C60.6653 36.5084 60.974 36.6452 61.3021 36.6943C61.6302 36.7433 61.9654 36.7027 62.2723 36.5768C62.5792 36.4509 62.8463 36.2444 63.0455 35.9792C63.6042 35.1995 64.3381 34.5619 65.1882 34.1177C66.0383 33.6735 66.9808 33.435 67.9399 33.4216C70.7735 33.4216 74.1959 35.5928 74.5455 41.7016C74.5699 42.1065 74.7275 42.4921 74.9937 42.7982C75.2599 43.1044 75.6198 43.314 76.0175 43.3944C83.1751 44.9032 86.7999 48.9144 86.7999 55.1704C86.7999 61.0952 84.2055 64.6096 78.8511 65.916L79.7159 69.4856C86.6527 67.8112 90.4799 62.7144 90.4799 55.1704C90.4799 47.6264 86.1007 42.2904 78.0967 40.1008C77.1583 32.9616 72.4295 29.7416 67.9399 29.7416C65.8898 29.723 63.8887 30.3685 62.2359 31.5816C61.0828 29.1078 59.5075 26.8538 57.5807 24.9208C54.5967 21.8438 50.7444 19.7511 46.5389 18.9225C42.3335 18.0939 37.9753 18.5689 34.0471 20.284C30.3962 22.0011 27.2955 24.7007 25.0922 28.0805C22.8888 31.4602 21.6699 35.3866 21.5719 39.42C21.5719 39.7512 21.5719 40.0824 21.5719 40.432C18.5057 41.4071 15.8434 43.36 13.9925 45.9918C12.1416 48.6236 11.2039 51.7895 11.3231 55.0048C11.3231 55.3544 11.3231 55.704 11.3231 56.0536C11.5164 59.086 12.6109 61.9916 14.4664 64.3978C16.322 66.8041 18.8538 68.6013 21.7375 69.5592L22.9519 66.0816C20.7556 65.3645 18.8237 64.0074 17.4041 62.1846C15.9845 60.3617 15.142 58.1562 14.9847 55.8512C14.9847 55.5752 14.9847 55.2992 14.9847 55.0048C14.8423 52.325 15.6809 49.6851 17.3437 47.5787C19.0064 45.4723 21.3795 44.0437 24.0191 43.56C24.4239 43.4557 24.7812 43.2166 25.032 42.8822C25.2828 42.5477 25.4123 42.1378 25.3991 41.72C25.3098 41.0057 25.2606 40.287 25.2519 39.5672C25.338 36.2488 26.3365 33.0182 28.138 30.2301C29.9394 27.4419 32.4741 25.2039 35.4639 23.7616Z" fill="white"/>
<path d="M79.3478 59.7887C79.4391 59.512 79.4633 59.2176 79.4185 58.9297C79.3737 58.6418 79.2612 58.3686 79.0902 58.1327C78.9209 57.8949 78.6975 57.7008 78.4383 57.5664C78.1792 57.4321 77.8918 57.3613 77.5998 57.3599H72.0798C71.8847 55.7747 71.1583 54.3024 70.019 53.1831C69.5793 52.7411 69.0537 52.3938 68.4746 52.1628C67.8954 51.9318 67.2751 51.8219 66.6518 51.8399H47.7366C47.2582 50.3495 46.3382 48.4727 44.9214 48.1599H44.5718H37.2118C35.5742 48.1599 34.4886 50.2207 33.9366 51.8399H31.7102C31.0709 51.8119 30.4325 51.915 29.8345 52.1428C29.2364 52.3706 28.6913 52.7184 28.2326 53.1647C27.5522 53.8317 27.0113 54.6275 26.6417 55.5058C26.2721 56.384 26.0811 57.3271 26.0798 58.2799V81.2799C26.0798 81.7679 26.2737 82.2359 26.6188 82.581C26.9638 82.9261 27.4318 83.1199 27.9198 83.1199H70.2398C70.6247 83.1158 70.9986 82.9911 71.3088 82.7633C71.6191 82.5356 71.8502 82.2162 71.9694 81.8503L79.3478 59.7887ZM75.0422 61.0399L72.0798 69.9455V61.0399H75.0422ZM68.3998 79.4399H29.7598V58.2799C29.7403 57.3872 30.0705 56.5222 30.6798 55.8695C30.7861 55.7521 30.9172 55.6598 31.0636 55.5993C31.21 55.5388 31.3681 55.5117 31.5262 55.5199H35.2062C35.6757 55.5208 36.1277 55.3421 36.4698 55.0206C36.8118 54.6991 37.0181 54.2589 37.0462 53.7903C37.228 53.1099 37.4938 52.4547 37.8374 51.8399H43.7438C44.0375 52.4306 44.2777 53.0464 44.4614 53.6799C44.4614 54.1679 44.6553 54.6359 45.0004 54.981C45.3454 55.3261 45.8134 55.5199 46.3014 55.5199H66.6886C66.8259 55.5254 66.9606 55.5593 67.0841 55.6195C67.2076 55.6797 67.3173 55.7648 67.4062 55.8695C68.0391 56.5126 68.3957 57.3776 68.3998 58.2799V79.4399Z" fill="white"/>
</svg>
