<svg width="100" height="100" viewBox="0 0 100 100" fill="none" xmlns="http://www.w3.org/2000/svg">
<path fill-rule="evenodd" clip-rule="evenodd" d="M5.95745 78H94.0426C94.5617 78 95.0595 77.7912 95.4267 77.4194C95.7938 77.0476 96 76.5434 96 76.0177V23.9823C96 23.4566 95.7938 22.9524 95.4267 22.5806C95.0595 22.2088 94.5617 22 94.0426 22H5.95745C5.4383 22 4.94042 22.2088 4.57332 22.5806C4.20623 22.9524 4 23.4566 4 23.9823V76.0177C4 76.5434 4.20623 77.0476 4.57332 77.4194C4.94042 77.7912 5.4383 78 5.95745 78ZM92.0851 74.0354H7.91489V25.9646H92.0851V74.0354ZM37.0417 29.5526H40.9566V70.4276H37.0417V29.5526ZM51.9574 29.5526H48.0426V70.4276H51.9574V29.5526ZM59.063 29.5526H62.9779V70.4276H59.063V29.5526ZM20.6383 59.6636C20.3548 59.6652 20.0743 59.6043 19.8162 59.4852C19.4764 59.326 19.1888 59.0714 18.9876 58.7517C18.7864 58.432 18.68 58.0605 18.6809 57.6813V42.2987C18.6803 41.9217 18.7858 41.5523 18.9851 41.234C19.1845 40.9156 19.4694 40.6614 19.8064 40.5011C20.1434 40.3409 20.5185 40.2813 20.8877 40.3293C21.257 40.3774 21.605 40.531 21.8911 40.7723L31.0128 48.4636C31.2344 48.6497 31.4129 48.8829 31.5353 49.1467C31.6577 49.4106 31.7213 49.6985 31.7213 49.99C31.7213 50.2816 31.6577 50.5695 31.5353 50.8334C31.4129 51.0972 31.2344 51.3304 31.0128 51.5164L21.8911 59.2077C21.5389 59.5032 21.0957 59.6646 20.6383 59.6636ZM22.5957 53.4392L26.6868 49.99L22.5957 46.5408V53.4392ZM78.1088 59.2077C78.4611 59.5032 78.9043 59.6646 79.3616 59.6636C79.6452 59.6652 79.9257 59.6043 80.1837 59.4852C80.5235 59.326 80.8111 59.0714 81.0123 58.7517C81.2135 58.432 81.32 58.0605 81.3191 57.6813V42.2987C81.3197 41.9217 81.2141 41.5523 81.0148 41.234C80.8154 40.9156 80.5305 40.6614 80.1935 40.5011C79.8565 40.3409 79.4815 40.2813 79.1122 40.3293C78.743 40.3774 78.3949 40.531 78.1088 40.7723L68.9871 48.4636C68.7656 48.6497 68.5871 48.8829 68.4646 49.1467C68.3422 49.4106 68.2786 49.6985 68.2786 49.99C68.2786 50.2816 68.3422 50.5695 68.4646 50.8334C68.5871 51.0972 68.7656 51.3304 68.9871 51.5164L78.1088 59.2077ZM77.4042 53.4392L73.3131 49.99L77.4042 46.5408V53.4392Z" fill="white"/>
</svg>
