<svg width="100" height="100" viewBox="0 0 100 100" fill="none" xmlns="http://www.w3.org/2000/svg">
<path fill-rule="evenodd" clip-rule="evenodd" d="M26.551 94C26.2949 93.9997 26.0418 93.9451 25.8085 93.84C25.5753 93.7349 25.3672 93.5816 25.1981 93.3903L18.8846 86.2177C18.5946 85.8907 18.4343 85.47 18.4336 85.0341V80.4078L13.5451 75.5483C13.3761 75.3816 13.2419 75.1833 13.1503 74.9647C13.0587 74.7462 13.0116 74.5119 13.0116 74.2751C13.0116 74.0385 13.0587 73.8041 13.1503 73.5856C13.2419 73.3671 13.3761 73.1687 13.5451 73.002L18.4336 68.1604V66.0625L13.5451 61.203C13.3761 61.0363 13.2419 60.838 13.1503 60.6195C13.0587 60.401 13.0116 60.1666 13.0116 59.9299C13.0116 59.6931 13.0587 59.4588 13.1503 59.2403C13.2419 59.0217 13.3761 58.8234 13.5451 58.6567L18.4336 53.8152V49.4757C14.1323 47.8399 10.4408 44.9291 7.85945 41.1379C5.2781 37.3465 3.93169 32.858 4.00267 28.2805C4.03855 22.3358 6.44859 16.6487 10.7026 12.4704C14.9566 8.29206 20.7061 5.96474 26.6863 6.0004C32.6665 6.03607 38.3875 8.4318 42.5908 12.6606C46.7941 16.8893 49.1353 22.6048 49.0994 28.5495C49.1163 33.0794 47.7444 37.5069 45.1662 41.2422C42.5881 44.9775 38.9262 47.8433 34.6684 49.4578V86.8273C34.6685 87.0864 34.612 87.3422 34.503 87.5775C34.3941 87.8128 34.2351 88.0218 34.0371 88.1901L27.7235 93.5697C27.3968 93.8474 26.981 94 26.551 94ZM22.0414 84.3528L26.7314 89.7323L31.0607 86.0024V48.1846C31.0425 47.7891 31.1565 47.3987 31.3849 47.0743C31.6133 46.75 31.9433 46.5098 32.3234 46.3915C36.6162 45.0175 40.2743 42.1645 42.6384 38.3467C45.0024 34.529 45.9171 29.9974 45.2175 25.5685C44.518 21.1397 42.2502 17.1048 38.8228 14.191C35.3954 11.2772 31.0338 9.67607 26.524 9.67607C22.0141 9.67607 17.6525 11.2772 14.2252 14.191C10.7978 17.1048 8.52999 21.1397 7.83043 25.5685C7.13087 29.9974 8.04553 34.529 10.4096 38.3467C12.7737 42.1645 16.4317 45.0175 20.7245 46.3915C21.1147 46.4999 21.4568 46.7358 21.6957 47.0611C21.9346 47.3863 22.0563 47.7822 22.0414 48.1846V54.5504C22.0427 54.7864 21.9972 55.0203 21.9075 55.2388C21.8177 55.4573 21.6854 55.656 21.5182 55.8235L17.3874 59.9299L21.5182 64.0362C21.6854 64.2038 21.8177 64.4025 21.9075 64.621C21.9972 64.8394 22.0427 65.0734 22.0414 65.3094V68.8957C22.0394 69.366 21.8515 69.8169 21.5182 70.1509L17.3874 74.2751L21.5182 78.3815C21.6854 78.549 21.8177 78.7477 21.9075 78.9662C21.9972 79.1847 22.0427 79.4186 22.0414 79.6546V84.3528ZM26.551 30.3426C24.9456 30.3426 23.3761 29.8694 22.0412 28.9827C20.7063 28.096 19.6659 26.8358 19.0515 25.3613C18.4371 23.8869 18.2764 22.2644 18.5896 20.6992C18.9028 19.1339 19.6759 17.6961 20.8112 16.5675C21.9464 15.4391 23.3928 14.6705 24.9674 14.3592C26.542 14.0478 28.1742 14.2076 29.6574 14.8184C31.1407 15.4291 32.4085 16.4633 33.3004 17.7903C34.1924 19.1173 34.6684 20.6774 34.6684 22.2734C34.6637 24.412 33.8069 26.4618 32.2856 27.9739C30.7644 29.4862 28.7024 30.3379 26.551 30.3426ZM26.551 17.7904C25.6591 17.7904 24.7872 18.0534 24.0456 18.546C23.304 19.0386 22.726 19.7387 22.3846 20.5578C22.0433 21.377 21.954 22.2783 22.128 23.1479C22.302 24.0175 22.7315 24.8164 23.3622 25.4432C23.9929 26.0702 24.7964 26.4971 25.6712 26.6701C26.546 26.8431 27.4528 26.7543 28.2768 26.415C29.1008 26.0758 29.8052 25.5012 30.3007 24.764C30.7962 24.0267 31.0607 23.16 31.0607 22.2734C31.0607 21.0845 30.5856 19.9442 29.7399 19.1035C28.8941 18.2628 27.7471 17.7904 26.551 17.7904ZM92.5546 81.4478H38.2761V77.8615H92.3922V38.4118H52.7071V34.8255H92.5546C93.4574 34.8207 94.3256 35.1702 94.9707 35.798C95.6159 36.4259 95.9857 37.2814 95.9999 38.1787V78.0947C95.9857 78.992 95.6159 79.8475 94.9707 80.4753C94.3256 81.1032 93.4574 81.4527 92.5546 81.4478ZM40.581 63.2038C41.7676 63.9919 43.1627 64.4126 44.5897 64.4126C46.5034 64.4126 48.3387 63.6569 49.6919 62.3118C51.045 60.9667 51.8052 59.1423 51.8052 57.2399C51.8052 55.8213 51.382 54.4346 50.5892 53.255C49.7964 52.0755 48.6695 51.1562 47.351 50.6133C46.0325 50.0704 44.5817 49.9284 43.1821 50.2051C41.7824 50.4819 40.4967 51.165 39.4876 52.1681C38.4785 53.1712 37.7913 54.4493 37.5129 55.8406C37.2345 57.232 37.3774 58.6742 37.9235 59.9847C38.4696 61.2954 39.3945 62.4156 40.581 63.2038ZM42.5854 54.258C43.1787 53.864 43.8762 53.6536 44.5897 53.6536C45.5466 53.6536 46.4642 54.0315 47.1408 54.704C47.8174 55.3766 48.1975 56.2888 48.1975 57.2399C48.1975 57.9492 47.9859 58.6427 47.5895 59.2324C47.1931 59.8221 46.6296 60.2819 45.9704 60.5533C45.3111 60.8247 44.5857 60.8957 43.8859 60.7573C43.1861 60.619 42.5432 60.2774 42.0387 59.7759C41.5341 59.2743 41.1905 58.6353 41.0513 57.9396C40.9121 57.2439 40.9836 56.5228 41.2566 55.8675C41.5297 55.2122 41.9921 54.6521 42.5854 54.258ZM62.6283 64.4126C61.2012 64.4126 59.8062 63.9919 58.6196 63.2038C57.433 62.4156 56.5082 61.2954 55.9621 59.9847C55.416 58.6742 55.2731 57.232 55.5515 55.8406C55.8299 54.4493 56.5171 53.1712 57.5262 52.1681C58.5353 51.165 59.821 50.4819 61.2206 50.2051C62.6203 49.9284 64.0711 50.0704 65.3896 50.6133C66.708 51.1562 67.8349 52.0755 68.6278 53.255C69.4206 54.4346 69.8438 55.8213 69.8438 57.2399C69.8438 59.1423 69.0836 60.9667 67.7304 62.3118C66.3773 63.6569 64.542 64.4126 62.6283 64.4126ZM62.6283 53.6536C61.9148 53.6536 61.2173 53.864 60.624 54.258C60.0307 54.6521 59.5683 55.2122 59.2952 55.8675C59.0221 56.5228 58.9507 57.2439 59.0899 57.9396C59.2291 58.6353 59.5727 59.2743 60.0773 59.7759C60.5818 60.2774 61.2246 60.619 61.9245 60.7573C62.6243 60.8957 63.3497 60.8247 64.0089 60.5533C64.6682 60.2819 65.2316 59.8221 65.628 59.2324C66.0245 58.6427 66.2361 57.9492 66.2361 57.2399C66.2361 56.2888 65.856 55.3766 65.1794 54.704C64.5028 54.0315 63.5852 53.6536 62.6283 53.6536ZM38.2761 68.8954H50.9032V72.4817H38.2761V68.8954ZM68.942 68.8954H56.3149V72.4817H68.942V68.8954ZM74.3535 68.8954H86.9806V72.4817H74.3535V68.8954Z" fill="white"/>
</svg>
