<svg width="100" height="100" viewBox="0 0 100 100" fill="none" xmlns="http://www.w3.org/2000/svg">
<path d="M31.3591 40L28.7954 42.6592L34.0672 48.1273H5V51.8727H34.0672L28.7954 57.3408L31.3591 60L41 50L31.3591 40Z" fill="white"/>
<path d="M95 48.1273H65.9328L71.2046 42.6592L68.6409 40L59 50L68.6409 60L71.2046 57.3408L65.9328 51.8727H95V48.1273Z" fill="white"/>
<path d="M48.1273 10.9328V40H51.8727V10.9328L57.3408 16.2046L60 13.6409L50 4L40 13.6409L42.6592 16.2046L48.1273 10.9328Z" fill="white"/>
<path d="M51.8727 89.0672V60H48.1273V89.0672L42.6592 83.7954L40 86.3591L50 96L60 86.3591L57.3408 83.7954L51.8727 89.0672Z" fill="white"/>
</svg>
