<svg width="100" height="100" viewBox="0 0 100 100" fill="none" xmlns="http://www.w3.org/2000/svg">
<path fill-rule="evenodd" clip-rule="evenodd" d="M14.9442 24.4358H85.0357C85.4123 24.4295 85.7793 24.3155 86.0927 24.1073C86.4062 23.899 86.653 23.6054 86.8037 23.2613C86.9472 22.9467 87.0046 22.6 86.9701 22.2562C86.9357 21.9124 86.8104 21.5839 86.6072 21.3038L74.1526 4.78298C73.9696 4.53987 73.7323 4.34255 73.4596 4.20665C73.1868 4.07075 72.886 4 72.5811 4H27.3988C27.0938 4 26.7931 4.07075 26.5203 4.20665C26.2476 4.34255 26.0103 4.53987 25.8273 4.78298L13.3727 21.3821C13.1695 21.6622 13.0443 21.9907 13.0098 22.3345C12.9752 22.6783 13.0327 23.025 13.1762 23.3396C13.3382 23.669 13.5899 23.9465 13.9025 24.1403C14.2151 24.3341 14.5761 24.4365 14.9442 24.4358ZM81.1068 20.5209H18.8731L28.381 7.9149H71.5988L81.1068 20.5209ZM15.062 96H85.0356C85.5566 96 86.0563 95.7938 86.4247 95.4267C86.793 95.0595 87 94.5617 87 94.0425V29.8187C87 29.2994 86.793 28.8016 86.4247 28.4345C86.0563 28.0674 85.5566 27.8612 85.0356 27.8612H15.062C14.541 27.8612 14.0414 28.0674 13.673 28.4345C13.3046 28.8016 13.0976 29.2994 13.0976 29.8187V94.0425C13.0976 94.5617 13.3046 95.0595 13.673 95.4267C14.0414 95.7938 14.541 96 15.062 96ZM83.0711 92.0851H17.0265V31.7761H83.0711V92.0851Z" fill="white"/>
</svg>
