<svg width="100" height="101" viewBox="0 0 100 101" fill="none" xmlns="http://www.w3.org/2000/svg">
<path fill-rule="evenodd" clip-rule="evenodd" d="M85.0236 73.6351L93.4498 82.1156C95.0843 83.7525 96.0018 85.9716 96 88.2846C95.9983 90.5978 95.0777 92.8155 93.4407 94.4501C91.8037 96.0844 89.5842 97.0017 87.2709 97C84.9575 96.9982 82.7395 96.0777 81.105 94.4408L72.6236 85.9603C62.8744 92.3873 50.976 94.6909 39.5322 92.3673C28.0885 90.0436 18.0313 83.2817 11.5615 73.5615L14.6155 71.5196C20.474 80.3209 29.5445 86.4805 39.8866 88.6807C50.2288 90.8809 61.0214 88.9472 69.956 83.2929L63.2039 76.5417C59.4986 78.6117 55.3996 79.88 51.1726 80.2639C46.9456 80.6479 42.685 80.1391 38.6674 78.7704C34.6497 77.4019 30.9646 75.204 27.8511 72.3197C24.7377 69.4353 22.2654 65.9287 20.5947 62.0273H7.88192V58.3481H19.2701C18.7443 56.5481 18.4052 54.6988 18.2583 52.8293H4V49.1501H18.1294C18.177 47.2929 18.405 45.4445 18.8102 43.6313H7.67954V39.9522H19.8404C21.2816 36.1032 23.4899 32.587 26.3314 29.6174C29.1727 26.6476 32.5881 24.2863 36.3701 22.6766C40.152 21.0667 44.2217 20.2422 48.332 20.253C52.4423 20.2638 56.5076 21.1095 60.281 22.7391C64.0544 24.3686 67.4574 26.7478 70.2833 29.7323C73.1092 32.7169 75.2991 36.2445 76.72 40.101C78.141 43.9575 78.7633 48.0626 78.5493 52.1669C78.3354 56.2712 77.2895 60.2893 75.4753 63.9772L82.448 70.9677C86.6591 64.4649 88.8899 56.8787 88.8688 49.1317C88.8574 39.9645 85.7337 31.0727 80.0091 23.9121C74.2845 16.7515 66.2983 11.7464 57.3578 9.71611C48.4172 7.68584 39.0523 8.75074 30.7961 12.7365C22.5398 16.7222 15.8814 23.3926 11.911 31.6556L8.59943 30.0737C12.2108 22.5967 17.8479 16.2831 24.8697 11.8506C31.8916 7.41812 40.0163 5.04462 48.3202 5C56.3083 5.00701 64.145 7.1807 70.9951 11.2895C77.8453 15.3983 83.4524 21.2883 87.219 28.3319C90.9857 35.3755 92.7709 43.3089 92.3843 51.287C91.9977 59.2649 89.4538 66.9885 85.0236 73.6351ZM33.6365 72.2136C38.0208 75.1433 43.1757 76.7072 48.449 76.7072C55.513 76.6974 62.2852 73.8885 67.282 68.8957C72.2788 63.9029 75.0927 57.1333 75.1073 50.0699C75.1109 44.7972 73.5506 39.6418 70.6235 35.2558C67.6965 30.8699 63.5342 27.4506 58.6634 25.4302C53.7925 23.4099 48.4319 22.8794 43.2594 23.9059C38.087 24.9322 33.3353 27.4695 29.6052 31.1966C25.8751 34.9238 23.3343 39.6733 22.3042 44.8445C21.274 50.0157 21.801 55.3762 23.8182 60.2479C25.8352 65.1197 29.2521 69.2838 33.6365 72.2136ZM87.213 93.2435C88.5375 93.2435 89.8105 92.7297 90.7638 91.8102L90.7822 91.7183C91.2505 91.2532 91.6222 90.7001 91.876 90.0906C92.1296 89.4814 92.2601 88.8278 92.2601 88.1678C92.2601 87.5077 92.1296 86.8543 91.876 86.2449C91.6222 85.6356 91.2505 85.0825 90.7822 84.6174L73.3778 67.1229C71.4641 69.958 69.0812 72.4465 66.3316 74.4812L83.6622 91.8102C84.6156 92.7297 85.8885 93.2435 87.213 93.2435ZM61.9527 48.6166C63.4393 49.6716 64.6302 51.0905 65.4115 52.7373C65.4855 53.0302 65.4975 53.3352 65.4468 53.633C65.396 53.9307 65.2839 54.2147 65.1172 54.4665C64.8833 54.8699 64.5339 55.1941 64.1143 55.3973C63.6947 55.6006 63.2238 55.6737 62.7622 55.607C62.1437 55.6035 61.527 55.5356 60.9225 55.4046L59.9657 62.5607C59.8922 63.9772 58.8435 65.0258 56.8382 65.8168C56.0942 66.1006 55.3321 66.3341 54.5568 66.5159C52.2235 67.019 49.8422 67.2657 47.4554 67.2516C46.1859 67.2516 35.184 67.1229 34.9448 62.5607L31.8724 39.6578C31.8622 39.5785 31.8622 39.498 31.8724 39.4187V39.1611C31.864 39.0754 31.864 38.9892 31.8724 38.9035C31.8724 34.5437 41.4576 32.9249 47.5105 32.9249C53.5633 32.9249 63.1669 34.5437 63.1669 38.9035V39.1611V39.4187V39.6578L61.9527 48.6166ZM50.0309 47.1817C52.7354 48.4878 55.5871 49.7203 57.9421 50.6218L58.9539 42.8219C51.4545 44.8576 43.5481 44.8576 36.0487 42.8219L38.6244 61.972C41.4113 63.2017 44.451 63.7504 47.4921 63.5724C49.5945 63.5898 51.6925 63.3739 53.7474 62.9287C54.3727 62.7959 54.9877 62.6177 55.5871 62.3951C55.8842 62.2861 56.168 62.1443 56.4334 61.972L57.4453 54.3929C54.3646 53.2603 51.349 51.9585 48.412 50.4929C48.1309 50.6043 47.8312 50.6606 47.5289 50.6585C47.0457 50.6566 46.5724 50.5215 46.1608 50.2682C45.7493 50.0149 45.4156 49.6531 45.196 49.2227C44.9766 48.7922 44.8799 48.3096 44.9167 47.8278C44.9534 47.346 45.1222 46.8837 45.4045 46.4916C45.6867 46.0993 46.0715 45.7925 46.5168 45.6044C46.9619 45.4165 47.4502 45.3548 47.9282 45.4262C48.4062 45.4975 48.8552 45.6991 49.2261 46.0087C49.5971 46.3184 49.8756 46.7243 50.0309 47.1817ZM35.9383 38.83C39.633 40.2385 43.5797 40.8649 47.5289 40.6695C51.4782 40.8671 55.4254 40.2406 59.1195 38.83C55.4878 37.1746 51.5166 36.3994 47.5289 36.5673C43.5412 36.3994 39.57 37.1746 35.9383 38.83Z" fill="white"/>
</svg>
