<svg width="100" height="101" viewBox="0 0 100 101" fill="none" xmlns="http://www.w3.org/2000/svg">
<path fill-rule="evenodd" clip-rule="evenodd" d="M48.0489 67.6572H22.3084C12.2327 67.6572 4.52892 60.8886 4.01411 51.5864V50.3103C3.85757 46.451 5.00702 42.6524 7.27461 39.5351C9.54221 36.4178 12.7939 34.1663 16.4983 33.1485V31.669C16.591 26.6902 18.1468 21.8505 20.9694 17.7595C23.7921 13.6685 27.7554 10.5094 32.36 8.68015C36.9646 6.85089 42.0045 6.43337 46.8446 7.48018C51.6848 8.527 56.1086 10.9913 59.5586 14.5626C61.9648 16.958 63.9206 19.771 65.3319 22.8661C67.3491 21.2361 69.8597 20.3486 72.4474 20.351C77.7792 20.351 83.479 24.1792 84.4167 32.7047C88.9476 33.6062 93.0352 36.0404 96 39.6027L93.1133 41.8773C90.3603 38.7091 86.5712 36.6363 82.431 36.0335C82.0172 35.9666 81.6385 35.7598 81.3577 35.4471C81.0768 35.1343 80.9106 34.7343 80.8866 34.3136C80.4637 27.2306 76.3451 24.0498 72.4474 24.0498C71.2233 24.0611 70.0186 24.3577 68.9276 24.9159C67.8367 25.4742 66.889 26.2792 66.1593 27.2676C65.9617 27.5324 65.6972 27.7391 65.3931 27.8658C65.0891 27.9927 64.7569 28.0352 64.4309 27.9889C64.1037 27.9385 63.7959 27.8004 63.5404 27.5887C63.2847 27.3772 63.0906 27.1001 62.9785 26.7867C61.7197 23.1916 59.6782 19.925 57.003 17.2257C54.066 14.1863 50.3029 12.0858 46.1849 11.1871C42.0668 10.2883 37.7767 10.6313 33.8515 12.173C29.9263 13.7148 26.5404 16.3868 24.1176 19.8546C21.6947 23.3224 20.3428 27.432 20.2307 31.669C20.2333 32.5525 20.2824 33.4352 20.3778 34.3136C20.4221 34.7549 20.3072 35.1975 20.054 35.5608C19.8009 35.924 19.4263 36.1837 18.9989 36.2923C14.8252 37.328 7.78327 40.5458 7.78327 50.3103C7.76491 50.6429 7.76491 50.9764 7.78327 51.309C8.18777 58.7063 14.3471 63.9584 22.4922 63.9584H48.2328L48.0489 67.6572ZM73.7895 94.9165C51.9836 94.9165 51.7261 70.2649 51.7261 70.0244V47.518C51.7249 47.14 51.8388 46.771 52.0525 46.4601C52.2661 46.1493 52.5694 45.9119 52.9213 45.7795L73.1459 38.2527C73.5624 38.1047 74.0166 38.1047 74.4331 38.2527L94.6577 45.7795C95.0096 45.9119 95.3129 46.1493 95.5266 46.4601C95.7402 46.771 95.8541 47.14 95.8529 47.518V71.4114C95.8529 71.6519 95.5954 94.9165 73.7895 94.9165ZM55.4034 48.8125V70.0244C55.4034 70.8936 55.6607 91.2178 73.7895 91.2178C91.9183 91.2178 92.1756 72.2251 92.1756 71.4114V48.8125L73.7895 41.9514L55.4034 48.8125ZM59.1012 72.5407C59.4069 73.9536 62.4452 87.9997 73.7895 87.9997C85.1339 87.9997 88.1722 73.9536 88.4778 72.5407C88.4873 72.4971 88.494 72.4656 88.4985 72.4468C88.5076 72.3361 88.5076 72.2247 88.4985 72.1139V52.9548C88.4989 52.5843 88.3886 52.2224 88.1821 51.9158C87.9756 51.6091 87.6823 51.3719 87.3401 51.2349L74.4699 46.1307C74.033 45.9557 73.5461 45.9557 73.1093 46.1307L60.239 51.2349C59.8969 51.3719 59.6036 51.6091 59.397 51.9158C59.1904 52.2224 59.0803 52.5843 59.0807 52.9548V72.1139C59.0625 72.2242 59.0625 72.3366 59.0807 72.4468C59.0851 72.4656 59.0919 72.4971 59.1012 72.5407ZM73.7895 84.3011C65.6812 84.3011 63.0521 73.3344 62.7578 71.929V54.2124L73.7895 49.8479L84.8212 54.2124V71.929C84.527 73.353 81.8978 84.3011 73.7895 84.3011Z" fill="white"/>
</svg>
