<svg width="100" height="100" viewBox="0 0 100 100" fill="none" xmlns="http://www.w3.org/2000/svg">
<path fill-rule="evenodd" clip-rule="evenodd" d="M83.0425 95.0022H16.9575C16.4383 95.0022 15.9404 94.796 15.5733 94.4289C15.2062 94.0618 15 93.5639 15 93.0447V4.95749C15 4.43833 15.2062 3.94044 15.5733 3.57334C15.9404 3.20624 16.4383 3 16.9575 3H83.0425C83.5617 3 84.0596 3.20624 84.4267 3.57334C84.7938 3.94044 85 4.43833 85 4.95749V93.0447C85 93.5639 84.7938 94.0618 84.4267 94.4289C84.0596 94.796 83.5617 95.0022 83.0425 95.0022ZM18.915 91.0872H81.085V6.91499H18.915V91.0872ZM37.1197 28.9562H26.1186C25.5995 28.9562 25.1016 28.75 24.7345 28.3829C24.3674 28.0158 24.1611 27.5179 24.1611 26.9987V15.978C24.1611 15.4588 24.3674 14.9609 24.7345 14.5938C25.1016 14.2267 25.5995 14.0205 26.1186 14.0205H37.1197C37.6389 14.0205 38.1368 14.2267 38.5039 14.5938C38.871 14.9609 39.0772 15.4588 39.0772 15.978V26.9987C39.0772 27.5179 38.871 28.0158 38.5039 28.3829C38.1368 28.75 37.6389 28.9562 37.1197 28.9562ZM28.0761 25.0412H35.1623V17.9355H28.0761V25.0412ZM26.1186 54.6386H37.1197C37.6389 54.6386 38.1368 54.4323 38.5039 54.0652C38.871 53.6981 39.0772 53.2002 39.0772 52.6811V41.6604C39.0772 41.1412 38.871 40.6433 38.5039 40.2762C38.1368 39.9091 37.6389 39.7029 37.1197 39.7029H26.1186C25.5995 39.7029 25.1016 39.9091 24.7345 40.2762C24.3674 40.6433 24.1611 41.1412 24.1611 41.6604V52.6811C24.1611 53.2002 24.3674 53.6981 24.7345 54.0652C25.1016 54.4323 25.5995 54.6386 26.1186 54.6386ZM35.1623 50.7236H28.0761V43.6179H35.1623V50.7236ZM37.1197 80.3211H26.1186C25.5995 80.3211 25.1016 80.1149 24.7345 79.7478C24.3674 79.3807 24.1611 78.8828 24.1611 78.3636V67.3625C24.1611 66.8434 24.3674 66.3455 24.7345 65.9784C25.1016 65.6113 25.5995 65.405 26.1186 65.405H37.1197C37.6389 65.405 38.1368 65.6113 38.5039 65.9784C38.871 66.3455 39.0772 66.8434 39.0772 67.3625V78.3636C39.0772 78.8828 38.871 79.3807 38.5039 79.7478C38.1368 80.1149 37.6389 80.3211 37.1197 80.3211ZM28.0761 76.4061H35.1623V69.32H28.0761V76.4061ZM42.6594 19.521H75.7019V23.436H42.6594V19.521ZM75.7019 45.2036H42.6594V49.1186H75.7019V45.2036ZM42.6594 70.9053H75.7019V74.8203H42.6594V70.9053Z" fill="white"/>
</svg>
