<svg width="100" height="100" viewBox="0 0 100 100" fill="none" xmlns="http://www.w3.org/2000/svg">
<path fill-rule="evenodd" clip-rule="evenodd" d="M57.2525 15.04H50.0033C49.5227 15.04 49.0616 14.8462 48.7218 14.5011C48.3819 14.156 48.1909 13.688 48.1909 13.2V5.84C48.1909 5.35201 48.3819 4.88399 48.7218 4.53892C49.0616 4.19386 49.5227 4 50.0033 4H57.2525C57.7332 4 58.1942 4.19386 58.534 4.53892C58.874 4.88399 59.0648 5.35201 59.0648 5.84V13.2C59.0648 13.688 58.874 14.156 58.534 14.5011C58.1942 14.8462 57.7332 15.04 57.2525 15.04ZM51.8156 11.36H55.4403V7.68H51.8156V11.36ZM53.6277 31.6H60.8769C61.3576 31.6 61.8186 31.4062 62.1584 31.0612C62.4984 30.716 62.6893 30.2481 62.6893 29.7601V22.4C62.6893 21.912 62.4984 21.4441 62.1584 21.0989C61.8186 20.7539 61.3576 20.56 60.8769 20.56H53.6277C53.1471 20.56 52.686 20.7539 52.3462 21.0989C52.0063 21.4441 51.8155 21.912 51.8155 22.4V29.7601C51.8155 30.2481 52.0063 30.716 52.3462 31.0612C52.686 31.4062 53.1471 31.6 53.6277 31.6ZM59.0647 27.92H55.44V24.2401H59.0647V27.92ZM66.2595 27.0001L65.8245 30.68C68.809 30.9025 71.7519 31.5211 74.578 32.5201C71.3702 33.9368 62.3268 35.2801 50.0031 35.2801C37.3169 35.2801 28.2553 33.808 25.3737 32.5201C27.9834 31.3976 35.4864 29.8888 48.1908 29.7601V26.08C23.5252 26.3377 21.006 30.6616 21.006 32.5201C20.998 32.6425 20.998 32.7655 21.006 32.888C21.0429 33.1135 21.1164 33.3311 21.2235 33.532L21.586 34.1761C21.6661 34.3224 21.7635 34.4583 21.876 34.5808C22.0603 34.7642 22.2605 34.9304 22.474 35.0776L42.7538 67.1857V72.0985C42.7526 72.4744 42.8649 72.8417 43.0754 73.1509C43.2861 73.4602 43.5849 73.6964 43.9318 73.8281C45.9128 74.5901 48.0115 74.9888 50.1299 75.0056C52.1823 74.9994 54.2137 74.5869 56.1105 73.7912C56.4449 73.6561 56.7321 73.4229 56.9354 73.1214C57.1388 72.82 57.249 72.4638 57.2523 72.0985V67.1672L77.4415 35.096C77.8967 34.8381 78.2792 34.4658 78.5521 34.0146C78.8249 33.5636 78.9792 33.0489 79 32.5201C79 30.5512 77.4959 28.3616 66.2595 27.0001ZM53.9176 65.6401C53.7293 65.9363 53.6285 66.2811 53.6277 66.6337V70.7921C51.2669 71.5369 48.7391 71.5369 46.3784 70.7921V66.6337C46.3776 66.2811 46.2768 65.9363 46.0885 65.6401L28.0922 37.1017C35.3197 38.4356 42.6579 39.0519 50.0031 38.9416C57.3356 39.034 64.6601 38.4178 71.8776 37.1017L53.9176 65.6401ZM50.1119 96C49.6885 96.0008 49.2782 95.8511 48.9521 95.5769L37.9695 86.3768C37.6828 86.1345 37.4769 85.8084 37.3796 85.4429C37.2823 85.0774 37.2984 84.6903 37.4258 84.3344C37.5523 83.9788 37.7838 83.6715 38.0887 83.4541C38.3936 83.2369 38.7569 83.1202 39.1293 83.12H44.5663V77.6H48.1909V84.96C48.1909 85.4481 47.9999 85.9161 47.6601 86.2611C47.3202 86.6062 46.8593 86.8001 46.3785 86.8001H44.1676L50.0938 91.7681L55.9114 86.8001H53.6279C53.1472 86.8001 52.6862 86.6062 52.3464 86.2611C52.0064 85.9161 51.8155 85.4481 51.8155 84.96V77.6H55.4401V83.12H60.8771C61.246 83.1238 61.6051 83.2416 61.9063 83.4581C62.2073 83.6745 62.4362 83.9791 62.5624 84.3311C62.6885 84.6832 62.7058 85.066 62.6119 85.4282C62.5179 85.7905 62.3174 86.1151 62.0369 86.3585L51.2718 95.5584C50.9483 95.8394 50.5376 95.9957 50.1119 96ZM35.5046 24.2399H42.754C43.2346 24.2399 43.6955 24.0461 44.0355 23.7011C44.3753 23.3559 44.5663 22.888 44.5663 22.4V15.04C44.5663 14.5519 44.3753 14.0839 44.0355 13.7389C43.6955 13.3938 43.2346 13.1999 42.754 13.1999H35.5046C35.024 13.1999 34.5631 13.3938 34.2232 13.7389C33.8834 14.0839 33.6924 14.5519 33.6924 15.04V22.4C33.6924 22.888 33.8834 23.3559 34.2232 23.7011C34.5631 24.0461 35.024 24.2399 35.5046 24.2399ZM40.9416 20.5599H37.317V16.88H40.9416V20.5599Z" fill="white"/>
</svg>
