<svg width="100" height="100" viewBox="0 0 100 100" fill="none" xmlns="http://www.w3.org/2000/svg">
<path fill-rule="evenodd" clip-rule="evenodd" d="M70.2045 93.9776C69.8151 93.979 69.4353 93.8571 69.1198 93.6294C68.8822 93.4609 68.6884 93.2382 68.5541 92.9801C68.4198 92.722 68.349 92.4359 68.3478 92.1451V71.9879H62.8325V68.323H68.3478V31.6737H62.8325V28.0088H68.3478V7.85155C68.349 7.5384 68.4308 7.23082 68.5854 6.95814C68.7398 6.68547 68.9618 6.45679 69.2302 6.29395C69.5014 6.11897 69.8143 6.01837 70.1371 6.00229C70.4599 5.9862 70.7811 6.0552 71.0686 6.20234L94.9682 17.8385C95.2749 17.9882 95.5336 18.2201 95.7154 18.5081C95.8973 18.7962 95.995 19.1291 95.9978 19.4694V84.2288C96.0175 84.6308 95.904 85.028 95.6747 85.3591C95.4454 85.6903 95.1132 85.9371 94.7293 86.0614L70.8297 93.9776C70.6223 94.0075 70.4117 94.0075 70.2045 93.9776ZM72.0429 10.8018V89.598L92.2657 82.9094V20.6055L72.0429 10.8018ZM29.7406 93.9776C29.5454 94.004 29.3475 94.004 29.1523 93.9776L5.25264 86.0614C4.87212 85.9338 4.54393 85.6856 4.31819 85.3548C4.09245 85.0239 3.98158 84.6285 4.0025 84.2288V19.4694C4.00524 19.1291 4.103 18.7962 4.28484 18.5081C4.46668 18.2201 4.72541 17.9882 5.03203 17.8385L28.9317 6.20234C29.2192 6.0552 29.5404 5.9862 29.8632 6.00229C30.186 6.01837 30.4989 6.11897 30.7701 6.29395C31.0351 6.459 31.2535 6.68864 31.4046 6.96116C31.5559 7.23369 31.6349 7.54013 31.6342 7.85155V28.0088H35.2559V31.6737H31.6342V68.323H35.2559V71.9879H31.6342V92.1451C31.6328 92.4359 31.5621 92.722 31.4279 92.9801C31.2936 93.2382 31.0996 93.4609 30.862 93.6294C30.5405 93.8725 30.1437 93.9956 29.7406 93.9776ZM7.67937 82.9828L27.9021 89.6712V10.8751L7.67937 20.7155V82.9828ZM51.8019 31.6737H57.3172V28.0088H51.8019V31.6737ZM40.7712 31.6737H46.2866V28.0088H40.7712V31.6737ZM57.3172 71.9879H51.8019V68.323H57.3172V71.9879ZM46.2866 71.9879H40.7712V68.323H46.2866V71.9879ZM34.9802 50.4199L41.8926 56.3021L44.2642 53.5717L39.0064 49.0821L44.2642 44.5377L41.8743 41.7523L34.9802 47.6345C34.7783 47.8066 34.6163 48.0201 34.5052 48.2605C34.394 48.5009 34.3365 48.7624 34.3365 49.0271C34.3365 49.2918 34.394 49.5534 34.5052 49.7939C34.6163 50.0343 34.7783 50.2478 34.9802 50.4199ZM58.0524 56.3021L55.6624 53.5167L60.9203 49.0821L55.6441 44.6109L58.034 41.7523L64.9465 47.6162C65.1484 47.7881 65.3104 48.0017 65.4215 48.2422C65.5326 48.4826 65.5901 48.7441 65.5901 49.0088C65.5901 49.2735 65.5326 49.5351 65.4215 49.7755C65.3104 50.016 65.1484 50.2295 64.9465 50.4015L58.0524 56.3021ZM44.5563 60.1661L51.8635 38.6231L55.3467 39.797L48.0395 61.3399L44.5563 60.1661Z" fill="white"/>
</svg>
