<svg width="100" height="100" viewBox="0 0 100 100" fill="none" xmlns="http://www.w3.org/2000/svg">
<path fill-rule="evenodd" clip-rule="evenodd" d="M95.4716 16.1014C95.1333 16.4431 94.6745 16.6351 94.1961 16.6351C93.2211 16.7502 92.3219 17.223 91.6693 17.9637C91.0167 18.7045 90.6561 19.6615 90.6561 20.6531C90.6561 21.6447 91.0167 22.6018 91.6693 23.3425C92.3219 24.0832 93.2211 24.556 94.1961 24.6711C94.6745 24.6711 95.1333 24.8631 95.4716 25.2048C95.8099 25.5466 96 26.01 96 26.4933V58.2C96 58.6833 95.8099 59.1467 95.4716 59.4884C95.1333 59.8303 94.6745 60.0222 94.1961 60.0222H77.9608V56.3778H86.9804V54.5555H77.9608V50.9111H88.7843C89.2627 50.9111 89.7216 51.1031 90.0599 51.4449C90.3982 51.7866 90.5882 52.25 90.5882 52.7333V56.3778H92.3922V28.0604C90.8398 27.5562 89.4859 26.5673 88.5254 25.2362C87.5649 23.905 87.0474 22.3003 87.0474 20.6531C87.0474 19.0059 87.5649 17.4012 88.5254 16.0701C89.4859 14.7389 90.8398 13.75 92.3922 13.2458V12.6444H7.60784V13.2276C9.1833 13.7125 10.5628 14.6959 11.5431 16.0328C12.5234 17.3697 13.0525 18.9894 13.0525 20.6531C13.0525 22.3168 12.5234 23.9365 11.5431 25.2734C10.5628 26.6103 9.1833 27.5937 7.60784 28.0787V56.3778H11.2157V52.7333C11.2157 52.25 11.4057 51.7866 11.744 51.4449C12.0823 51.1031 12.5412 50.9111 13.0196 50.9111H22.0392V54.5555H14.8235V56.3778H22.0392V60.0222H5.80392C5.32549 60.0222 4.86666 59.8303 4.52836 59.4884C4.19006 59.1467 4 58.6833 4 58.2V26.4933C4 26.01 4.19006 25.5466 4.52836 25.2048C4.86666 24.8631 5.32549 24.6711 5.80392 24.6711C6.79582 24.5757 7.71687 24.1101 8.38719 23.3655C9.05751 22.6208 9.42895 21.6504 9.42895 20.644C9.42895 19.6375 9.05751 18.6672 8.38719 17.9225C7.71687 17.1778 6.79582 16.7123 5.80392 16.6169C5.32549 16.6169 4.86666 16.4249 4.52836 16.0832C4.19006 15.7414 4 15.2779 4 14.7947V10.8222C4 10.3389 4.19006 9.87545 4.52836 9.53372C4.86666 9.19198 5.32549 9 5.80392 9H94.1961C94.6745 9 95.1333 9.19198 95.4716 9.53372C95.8099 9.87545 96 10.3389 96 10.8222V14.8129C96 15.2962 95.8099 15.7597 95.4716 16.1014ZM25.647 40.16C25.647 34.0556 37.9317 30.8667 50.036 30.8667C62.1042 30.8667 74.3529 34.0556 74.3529 40.16V81.7067C74.3529 87.8111 62.0862 91 49.9819 91C37.8776 91 25.647 87.8111 25.647 81.7067V40.16ZM29.2548 81.7067C29.2548 83.7111 36.6148 87.3556 50.036 87.3556C63.4211 87.3556 70.745 83.7111 70.6909 81.7067V72.96C66.2172 75.7116 58.0815 77.1511 49.9819 77.1511C41.8823 77.1511 33.7646 75.7116 29.2548 72.9417V81.7067ZM29.3089 67.8578C29.3089 69.8622 36.6148 73.5067 50.036 73.5067C63.4211 73.5067 70.745 69.7711 70.745 67.8578V59.1111C66.2713 61.8627 58.1356 63.3022 50.036 63.3022C41.9364 63.3022 33.8187 61.8627 29.3089 59.1111V67.8578ZM29.3089 54.0089C29.3089 56.0133 36.6148 59.6578 50.036 59.6578C63.4211 59.6578 70.745 55.9222 70.745 54.0089V45.244C66.2713 48.0138 58.1356 49.4534 50.036 49.4534C41.9364 49.4534 33.8187 48.0138 29.3089 45.244V54.0089ZM29.2548 40.16C29.2548 42.0733 36.6148 45.809 50.036 45.809C63.4211 45.809 70.745 42.0733 70.745 40.16C70.745 38.2467 63.4933 34.5111 49.9819 34.5111C36.4705 34.5111 29.2548 38.2467 29.2548 40.16ZM49.0978 27.2222V18.1111C49.0978 17.6278 48.9078 17.1643 48.5695 16.8226C48.2312 16.4809 47.7724 16.2889 47.2939 16.2889H34.6665C34.188 16.2889 33.7292 16.4809 33.3909 16.8226C33.0526 17.1643 32.8625 17.6278 32.8625 18.1111V29.0445H36.4704V19.9333H45.49V27.2222H49.0978ZM67.1374 18.1111V29.0445H63.5296V19.9333H54.5099V27.2222H50.9021V18.1111C50.9021 17.6278 51.0922 17.1643 51.4305 16.8226C51.7688 16.4809 52.2276 16.2889 52.706 16.2889H65.3335C65.8119 16.2889 66.2707 16.4809 66.609 16.8226C66.9473 17.1643 67.1374 17.6278 67.1374 18.1111ZM81.5686 43.6222H77.9608V47.2667H83.3725C83.851 47.2667 84.3098 47.0747 84.6481 46.7329C84.9864 46.3912 85.1765 45.9278 85.1765 45.4444V18.1111C85.1765 17.6278 84.9864 17.1643 84.6481 16.8226C84.3098 16.4809 83.851 16.2889 83.3725 16.2889H70.7451C70.2667 16.2889 69.8078 16.4809 69.4695 16.8226C69.1312 17.1643 68.9412 17.6278 68.9412 18.1111V30.8667H72.549V19.9333H81.5686V43.6222ZM27.4509 19.9333H18.4313V43.6222H22.0392V47.2667H16.6274C16.149 47.2667 15.6901 47.0747 15.3518 46.7329C15.0135 46.3912 14.8235 45.9278 14.8235 45.4444V18.1111C14.8235 17.6278 15.0135 17.1643 15.3518 16.8226C15.6901 16.4809 16.149 16.2889 16.6274 16.2889H29.2549C29.7333 16.2889 30.1921 16.4809 30.5304 16.8226C30.8687 17.1643 31.0588 17.6278 31.0588 18.1111V30.8667H27.4509V19.9333Z" fill="white"/>
</svg>
