<svg width="100" height="100" viewBox="0 0 100 100" fill="none" xmlns="http://www.w3.org/2000/svg">
<path fill-rule="evenodd" clip-rule="evenodd" d="M77.5452 63.8765V67.5221C86.4418 67.5221 95.9265 63.0016 96 50.2418C96 41.6379 90.89 35.6956 81.5155 33.3988C80.523 25.3419 75.1188 21.6963 69.9721 21.6963C67.4887 21.7003 65.0794 22.5351 63.1342 24.0659C61.7871 21.136 59.9051 18.4786 57.583 16.2278C54.249 12.8468 49.9832 10.5167 45.3197 9.52947C40.6563 8.54218 35.8028 8.94159 31.3673 10.6777C26.9318 12.4137 23.1116 15.4092 20.3852 19.2889C17.6589 23.1685 16.1477 27.7598 16.041 32.4874V33.8362C12.4495 34.8111 9.30077 36.9716 7.11502 39.9611C4.92928 42.9506 3.83735 46.59 4.01962 50.2782V51.4812C4.40283 55.9447 6.49411 60.0936 9.86435 63.0765C13.2346 66.0594 17.6282 67.6501 22.1437 67.5221H24.2024V63.8765H22.1069C18.5356 63.9936 15.0541 62.7527 12.3751 60.4077C9.69615 58.0629 8.02221 54.7913 7.6959 51.2625C7.67758 50.9346 7.67758 50.606 7.6959 50.2782C7.5767 47.1638 8.598 44.1119 10.5712 41.6861C12.5443 39.2603 15.336 37.6245 18.4306 37.0809C18.8719 36.9765 19.2588 36.7141 19.5167 36.3439C19.7747 35.9737 19.8853 35.5221 19.8277 35.0758C19.7102 34.2667 19.6487 33.4506 19.6438 32.6332C19.747 28.6175 21.0446 24.7216 23.3737 21.435C25.7027 18.1483 28.9594 15.6176 32.7343 14.1607C36.5092 12.7038 40.6342 12.3858 44.5908 13.2465C48.5475 14.1072 52.1594 16.1083 54.9728 18.9985C57.5464 21.5457 59.5068 24.6363 60.7078 28.0397C60.8274 28.3454 61.0264 28.6145 61.2847 28.8193C61.5429 29.0242 61.8512 29.1577 62.1783 29.2063C62.5028 29.2622 62.8367 29.227 63.142 29.1046C63.4473 28.9821 63.712 28.7775 63.9062 28.5136C64.5903 27.573 65.4909 26.8077 66.5331 26.2815C67.5752 25.7553 68.729 25.4831 69.8985 25.4877C73.3175 25.4877 77.5084 27.8574 77.9128 35.1487C77.9431 35.548 78.1026 35.9269 78.3676 36.2291C78.6325 36.5312 78.9887 36.7405 79.3833 36.8257C87.9122 38.5027 92.2503 43.0963 92.2503 50.3876C92.2503 62.564 81.9567 63.8765 77.5452 63.8765ZM56.1477 51.649C57.9748 49.9859 60.36 49.0555 62.8403 49.0385C65.3204 49.0555 67.7057 49.9859 69.5328 51.649C71.36 53.3123 72.4987 55.5895 72.7278 58.0385C72.9569 60.4875 72.2601 62.9337 70.7725 64.9017C69.2851 66.8698 67.113 68.2194 64.6783 68.6886V78.2402C64.6689 78.7207 64.4723 79.1789 64.1296 79.5189C63.7869 79.8587 63.3247 80.0537 62.8403 80.0631H49.9732V91H46.297V70.9489H33.43C32.9454 70.9396 32.4834 70.7444 32.1406 70.4047C31.7979 70.0649 31.6012 69.6065 31.5918 69.126V63.8034C29.1421 63.3491 26.9517 62.004 25.4499 60.0316C23.9481 58.0592 23.2432 55.6018 23.4733 53.1409C23.7032 50.6799 24.8517 48.3929 26.6935 46.728C28.5354 45.0629 30.9378 44.14 33.43 44.14C35.9222 44.14 38.3246 45.0629 40.1665 46.728C42.0083 48.3929 43.1568 50.6799 43.3868 53.1409C43.6168 55.6018 42.9119 58.0592 41.4101 60.0316C39.9083 62.004 37.7179 63.3491 35.2682 63.8034V67.4491H46.297V45.5751C43.8472 45.1207 41.6569 43.7756 40.155 41.8033C38.6532 39.8309 37.9482 37.3735 38.1783 34.9126C38.4083 32.4517 39.5569 30.1646 41.3986 28.4996C43.2404 26.8347 45.6429 25.9118 48.1351 25.9118C50.6273 25.9118 53.0297 26.8347 54.8715 28.4996C56.7134 30.1646 57.8618 32.4517 58.0919 34.9126C58.3219 37.3735 57.6171 39.8309 56.1152 41.8033C54.6134 43.7756 52.423 45.1207 49.9732 45.5751V76.6725H61.0021V68.6886C58.5674 68.2194 56.3955 66.8698 54.9079 64.9017C53.4204 62.9337 52.7235 60.4875 52.9527 58.0385C53.1817 55.5895 54.3204 53.3123 56.1477 51.649ZM28.1724 50.841C27.4776 51.8722 27.1068 53.0845 27.1068 54.3246C27.1068 55.9877 27.773 57.5827 28.9588 58.7587C30.1447 59.9346 31.753 60.5952 33.43 60.5952C34.6807 60.5952 35.9032 60.2274 36.9429 59.5384C37.9828 58.8494 38.7933 57.8701 39.2719 56.7244C39.7505 55.5785 39.8757 54.3177 39.6317 53.1014C39.3877 51.885 38.7855 50.7677 37.9011 49.8907C37.0169 49.0137 35.8902 48.4166 34.6635 48.1747C33.4371 47.9327 32.1657 48.0569 31.0102 48.5314C29.8548 49.0061 28.8672 49.8098 28.1724 50.841ZM42.8776 32.3575C42.1827 33.3886 41.8119 34.601 41.8119 35.8412C41.8119 37.5043 42.478 39.0991 43.664 40.2752C44.8498 41.4511 46.458 42.1117 48.1351 42.1117C49.3857 42.1117 50.6083 41.744 51.6481 41.055C52.688 40.3659 53.4983 39.3866 53.977 38.2408C54.4555 37.0951 54.5808 35.8343 54.3368 34.6179C54.0928 33.4015 53.4906 32.2843 52.6063 31.4073C51.7219 30.5303 50.5953 29.9331 49.3687 29.6912C48.1421 29.4493 46.8707 29.5734 45.7154 30.048C44.5599 30.5226 43.5724 31.3262 42.8776 32.3575ZM59.3272 64.1684C60.3671 64.8575 61.5896 65.2252 62.8403 65.2252C64.5172 65.2252 66.1256 64.5645 67.3114 63.3886C68.4972 62.2126 69.1634 60.6178 69.1634 58.9547C69.1634 57.7145 68.7925 56.5021 68.0977 55.471C67.4029 54.4397 66.4154 53.6361 65.26 53.1614C64.1046 52.6869 62.8332 52.5626 61.6066 52.8047C60.38 53.0466 59.2534 53.6438 58.369 54.5208C57.4848 55.3977 56.8825 56.515 56.6385 57.7314C56.3946 58.9478 56.5198 60.2086 56.9983 61.3543C57.4769 62.5001 58.2874 63.4794 59.3272 64.1684Z" fill="white"/>
</svg>
