<svg width="100" height="100" viewBox="0 0 100 100" fill="none" xmlns="http://www.w3.org/2000/svg">
<path fill-rule="evenodd" clip-rule="evenodd" d="M38.9786 69.1239H18.7399C16.6926 69.0847 14.695 68.4922 12.9627 67.4104C10.1739 65.7177 7.88114 63.3311 6.31237 60.4879C4.74361 57.6446 3.95356 54.444 4.02083 51.2044C3.83374 47.493 4.91121 43.827 7.08013 40.7953C9.24906 37.7635 12.3836 35.5422 15.9801 34.4881V33.0662C16.0809 28.4345 17.4799 23.9221 20.0209 20.0332C22.5617 16.1443 26.1443 13.0323 30.3679 11.045C34.9077 9.05506 39.9561 8.50017 44.8257 9.45596C49.6951 10.4118 54.1488 12.8318 57.5798 16.3862C59.8863 18.7136 61.7554 21.4297 63.0995 24.4072C65.0168 22.874 67.4063 22.0376 69.8703 22.0374C74.8748 22.0374 80.5049 25.7927 81.5351 34.0323C86.2636 35.1444 95.9782 38.9724 95.9782 51.3685C96.139 54.4728 95.4063 57.5585 93.8656 60.2662C92.3249 62.974 90.0395 65.1923 87.2755 66.663L85.4357 63.4729C87.6146 62.3053 89.4123 60.5465 90.618 58.4026C91.8237 56.2587 92.3876 53.8186 92.2432 51.3685C92.2432 40.6496 83.283 37.9882 79.3641 37.3319C79.1234 37.2894 78.8937 37.1997 78.6883 37.0683C78.483 36.9368 78.3061 36.7662 78.1681 36.5663C77.8983 36.1844 77.7864 35.7148 77.8554 35.2537C77.3218 28.6365 73.4212 25.6833 69.7599 25.6833C68.5939 25.6936 67.4469 25.9782 66.4137 26.5139C65.3805 27.0496 64.4904 27.8208 63.817 28.764C63.62 29.0313 63.3532 29.2405 63.0452 29.3689C62.7374 29.4974 62.3998 29.5403 62.0692 29.4932C61.7396 29.442 61.4302 29.3031 61.1742 29.0912C60.9181 28.8793 60.725 28.6023 60.6156 28.29C59.4161 24.7912 57.4421 21.6023 54.8385 18.9566C51.9274 15.9636 48.1611 13.9259 44.0459 13.1176C39.9309 12.3094 35.6647 12.7694 31.8215 14.4357C28.2773 16.1437 25.2715 18.7784 23.1282 22.0553C20.9849 25.3322 19.7856 29.1269 19.6598 33.0297C19.6614 33.8703 19.7106 34.7101 19.807 35.5454C19.8666 36.0075 19.7453 36.4745 19.4683 36.8509C19.191 37.2272 18.779 37.4841 18.3167 37.5688C15.1892 38.2021 12.3953 39.9271 10.4434 42.4297C8.49162 44.9323 7.51174 48.0461 7.6822 51.2044C7.60495 53.8308 8.23383 56.4304 9.50442 58.7367C10.775 61.0431 12.6416 62.9733 14.9129 64.3296C16.0572 65.055 17.3817 65.4525 18.7399 65.478H38.9786V69.1239ZM93.9728 80.0617L80.9096 67.0642C82.7828 62.8956 83.1082 58.205 81.8282 53.8216C80.548 49.4384 77.7452 45.6446 73.9147 43.1111C70.0843 40.5775 65.473 39.4673 60.8963 39.9769C56.3197 40.4865 52.0722 42.5828 48.9047 45.8954C45.7373 49.208 43.8539 53.5236 43.5876 58.079C43.3213 62.6345 44.6892 67.1366 47.4494 70.7893C50.2097 74.4421 54.1845 77.0103 58.6713 78.0399C63.158 79.0695 67.8677 78.4944 71.9678 76.4159L84.8469 89.1765C86.0757 90.364 87.7302 91.0197 89.4467 90.9994C90.2941 91.0111 91.1353 90.856 91.9219 90.543C92.7083 90.2302 93.4242 89.7656 94.028 89.1765C94.6319 88.5763 95.1097 87.8636 95.4341 87.0795C95.7584 86.2952 95.9228 85.4552 95.9177 84.6077C95.9126 83.7603 95.738 82.9222 95.4042 82.1421C95.0704 81.3618 94.5838 80.6547 93.9728 80.0617ZM63.0811 74.9029C59.9553 74.9029 56.8996 73.9845 54.3006 72.2639C51.7015 70.5432 49.6758 68.0976 48.4796 65.2363C47.2833 62.375 46.9703 59.2265 47.5801 56.1888C48.19 53.1513 49.6953 50.3611 51.9056 48.1711C54.1159 45.9813 56.9321 44.4898 59.9978 43.8856C63.0636 43.2814 66.2414 43.5915 69.1293 44.7767C72.0172 45.962 74.4855 47.969 76.2222 50.544C77.9588 53.1192 78.8857 56.1467 78.8857 59.2438C78.8857 63.3969 77.2207 67.3798 74.2566 70.3164C71.2927 73.253 67.2727 74.9029 63.0811 74.9029ZM91.4153 86.5333C90.8788 87.0371 90.1676 87.318 89.4282 87.318C88.689 87.318 87.9778 87.0371 87.4411 86.5333L75.1875 74.3925C76.6839 73.2294 77.9982 71.8533 79.0881 70.309L91.4153 82.5957C91.9367 83.1207 92.2289 83.8278 92.2289 84.5645C92.2289 85.301 91.9367 86.0081 91.4153 86.5333ZM65.9513 53.7019L68.1408 50.7669H68.2144C66.1057 49.2784 63.4918 48.6693 60.9345 49.071C58.3774 49.4725 56.0815 50.8526 54.5408 52.9142C53.0001 54.9758 52.3378 57.5542 52.6962 60.0948C53.0547 62.6353 54.4053 64.935 56.4575 66.4989L58.5733 63.6551C57.903 63.1704 57.34 62.5549 56.9191 61.8463C56.4982 61.1377 56.2285 60.3511 56.1263 59.5352C55.9474 58.3338 56.1317 57.1069 56.6562 56.0093C57.1807 54.9117 58.0218 53.9927 59.0731 53.3684C60.1245 52.7443 61.339 52.4427 62.5632 52.502C63.7875 52.5613 64.9665 52.9789 65.9513 53.7019Z" fill="white"/>
</svg>
